<svg width="22" height="23" viewBox="0 0 22 23" fill="none" xmlns="http://www.w3.org/2000/svg">
<g clip-path="url(#clip0_407_2197)">
<path d="M8.14475 20.4448C8.63891 20.4448 9.03951 20.0442 9.03951 19.55C9.03951 19.0559 8.63891 18.6553 8.14475 18.6553C7.6506 18.6553 7.25 19.0559 7.25 19.55C7.25 20.0442 7.6506 20.4448 8.14475 20.4448Z" stroke="#B0398D" stroke-width="1.53386" stroke-linecap="round" stroke-linejoin="round"/>
<path d="M17.9866 20.4448C18.4807 20.4448 18.8813 20.0442 18.8813 19.55C18.8813 19.0559 18.4807 18.6553 17.9866 18.6553C17.4924 18.6553 17.0918 19.0559 17.0918 19.55C17.0918 20.0442 17.4924 20.4448 17.9866 20.4448Z" stroke="#B0398D" stroke-width="1.53386" stroke-linecap="round" stroke-linejoin="round"/>
<path d="M0.986328 1.6543H4.56535L6.96329 13.6351C7.04511 14.047 7.26921 14.417 7.59637 14.6804C7.92352 14.9438 8.33289 15.0837 8.7528 15.0756H17.4498C17.8697 15.0837 18.2791 14.9438 18.6062 14.6804C18.9334 14.417 19.1575 14.047 19.2393 13.6351L20.6709 6.12807H5.4601" stroke="#B0398D" stroke-width="1.53386" stroke-linecap="round" stroke-linejoin="round"/>
</g>
<defs>
<clipPath id="clip0_407_2197">
<rect width="21.4741" height="21.4741" fill="white" transform="translate(0.0917969 0.759766)"/>
</clipPath>
</defs>
</svg>
