<svg width="41" height="40" viewBox="0 0 41 40" fill="none" xmlns="http://www.w3.org/2000/svg">
<g clip-path="url(#clip0_2423_33909)">
<path d="M35.3403 25.8484H24.8754C24.6139 25.8484 24.4018 25.6363 24.4018 25.3747V17.1732H19.4488C19.046 17.1707 18.6605 17.009 18.3767 16.7234C18.0929 16.4377 17.9336 16.051 17.9336 15.6485V14.2847C17.9336 13.8819 18.0929 13.4955 18.3767 13.2098C18.6605 12.9242 19.046 12.7624 19.4488 12.76H32.7074C33.6065 12.8278 34.442 13.248 35.0329 13.9292C35.6234 14.6103 35.9212 15.4971 35.8612 16.3965V25.3746C35.8618 25.5089 35.8056 25.6371 35.7061 25.7274C35.607 25.8177 35.4739 25.8617 35.3402 25.8483L35.3403 25.8484ZM25.3489 24.9014L34.9145 24.9011V16.3777C34.9703 15.7316 34.7723 15.0892 34.3618 14.5869C33.9517 14.0846 33.3614 13.762 32.7172 13.6882H19.4586C19.1434 13.6933 18.8904 13.9503 18.8904 14.2658V15.6297C18.8904 15.9449 19.1434 16.2022 19.4586 16.2074H24.8758C25.0015 16.2074 25.1218 16.2571 25.2106 16.3459C25.2994 16.4347 25.3494 16.5553 25.3494 16.6807L25.3489 24.9014Z" fill="black"/>
<path d="M32.7842 25.8484C32.5226 25.8484 32.3105 25.6363 32.3105 25.3748V20.99C32.3105 20.7285 32.5226 20.5164 32.7842 20.5164C32.9099 20.5164 33.0301 20.5661 33.119 20.6549C33.2078 20.7437 33.2578 20.8643 33.2578 20.99V25.3751V25.3748C33.2578 25.5005 33.2078 25.6207 33.119 25.7095C33.0302 25.7984 32.9099 25.8484 32.7842 25.8484Z" fill="black"/>
<path d="M27.4229 25.8484C27.1613 25.8484 26.9492 25.6363 26.9492 25.3748V20.99C26.9492 20.7285 27.1613 20.5164 27.4229 20.5164C27.6844 20.5164 27.8965 20.7285 27.8965 20.99V25.3751V25.3748C27.8965 25.5005 27.8464 25.6207 27.7576 25.7095C27.6688 25.7984 27.5486 25.8484 27.4229 25.8484Z" fill="black"/>
<path d="M30.1031 12.0306C29.1516 12.0532 28.2302 11.6952 27.5439 11.0357C26.8576 10.3763 26.463 9.46988 26.4477 8.51832C26.4325 7.56644 26.7978 6.64816 27.4627 5.96707C28.1277 5.28597 29.0368 4.89863 29.9887 4.89074C30.9405 4.88311 31.856 5.25573 32.5317 5.9259C33.2077 6.59606 33.588 7.50824 33.5882 8.46011C33.5983 9.3955 33.2369 10.2967 32.5836 10.9659C31.9305 11.6351 31.0382 12.0182 30.1031 12.0307V12.0306ZM30.1031 5.83676C29.4027 5.81387 28.7225 6.07235 28.2137 6.55392C27.705 7.03579 27.4102 7.70111 27.395 8.40142C27.3797 9.10179 27.6452 9.77931 28.1323 10.2828C28.6197 10.7864 29.288 11.0742 29.9884 11.0818C30.6891 11.0897 31.3635 10.8172 31.8618 10.3247C32.3602 9.83211 32.6406 9.16076 32.6412 8.46006C32.6489 7.77677 32.3864 7.11787 31.9113 6.62686C31.4361 6.13552 30.7865 5.85168 30.1031 5.83676Z" fill="black"/>
<mask id="mask0_2423_33909" style="mask-type:luminance" maskUnits="userSpaceOnUse" x="0" y="0" width="41" height="26">
<path d="M0.820312 0.31958H40.1805V25.8594H0.820312V0.31958Z" fill="white"/>
</mask>
<g mask="url(#mask0_2423_33909)">
<path d="M36.8664 25.8485H4.20156C3.32234 25.8485 2.47945 25.4991 1.85781 24.8774C1.23617 24.2561 0.886719 23.4129 0.886719 22.5337V3.66805C0.886719 2.78914 1.23615 1.94594 1.85781 1.3243C2.47945 0.702656 3.32234 0.353516 4.20156 0.353516H36.8664C37.7453 0.353516 38.5885 0.70264 39.2102 1.3243C39.8318 1.94594 40.1809 2.78914 40.1809 3.66805V22.5337C40.1809 23.4129 39.8318 24.2561 39.2102 24.8774C38.5885 25.4991 37.7453 25.8485 36.8664 25.8485ZM4.20156 1.30086C3.57351 1.30086 2.97141 1.55019 2.52734 1.99422C2.08328 2.43825 1.83398 3.0407 1.83398 3.66844V22.5341C1.83398 23.1621 2.08331 23.7642 2.52734 24.2083C2.97137 24.6523 3.57352 24.9016 4.20156 24.9016H36.8664C37.4942 24.9016 38.0966 24.6523 38.5406 24.2083C38.9843 23.7642 39.234 23.1621 39.234 22.5341V3.66844C39.234 3.04069 38.9843 2.43828 38.5406 1.99422C38.0966 1.55019 37.4941 1.30086 36.8664 1.30086H4.20156Z" fill="black"/>
</g>
<path d="M3.75458 23.4515C3.49304 23.4515 3.28125 23.2398 3.28125 22.9782V3.19385C3.28125 2.93231 3.49304 2.72021 3.75458 2.72021H37.3093C37.5708 2.72021 37.7829 2.93231 37.7829 3.19385C37.7829 3.45539 37.5708 3.66718 37.3093 3.66718H4.22801V22.9781C4.22801 23.1035 4.17827 23.2241 4.08947 23.3129C4.00066 23.4017 3.88012 23.4514 3.75438 23.4514L3.75458 23.4515Z" fill="black"/>
<mask id="mask1_2423_33909" style="mask-type:luminance" maskUnits="userSpaceOnUse" x="29" y="33" width="12" height="7">
<path d="M29.5625 33.125H40.1797V39.6798H29.5625V33.125Z" fill="white"/>
</mask>
<g mask="url(#mask1_2423_33909)">
<path d="M39.7057 39.6469H30.1025C29.841 39.6469 29.6289 39.4348 29.6289 39.1732V37.1372C29.6313 36.0855 30.0504 35.0775 30.7938 34.3338C31.5375 33.5901 32.5455 33.1714 33.5971 33.1689H36.2109C37.2626 33.1714 38.2705 33.5901 39.0143 34.3338C39.7577 35.0775 40.1767 36.0855 40.1791 37.1372V39.1828C40.174 39.4406 39.9637 39.6469 39.7058 39.6469L39.7057 39.6469ZM30.576 38.6999H39.2322L39.2319 37.1371C39.2319 36.3357 38.9136 35.5673 38.3469 35.0009C37.7805 34.4341 37.0121 34.1159 36.2107 34.1159H33.5968C32.7954 34.1159 32.027 34.4342 31.4606 35.0009C30.8939 35.5673 30.5756 36.3357 30.5756 37.1371L30.576 38.6999Z" fill="black"/>
</g>
<mask id="mask2_2423_33909" style="mask-type:luminance" maskUnits="userSpaceOnUse" x="19" y="33" width="12" height="7">
<path d="M19.9531 33.125H30.5781V39.6798H19.9531V33.125Z" fill="white"/>
</mask>
<g mask="url(#mask2_2423_33909)">
<path d="M30.1041 39.6469H20.501C20.2394 39.6469 20.0273 39.4348 20.0273 39.1732V37.1372C20.0298 36.0855 20.4488 35.0775 21.1922 34.3338C21.9359 33.5901 22.9439 33.1714 23.9955 33.1689H26.6094C27.661 33.1714 28.669 33.5901 29.4127 34.3338C30.1561 35.0775 30.5752 36.0855 30.5776 37.1372V39.1828C30.5724 39.4406 30.3621 39.6469 30.1042 39.6469L30.1041 39.6469ZM20.9744 38.6999H29.6307L29.6304 37.1371C29.6304 36.3357 29.3121 35.5673 28.7454 35.0009C28.179 34.4341 27.4105 34.1159 26.6091 34.1159H23.9953C23.1939 34.1159 22.4254 34.4342 21.859 35.0009C21.2923 35.5673 20.974 36.3357 20.974 37.1371L20.9744 38.6999Z" fill="black"/>
</g>
<mask id="mask3_2423_33909" style="mask-type:luminance" maskUnits="userSpaceOnUse" x="10" y="33" width="12" height="7">
<path d="M10.4219 33.125H21.0469V39.6798H10.4219V33.125Z" fill="white"/>
</mask>
<g mask="url(#mask3_2423_33909)">
<path d="M20.5006 39.6469H10.8975C10.6359 39.6469 10.4238 39.4348 10.4238 39.1732V37.1372C10.4263 36.0855 10.8453 35.0775 11.589 34.3338C12.3324 33.5901 13.3404 33.1714 14.392 33.1689H17.0059C18.0575 33.1714 19.0655 33.5901 19.8092 34.3338C20.5529 35.0775 20.9716 36.0855 20.9741 37.1372V39.1828C20.9689 39.4406 20.7586 39.6469 20.5007 39.6469L20.5006 39.6469ZM11.3709 38.6999H20.0271L20.0268 37.1371C20.0268 36.3357 19.7085 35.5673 19.1418 35.0009C18.5754 34.4341 17.807 34.1159 17.0056 34.1159H14.3918C13.5904 34.1159 12.8219 34.4342 12.2555 35.0009C11.6888 35.5673 11.3705 36.3357 11.3705 37.1371L11.3709 38.6999Z" fill="black"/>
</g>
<mask id="mask4_2423_33909" style="mask-type:luminance" maskUnits="userSpaceOnUse" x="0" y="33" width="12" height="7">
<path d="M0.820312 33.125H11.4383V39.6798H0.820312V33.125Z" fill="white"/>
</mask>
<g mask="url(#mask4_2423_33909)">
<path d="M10.8971 39.6469H1.29395C1.03607 39.6469 0.8255 39.4406 0.820312 39.1828V37.1372C0.822754 36.0855 1.24176 35.0775 1.98547 34.3338C2.72888 33.5901 3.73687 33.1714 4.78852 33.1689H7.44961C8.50156 33.1714 9.50922 33.5901 10.253 34.3338C10.9967 35.0775 11.4154 36.0855 11.4178 37.1372V39.1828C11.416 39.3152 11.3586 39.441 11.2594 39.5292C11.1606 39.6173 11.029 39.6601 10.8972 39.6469H10.8971ZM1.76738 38.6997H10.4236V37.1372C10.4236 36.3441 10.112 35.5826 9.55543 35.0174C8.99909 34.4522 8.24285 34.1284 7.44973 34.1159H4.78863C3.98723 34.1159 3.21879 34.4342 2.65238 35.0009C2.08567 35.5673 1.76738 36.3358 1.76738 37.1372V38.6997Z" fill="black"/>
</g>
<path d="M30.179 35.8585H30.0463C29.8265 35.8589 29.6367 35.7044 29.5919 35.4893C29.4976 35.0962 29.2733 34.7465 28.9553 34.4972C28.637 34.2478 28.2439 34.1136 27.8399 34.116H25.3018C25.0402 34.116 24.8281 33.9039 24.8281 33.6424V30.9056C24.8281 30.178 25.1177 29.4804 25.6332 28.9668C26.1483 28.4532 26.8472 28.1661 27.5748 28.1685H32.6416C33.3673 28.1685 34.0634 28.4569 34.5767 28.9702C35.09 29.4835 35.3784 30.1796 35.3784 30.9056V33.6427V33.6424C35.3784 33.7681 35.3287 33.8887 35.2399 33.9775C35.1511 34.0663 35.0305 34.116 34.9051 34.116H32.367C31.9651 34.1145 31.5744 34.2494 31.2595 34.499C30.9445 34.7483 30.7239 35.0978 30.6336 35.4893C30.5857 35.7026 30.3977 35.8552 30.1792 35.8586L30.179 35.8585ZM25.7845 33.1687H27.8396L27.8399 33.169C28.7511 33.1635 29.6047 33.6152 30.1128 34.3717C30.6188 33.618 31.4682 33.1666 32.3764 33.169H34.4409V30.9055C34.4409 30.4306 34.2523 29.9753 33.9166 29.6396C33.5809 29.3039 33.1256 29.1153 32.6511 29.1153H27.5747C27.099 29.1153 26.6427 29.3036 26.3055 29.639C25.9683 29.9744 25.7776 30.4297 25.7751 30.9055L25.7845 33.1687Z" fill="black"/>
<path d="M20.5661 35.8586H20.4333C20.2124 35.8561 20.0214 35.7041 19.9695 35.4893C19.8791 35.0978 19.6585 34.7483 19.3436 34.499C19.0286 34.2494 18.638 34.1145 18.2364 34.116H15.6982C15.4367 34.116 15.2246 33.9039 15.2246 33.6424V30.9056C15.2246 30.1796 15.513 29.4835 16.0263 28.9702C16.5396 28.4569 17.2357 28.1685 17.9617 28.1685H23.038C23.7638 28.1685 24.4598 28.4568 24.9732 28.9702C25.4865 29.4835 25.7749 30.1796 25.7749 30.9056V33.6427V33.6424C25.7749 33.7681 25.7252 33.8886 25.6364 33.9775C25.5476 34.0663 25.427 34.116 25.3016 34.116H22.7729C22.3698 34.1139 21.9779 34.2484 21.6614 34.4981C21.345 34.7474 21.1225 35.0968 21.03 35.4893C20.9782 35.7042 20.7871 35.8562 20.5662 35.8586L20.5661 35.8586ZM16.1716 33.1687H18.2361L18.2364 33.169C19.1443 33.1666 19.9936 33.6179 20.4999 34.3718C21.008 33.6152 21.8613 33.1636 22.7729 33.169H24.828V30.9055C24.828 30.4307 24.6394 29.9754 24.3037 29.6396C23.968 29.3039 23.5126 29.1154 23.0381 29.1154H17.9618C17.4869 29.1154 17.0316 29.304 16.6959 29.6396C16.3602 29.9753 16.1716 30.4307 16.1716 30.9055L16.1716 33.1687Z" fill="black"/>
<path d="M10.9626 35.8586H10.8298C10.6076 35.8595 10.4148 35.706 10.366 35.4893C10.2756 35.0978 10.055 34.7483 9.74004 34.499C9.4251 34.2494 9.03448 34.1145 8.63285 34.116H6.09473C5.83319 34.116 5.62109 33.9039 5.62109 33.6424V30.9056C5.62109 30.1729 5.91467 29.471 6.43625 28.9568C6.95749 28.4422 7.66367 28.1584 8.39609 28.1685H13.4534C14.181 28.166 14.8795 28.4532 15.395 28.9668C15.9101 29.4804 16.1998 30.1781 16.1998 30.9056V33.6427V33.6424C16.1998 33.7681 16.15 33.8887 16.0612 33.9775C15.9724 34.0663 15.8519 34.116 15.7264 34.116H13.1315C12.7272 34.1136 12.3341 34.2479 12.0158 34.4972C11.6978 34.7465 11.4735 35.0962 11.3792 35.4893C11.338 35.6913 11.168 35.8418 10.9627 35.8586L10.9626 35.8586ZM6.56804 33.1691H8.63288C9.54077 33.1666 10.3901 33.618 10.8964 34.3718C11.3969 33.6262 12.2334 33.1761 13.1315 33.1691H15.1866V30.9055C15.1841 30.4298 14.9934 29.9744 14.6562 29.6391C14.3189 29.3037 13.8627 29.1154 13.3869 29.1154H8.39608C7.92031 29.1154 7.46405 29.3037 7.12686 29.6391C6.78964 29.9744 6.59921 30.4298 6.59646 30.9055L6.56804 33.1691Z" fill="black"/>
</g>
<defs>
<clipPath id="clip0_2423_33909">
<rect width="40" height="40" fill="white" transform="translate(0.5)"/>
</clipPath>
</defs>
</svg>
