<svg width="48" height="48" viewBox="0 0 48 48" fill="none" xmlns="http://www.w3.org/2000/svg">
<rect width="48" height="48" rx="12" fill="#EFD7E8"/>
<path d="M28.728 13.1259C29.8153 11.7279 30.592 9.86396 30.359 8C28.728 8.07766 26.7864 9.08731 25.6214 10.4076C24.6118 11.5726 23.6798 13.5142 23.9128 15.3005C25.7767 15.5335 27.563 14.5239 28.728 13.1259ZM30.359 15.7665C27.7184 15.6112 25.4661 17.2421 24.2234 17.2421C22.9808 17.2421 21.0392 15.8442 18.9422 15.8442C16.2239 15.9218 13.7387 17.3975 12.3407 19.8827C9.54476 24.7756 11.564 31.9985 14.36 35.9594C15.6803 37.901 17.3113 40.0756 19.4082 39.998C21.4275 39.9203 22.2042 38.6777 24.6118 38.6777C27.0194 38.6777 27.7184 39.998 29.893 39.9203C32.0676 39.8426 33.4656 37.9787 34.7859 35.9594C36.3392 33.7071 36.9605 31.5325 36.9605 31.4548C36.8828 31.3772 32.6889 29.8239 32.6889 25.0086C32.6113 20.9701 35.9509 19.0284 36.1062 18.9508C34.3199 16.1548 31.3686 15.8442 30.359 15.7665Z" fill="black"/>
</svg>
