<svg width="636" height="409" viewBox="0 0 636 409" fill="none" xmlns="http://www.w3.org/2000/svg">
<path d="M265.381 233.701C274.417 233.765 280.964 231.316 283.137 223.278C290.418 196.125 275.076 160.986 298.202 140.071C310.097 129.345 330.973 126.024 355.576 128.511C471.863 140.4 542.857 205.619 559.652 231.773C576.868 258.572 546.718 273.575 522.587 280.618C492.864 289.308 458.742 295.35 441.898 314.177C424.117 334.058 376.723 375.307 344.672 386.538C322.059 394.462 277.489 397.911 245.758 382.906C214.027 367.901 195.378 335.569 179.338 313.05C163.298 290.531 37.4821 278.792 36.962 258.351C36.2636 230.864 84.931 225.71 118.536 223.834C152.61 221.937 189.226 223.752 227.067 228.453C241.074 230.22 254.897 233.64 265.381 233.701Z" stroke="#1D0FBF" stroke-opacity="0.2" stroke-width="1.50967"/>
<path d="M565.942 230.539C584.295 259.089 552.106 275.071 526.425 282.596C494.79 291.878 458.346 298.279 440.446 318.388C421.514 339.586 380.363 382.007 346.174 393.967C322.056 402.434 276.065 404.24 242.198 388.225C211.932 373.912 193.429 344.199 177.131 322.894C160.333 300.947 47.8385 288.222 45.3396 267.776C41.9346 239.496 82.8765 230.486 112.326 225.067C141.871 219.612 175.274 218.409 210.922 220.616C224.13 221.439 237.328 223.875 247.739 223.497C256.65 223.218 263.414 220.792 266.654 213.622C271.509 202.806 273.44 191.173 276.036 180.016C278.23 170.491 281 161.319 286.94 153.362C289.812 149.499 293.694 146.033 298.654 142.835C312.2 134.185 333.526 131.602 358.997 134.177C396.813 138.056 430.67 146.417 459.95 157.39C514.837 177.921 552.961 210.317 565.942 230.539Z" stroke="#1D0FBF" stroke-opacity="0.2" stroke-width="1.50967"/>
<path d="M572.293 229.334C591.782 259.635 557.615 276.624 530.324 284.602C496.715 294.448 458.07 301.266 438.992 322.598C418.91 345.114 383.984 388.738 347.72 401.457C322.114 410.434 274.624 410.6 238.743 393.633C209.88 379.984 191.54 352.857 175.029 332.827C157.411 311.424 58.16 297.717 53.8823 277.32C47.7098 248.217 81.0311 235.441 106.264 226.45C131.385 217.527 161.409 213.189 194.864 212.902C207.195 212.784 219.767 214.237 230.183 213.415C238.986 212.762 246.046 210.353 250.336 204.085C256.946 194.422 261.802 184.618 267.393 175.444C272.094 167.671 277.242 160.351 285.028 153.956C288.749 150.94 293.515 148.256 299.255 145.75C314.251 139.122 336.288 137.361 362.506 139.964C399.287 143.638 433.147 150.543 463.508 160.044C516.273 176.497 557.507 206.315 572.293 229.334Z" stroke="#1D0FBF" stroke-opacity="0.2" stroke-width="1.50967"/>
<path d="M578.643 228.127C599.251 260.212 563.122 278.175 534.265 286.667C498.683 297.078 457.759 304.316 437.643 326.897C416.349 350.702 387.726 395.526 349.386 409.003C322.292 418.491 273.364 417.046 235.347 399.069C207.948 386.112 189.633 361.546 172.924 342.759C154.47 321.931 68.4972 307.178 62.3627 286.834C53.3615 256.878 79.1063 240.399 100.157 227.771C120.793 215.351 147.498 207.906 178.777 205.092C190.294 204.062 202.179 204.502 212.583 203.27C221.278 202.242 228.616 199.884 233.895 194.489C242.26 185.98 250.04 178.003 258.643 170.78C265.835 164.791 273.317 159.264 283.01 154.458C287.537 152.228 293.152 150.391 299.705 148.512C316.091 143.876 338.839 142.937 365.864 145.599C401.637 149.16 435.406 154.647 466.976 162.574C517.555 175.362 562.052 202.312 578.643 228.127Z" stroke="#1D0FBF" stroke-opacity="0.2" stroke-width="1.50967"/>
<path d="M584.995 226.922C606.738 260.758 568.632 279.729 538.165 288.674C500.652 299.71 457.484 307.303 436.191 331.107C413.746 356.23 391.349 402.258 350.889 416.433C322.289 426.463 271.879 423.346 231.77 404.42C205.836 392.156 187.466 370.154 170.717 352.602C151.348 332.354 78.6361 316.587 70.757 296.227C58.8052 265.362 77.1395 245.297 93.9466 229.003C110.186 213.209 133.529 202.595 162.615 197.288C173.254 195.317 184.515 194.774 194.906 193.131C203.476 191.761 211.11 189.421 217.455 184.894C227.715 177.564 238.203 171.394 249.879 166.15C259.456 161.856 269.393 158.178 281.02 155.056C286.353 153.612 292.836 152.589 300.228 151.431C317.899 148.698 341.523 148.699 369.295 151.391C404.078 154.807 437.67 159.036 470.5 165.293C518.798 174.453 566.554 198.25 584.995 226.922Z" stroke="#1D0FBF" stroke-opacity="0.2" stroke-width="1.50967"/>
<path d="M591.345 225.715C614.225 261.302 574.14 281.28 542.063 290.678C502.577 302.278 457.147 310.258 434.815 335.312C411.22 361.752 395.126 408.98 352.512 423.917C322.425 434.458 270.575 429.73 228.331 409.794C203.862 398.223 185.438 378.786 168.631 362.501C148.286 342.803 88.8521 325.99 79.3163 305.737C64.3357 273.966 75.4596 250.37 87.9013 230.352C99.8044 211.213 119.724 197.402 146.652 189.535C156.458 186.686 167.049 185.097 177.384 182.983C185.83 181.27 193.819 178.978 201.093 175.294C213.23 169.175 226.415 164.686 241.192 161.515C253.136 158.948 265.408 157.061 279.064 155.586C285.141 154.899 292.447 154.63 300.74 154.221C319.591 153.301 344.119 154.337 372.776 157.083C406.568 160.354 440.099 163.543 474.153 167.909C520.12 173.822 571.099 194.246 591.345 225.715Z" stroke="#1D0FBF" stroke-opacity="0.2" stroke-width="1.50967"/>
<path d="M597.617 224.513C621.633 261.851 579.587 282.804 545.961 292.683C504.501 304.848 456.871 313.244 433.361 339.522C408.554 367.251 398.764 415.679 354.074 431.374C322.498 442.425 269.133 436.09 224.892 415.17C201.826 404.262 183.391 387.451 166.544 372.402C145.207 353.287 98.9896 335.398 87.8142 315.22C69.7268 282.546 73.7354 255.383 81.8116 231.641C89.4568 209.153 105.893 192.116 130.566 181.727C139.557 177.965 149.523 175.393 159.783 172.839C168.122 170.752 176.451 168.539 184.652 165.699C198.727 160.82 214.471 157.986 232.443 156.852C246.773 155.979 261.457 155.881 277.046 156.09C283.929 156.188 292.057 156.672 301.235 157.046C321.239 157.845 346.775 160.005 376.196 162.747C408.997 165.874 442.598 168.205 477.665 170.502C521.634 173.405 575.644 190.244 597.617 224.513Z" stroke="#1D0FBF" stroke-opacity="0.2" stroke-width="1.50967"/>
<path d="M603.967 223.306C629.101 262.428 585.016 284.359 549.78 294.691C506.347 307.42 456.455 316.204 431.89 343.763C405.932 372.809 402.367 422.44 355.54 438.866C322.52 450.489 267.673 442.481 221.296 420.551C199.694 410.336 181.094 396.157 164.24 382.279C141.815 363.782 108.892 344.815 96.0943 324.679C74.866 291.167 71.8545 260.402 75.5481 232.969C78.9965 207.16 91.931 186.93 114.367 173.985C122.543 169.312 131.883 165.756 142.07 162.762C150.345 160.362 159.03 158.196 168.176 156.167C184.156 152.594 202.587 151.313 223.642 152.285C240.313 153.045 257.392 154.768 274.959 156.721C282.587 157.576 291.555 158.781 301.678 159.966C322.851 162.451 349.379 165.768 379.547 168.54C411.392 171.457 445.256 173.144 481.144 173.157C523.297 173.139 580.189 186.241 603.967 223.306Z" stroke="#1D0FBF" stroke-opacity="0.2" stroke-width="1.50967"/>
<path d="M272.96 157.193C315.605 165.218 393.341 181.863 484.64 175.783C525.25 173.051 584.674 182.211 610.318 222.101C636.588 262.975 590.525 285.913 553.74 296.726C508.394 310.048 456.241 319.22 430.498 348.003C403.328 378.338 406.066 429.169 357.164 446.353C322.656 458.486 266.309 448.839 217.858 425.927C169.407 403.016 129.18 368.533 104.671 334.159C80.18 299.752 70.3485 265.437 69.5375 234.256C67.9419 170.973 114.012 134.845 214.99 147.587C234.002 149.981 253.476 153.524 272.96 157.193Z" stroke="#1D0FBF" stroke-opacity="0.2" stroke-width="1.50967"/>
</svg>
