<svg width="406" height="198" viewBox="0 0 406 198" fill="none" xmlns="http://www.w3.org/2000/svg">
<path d="M265.383 -111.299C274.419 -111.235 280.966 -113.684 283.139 -121.722C290.42 -148.875 275.078 -184.014 298.204 -204.929C310.098 -215.655 330.975 -218.976 355.577 -216.489C471.865 -204.6 542.859 -139.381 559.654 -113.227C576.87 -86.4285 546.72 -71.4252 522.589 -64.3817C492.866 -55.6923 458.744 -49.6496 441.9 -30.8231C424.119 -10.9419 376.725 30.3074 344.674 41.5382C322.061 49.4616 277.491 52.9111 245.76 37.9061C214.029 22.9011 195.38 -9.43095 179.34 -31.9498C163.3 -54.4686 37.484 -66.2085 36.964 -86.6494C36.2656 -114.136 84.9329 -119.29 118.538 -121.166C152.612 -123.063 189.228 -121.248 227.069 -116.547C241.076 -114.78 254.898 -111.36 265.383 -111.299Z" stroke="#1D0FBF" stroke-opacity="0.2" stroke-width="1.50967"/>
<path d="M565.944 -114.461C584.297 -85.911 552.108 -69.9295 526.427 -62.4043C494.792 -53.1219 458.347 -46.7205 440.448 -26.6125C421.516 -5.41376 380.365 37.0067 346.176 48.9673C322.058 57.4335 276.067 59.2397 242.2 43.2247C211.934 28.9122 193.431 -0.801181 177.133 -22.1063C160.335 -44.053 47.8405 -56.778 45.3416 -77.2239C41.9366 -105.504 82.8784 -114.514 112.328 -119.933C141.873 -125.388 175.276 -126.591 210.924 -124.384C224.132 -123.561 237.329 -121.125 247.741 -121.503C256.652 -121.782 263.416 -124.208 266.656 -131.378C271.511 -142.194 273.442 -153.827 276.038 -164.984C278.232 -174.509 281.002 -183.681 286.942 -191.638C289.814 -195.501 293.696 -198.967 298.656 -202.165C312.202 -210.815 333.528 -213.398 358.999 -210.823C396.815 -206.944 430.671 -198.583 459.952 -187.61C514.839 -167.079 552.963 -134.683 565.944 -114.461Z" stroke="#1D0FBF" stroke-opacity="0.2" stroke-width="1.50967"/>
<path d="M572.295 -115.666C591.784 -85.365 557.617 -68.3763 530.326 -60.3984C496.717 -50.5518 458.072 -43.7341 438.994 -22.4022C418.912 0.114053 383.986 43.7381 347.722 56.4572C322.116 65.434 274.626 65.6003 238.745 48.6331C209.882 34.9843 191.542 7.85713 175.031 -12.1731C157.413 -33.5764 58.1619 -47.2831 53.8843 -67.6797C47.7117 -96.7834 81.0331 -109.559 106.266 -118.55C131.387 -127.473 161.411 -131.811 194.866 -132.098C207.197 -132.216 219.769 -130.763 230.185 -131.585C238.988 -132.238 246.048 -134.647 250.338 -140.915C256.948 -150.578 261.804 -160.382 267.395 -169.556C272.096 -177.329 277.244 -184.649 285.03 -191.044C288.751 -194.06 293.517 -196.744 299.257 -199.25C314.253 -205.878 336.29 -207.639 362.508 -205.036C399.289 -201.362 433.149 -194.457 463.51 -184.956C516.275 -168.503 557.509 -138.685 572.295 -115.666Z" stroke="#1D0FBF" stroke-opacity="0.2" stroke-width="1.50967"/>
<path d="M578.645 -116.873C599.253 -84.7883 563.124 -66.8247 534.267 -58.3328C498.685 -47.922 457.761 -40.6845 437.645 -18.1034C416.351 5.7015 387.728 50.5256 349.388 64.0034C322.294 73.4905 273.366 72.0459 235.349 54.0687C207.95 41.1125 189.635 16.5463 172.926 -2.24146C154.472 -23.069 68.4991 -37.8222 62.3647 -58.1661C53.3635 -88.1216 79.1083 -104.601 100.159 -117.229C120.795 -129.649 147.5 -137.094 178.779 -139.908C190.295 -140.938 202.181 -140.498 212.584 -141.73C221.28 -142.758 228.618 -145.116 233.897 -150.511C242.262 -159.02 250.042 -166.997 258.645 -174.22C265.837 -180.209 273.319 -185.736 283.012 -190.542C287.539 -192.772 293.154 -194.609 299.707 -196.488C316.093 -201.124 338.841 -202.063 365.866 -199.401C401.639 -195.84 435.408 -190.353 466.978 -182.426C517.557 -169.638 562.054 -142.688 578.645 -116.873Z" stroke="#1D0FBF" stroke-opacity="0.2" stroke-width="1.50967"/>
<path d="M584.997 -118.078C606.74 -84.2417 568.633 -65.271 538.167 -56.3263C500.654 -45.2901 457.486 -37.6975 436.192 -13.8926C413.748 11.2298 391.351 57.2576 350.891 71.4326C322.291 81.4627 271.881 78.3458 231.772 59.4199C205.838 47.1562 187.468 25.1545 170.719 7.60216C151.35 -12.6461 78.6381 -28.4133 70.759 -48.7728C58.8071 -79.638 77.1414 -99.7025 93.9486 -115.997C110.188 -131.791 133.531 -142.405 162.617 -147.712C173.256 -149.683 184.517 -150.226 194.908 -151.869C203.478 -153.239 211.111 -155.579 217.457 -160.106C227.717 -167.436 238.205 -173.606 249.881 -178.85C259.457 -183.144 269.395 -186.822 281.022 -189.944C286.355 -191.388 292.838 -192.411 300.23 -193.569C317.901 -196.302 341.525 -196.301 369.297 -193.609C404.08 -190.193 437.672 -185.964 470.502 -179.707C518.8 -170.547 566.556 -146.75 584.997 -118.078Z" stroke="#1D0FBF" stroke-opacity="0.2" stroke-width="1.50967"/>
<path d="M591.347 -119.285C614.227 -83.6977 574.142 -63.7197 542.065 -54.3223C502.579 -42.7219 457.149 -34.7418 434.817 -9.68772C411.222 16.7522 395.128 63.9799 352.514 78.9172C322.426 89.4577 270.577 84.7298 228.333 64.7939C203.864 53.2228 185.439 33.7856 168.633 17.5011C148.288 -2.19678 88.8541 -19.0105 79.3183 -39.2629C64.3377 -71.0343 75.4616 -94.6298 87.9033 -114.648C99.8063 -133.787 119.726 -147.598 146.654 -155.465C156.46 -158.314 167.051 -159.903 177.386 -162.017C185.832 -163.73 193.821 -166.022 201.095 -169.706C213.232 -175.825 226.417 -180.314 241.194 -183.485C253.138 -186.052 265.41 -187.939 279.066 -189.414C285.143 -190.101 292.449 -190.37 300.742 -190.779C319.593 -191.699 344.121 -190.663 372.778 -187.917C406.57 -184.646 440.101 -181.457 474.155 -177.091C520.122 -171.178 571.101 -150.754 591.347 -119.285Z" stroke="#1D0FBF" stroke-opacity="0.2" stroke-width="1.50967"/>
<path d="M597.619 -120.487C621.635 -83.1485 579.589 -62.1958 545.963 -52.3168C504.503 -40.1522 456.873 -31.7557 433.363 -5.4778C408.556 22.2508 398.766 70.6786 354.076 86.3744C322.5 97.4254 269.135 91.09 224.894 70.1696C201.828 59.2621 183.393 42.4506 166.546 27.4015C145.209 8.28654 98.9916 -9.60246 87.8161 -29.7804C69.7288 -62.4543 73.7373 -89.6169 81.8135 -113.359C89.4588 -135.847 105.894 -152.884 130.568 -163.273C139.559 -167.035 149.525 -169.607 159.785 -172.161C168.124 -174.248 176.452 -176.461 184.654 -179.301C198.729 -184.18 214.473 -187.014 232.445 -188.148C246.774 -189.021 261.458 -189.119 277.048 -188.91C283.931 -188.812 292.059 -188.328 301.237 -187.954C321.24 -187.155 346.777 -184.995 376.198 -182.253C408.999 -179.126 442.6 -176.795 477.667 -174.498C521.636 -171.595 575.646 -154.756 597.619 -120.487Z" stroke="#1D0FBF" stroke-opacity="0.2" stroke-width="1.50967"/>
<path d="M603.969 -121.694C629.103 -82.5721 585.018 -60.641 549.782 -50.3092C506.349 -37.5805 456.457 -28.7965 431.892 -1.23701C405.934 27.8091 402.369 77.4405 355.542 93.8661C322.522 105.489 267.675 97.4811 221.298 75.5507C199.696 65.3358 181.095 51.1571 164.242 37.2787C141.817 18.7825 108.894 -0.185389 96.0963 -20.3212C74.868 -53.8328 71.8564 -84.5984 75.5501 -112.031C78.9985 -137.84 91.9329 -158.07 114.369 -171.015C122.545 -175.688 131.885 -179.244 142.072 -182.238C150.347 -184.638 159.032 -186.804 168.178 -188.833C184.158 -192.406 202.589 -193.687 223.644 -192.715C240.315 -191.955 257.394 -190.232 274.961 -188.279C282.589 -187.424 291.557 -186.219 301.679 -185.034C322.853 -182.549 349.381 -179.232 379.549 -176.46C411.394 -173.543 445.258 -171.856 481.145 -171.843C523.299 -171.861 580.191 -158.759 603.969 -121.694Z" stroke="#1D0FBF" stroke-opacity="0.2" stroke-width="1.50967"/>
<path d="M272.961 -187.807C315.607 -179.782 393.343 -163.137 484.642 -169.217C525.252 -171.949 584.676 -162.789 610.32 -122.899C636.59 -82.0254 590.527 -59.0871 553.742 -48.2737C508.396 -34.9519 456.243 -25.7805 430.5 3.00284C403.33 33.3376 406.068 84.169 357.166 101.353C322.658 113.486 266.311 103.839 217.86 80.9274C169.409 58.0159 129.182 23.5335 104.673 -10.8411C80.182 -45.2482 70.3504 -79.5626 69.5395 -110.744C67.9438 -174.027 114.014 -210.155 214.992 -197.413C234.004 -195.019 253.478 -191.476 272.961 -187.807Z" stroke="#1D0FBF" stroke-opacity="0.2" stroke-width="1.50967"/>
</svg>
