<svg width="25" height="25" viewBox="0 0 25 25" fill="none" xmlns="http://www.w3.org/2000/svg">
<path d="M18.3145 8.55176C18.3145 6.96046 17.6823 5.43434 16.5571 4.30912C15.4319 3.1839 13.9058 2.55176 12.3145 2.55176C10.7232 2.55176 9.19703 3.1839 8.07181 4.30912C6.94659 5.43434 6.31445 6.96046 6.31445 8.55176C6.31445 15.5518 3.31445 17.5518 3.31445 17.5518H21.3145C21.3145 17.5518 18.3145 15.5518 18.3145 8.55176Z" stroke="#B0398D" stroke-width="2" stroke-linecap="round" stroke-linejoin="round"/>
<path d="M14.0479 21.5518C13.8721 21.8548 13.6197 22.1064 13.3161 22.2813C13.0125 22.4562 12.6683 22.5482 12.3179 22.5482C11.9675 22.5482 11.6233 22.4562 11.3197 22.2813C11.016 22.1064 10.7637 21.8548 10.5879 21.5518" stroke="#B0398D" stroke-width="2" stroke-linecap="round" stroke-linejoin="round"/>
</svg>
