<svg width="24" height="25" viewBox="0 0 24 25" fill="none" xmlns="http://www.w3.org/2000/svg">
<path d="M0.75 13.25L2.4585 12.1685C2.91312 11.8947 3.43378 11.75 3.9645 11.75C4.49521 11.75 5.01588 11.8947 5.4705 12.1685L6.4755 12.8045C6.93012 13.0783 7.45079 13.223 7.9815 13.223C8.51222 13.223 9.03288 13.0783 9.4875 12.8045L10.5 12.1685C10.9532 11.897 11.4717 11.7536 12 11.7536C12.5283 11.7536 13.0468 11.897 13.5 12.1685L14.5065 12.8045C14.9611 13.0783 15.4818 13.223 16.0125 13.223C16.5432 13.223 17.0638 13.0783 17.5185 12.8045L18.5235 12.1685C18.9781 11.8947 19.4988 11.75 20.0295 11.75C20.5602 11.75 21.0809 11.8947 21.5355 12.1685L23.25 13.25" stroke="#BF2B91" stroke-linecap="round" stroke-linejoin="round"/>
<path d="M3.75 2.75H20.25C21.0456 2.75 21.8086 3.06606 22.3713 3.62868C22.9339 4.19129 23.25 4.95435 23.25 5.75V7.25H0.75V5.75C0.75 4.95435 1.06607 4.19129 1.62869 3.62868C2.19129 3.06606 2.95435 2.75 3.75 2.75Z" stroke="#BF2B91" stroke-linecap="round" stroke-linejoin="round"/>
<path d="M0.75 17.75H23.25V19.25C23.25 20.0456 22.9339 20.8086 22.3713 21.3713C21.8086 21.9339 21.0456 22.25 20.25 22.25H3.75C2.95435 22.25 2.19129 21.9339 1.62869 21.3713C1.06607 20.8086 0.75 20.0456 0.75 19.25V17.75Z" stroke="#BF2B91" stroke-linecap="round" stroke-linejoin="round"/>
</svg>
