<svg width="40" height="40" viewBox="0 0 40 40" fill="none" xmlns="http://www.w3.org/2000/svg">
<g clip-path="url(#clip0_1656_21140)">
<path fill-rule="evenodd" clip-rule="evenodd" d="M32.5552 4.19915H28.6339V2.89204C28.6339 2.17014 28.0487 1.58493 27.3268 1.58493C26.6049 1.58493 26.0197 2.17014 26.0197 2.89204V4.19915H12.9485V2.89204C12.9485 2.17014 12.3633 1.58493 11.6414 1.58493C10.9195 1.58493 10.3343 2.17014 10.3343 2.89204V4.19915H6.41298C4.96919 4.19915 3.79876 5.36958 3.79876 6.81337V32.9556C3.79876 34.3994 4.96919 35.5698 6.41298 35.5698H32.5552C33.999 35.5698 35.1694 34.3994 35.1694 32.9556V6.81337C35.1694 5.36958 33.999 4.19915 32.5552 4.19915ZM10.3343 6.81337V8.12048C10.3343 8.84238 10.9195 9.4276 11.6414 9.4276C12.3633 9.4276 12.9485 8.84238 12.9485 8.12048V6.81337H26.0197V8.12048C26.0197 8.84238 26.6049 9.4276 27.3268 9.4276C28.0487 9.4276 28.6339 8.84238 28.6339 8.12048V6.81337H32.5552V12.0418H6.41298V6.81337H10.3343ZM32.5552 32.9556H6.41298V14.656H32.5552V32.9556ZM16.8699 18.5774V29.0343C16.8699 29.7562 16.2847 30.3414 15.5628 30.3414C14.8409 30.3414 14.2557 29.7562 14.2557 29.0343V20.6916L13.5335 21.0544C12.8874 21.3774 12.1017 21.1155 11.7787 20.4694C11.4556 19.8233 11.7175 19.0377 12.3636 18.7146L14.9778 17.4075C15.3832 17.2047 15.8647 17.2263 16.2502 17.4647C16.6357 17.703 16.8702 18.1241 16.8699 18.5774ZM26.536 23.5526L23.4054 27.7272H26.0197C26.7416 27.7272 27.3268 28.3124 27.3268 29.0343C27.3268 29.7562 26.7416 30.3414 26.0197 30.3414H20.7912C20.2961 30.3414 19.8435 30.0617 19.6221 29.6188C19.4007 29.176 19.4485 28.6461 19.7455 28.25L24.4479 21.9808C24.7393 21.5928 24.7918 21.0753 24.5843 20.6367C24.3767 20.198 23.9433 19.9105 23.4585 19.8898C22.9737 19.8691 22.5173 20.1187 22.2731 20.538C22.0464 20.9556 21.6109 21.2173 21.1357 21.2214C20.6605 21.2254 20.2205 20.9713 19.9866 20.5577C19.7528 20.144 19.7618 19.636 20.0102 19.2309C20.8979 17.6947 22.7066 16.9459 24.4204 17.4052C26.1343 17.8645 27.3262 19.4173 27.3268 21.1916C27.3295 22.0441 27.0516 22.8738 26.536 23.5526Z" fill="black"/>
</g>
<defs>
<clipPath id="clip0_1656_21140">
<rect width="40" height="40" fill="white"/>
</clipPath>
</defs>
</svg>
