<svg width="91" height="86" viewBox="0 0 91 86" fill="none" xmlns="http://www.w3.org/2000/svg">
<path d="M54.8477 73.9804C56.1465 73.2306 57.0906 71.9892 57.4723 70.5295C57.8541 69.0699 57.6422 67.5113 56.8833 66.1969L54.0219 61.2407C53.2629 59.9262 52.0192 58.9635 50.5642 58.5642C49.1092 58.165 47.5621 58.362 46.2633 59.1118C36.4692 64.7665 30.7462 54.8541 27.8848 49.8979C25.0233 44.9417 19.3004 35.0293 29.0946 29.3747C30.3933 28.6248 31.3375 27.3835 31.7192 25.9238C32.101 24.4641 31.8891 22.9056 31.1302 21.5912L28.2687 16.635C27.5098 15.3205 26.2661 14.3578 24.811 13.9585C23.356 13.5593 21.809 13.7563 20.5102 14.5061C8.26749 21.5744 3.78333 30.7716 18.0906 55.5526C32.3979 80.3335 42.605 81.0487 54.8477 73.9804Z" stroke="#B0398D" stroke-width="4.46667" stroke-linecap="round" stroke-linejoin="round"/>
<path d="M80.9102 53.5153C83.5114 43.5474 82.062 32.9072 76.8804 23.9323C71.6987 14.9575 63.2087 8.3821 53.2756 5.65091M65.9168 49.4013C66.6917 46.4409 66.8777 43.3498 66.464 40.3047C66.0504 37.2596 65.0452 34.32 63.506 31.654C61.9668 28.988 59.9236 26.6477 57.4933 24.7669C55.063 22.8861 52.293 21.5017 49.3418 20.6926M51.004 45.2573C51.5241 43.2627 51.2339 41.1337 50.1971 39.3379C49.1603 37.5422 47.4617 36.2263 45.4743 35.6794" stroke="#B0398D" stroke-width="4.46667" stroke-linecap="round" stroke-linejoin="round"/>
</svg>
