<svg width="21" height="21" viewBox="0 0 21 21" fill="none" xmlns="http://www.w3.org/2000/svg">
<g clip-path="url(#clip0_496_7354)">
<path d="M3.80036 5.30677H15.6664C16.0318 5.30677 16.3281 5.01051 16.3281 4.64509C16.3281 4.27966 16.0318 3.9834 15.6664 3.9834H3.80036C3.43494 3.9834 3.13867 4.27966 3.13867 4.64509C3.13867 5.01051 3.43494 5.30677 3.80036 5.30677Z" fill="#B0398D"/>
<path d="M3.80036 8.13002H15.6664C16.0318 8.13002 16.3281 7.83375 16.3281 7.46833C16.3281 7.1029 16.0318 6.80664 15.6664 6.80664H3.80036C3.43494 6.80664 3.13867 7.1029 3.13867 7.46833C3.13867 7.83375 3.43494 8.13002 3.80036 8.13002Z" fill="#B0398D"/>
<path d="M10.0957 9.62988H3.80036C3.43494 9.62988 3.13867 9.92615 3.13867 10.2916C3.13867 10.657 3.43494 10.9533 3.80036 10.9533H10.0957C10.4611 10.9533 10.7574 10.657 10.7574 10.2916C10.7574 9.92615 10.4611 9.62988 10.0957 9.62988Z" fill="#B0398D"/>
<path d="M20.5705 19.6895L18.8405 16.2643L19.5099 15.9972C19.6857 15.927 19.8332 15.7241 19.8457 15.5352L19.9027 14.6763C19.9123 14.5324 19.9852 14.308 20.062 14.1861L20.5206 13.4577C20.6215 13.2976 20.6215 13.0467 20.5206 12.8865L20.062 12.1582C19.9853 12.0363 19.9123 11.8117 19.9028 11.6679L19.8458 10.8091C19.8351 10.6474 19.7252 10.4756 19.5836 10.3855V2.42299C19.5836 1.69325 18.99 1.09961 18.2603 1.09961H1.93075C1.20106 1.09961 0.607422 1.69325 0.607422 2.42299V13.7587C0.607422 14.4884 1.20106 15.082 1.93075 15.082H12.3395L12.3695 15.5352C12.3821 15.7241 12.5295 15.927 12.7053 15.9972L13.3338 16.248L11.5956 19.6895C11.5421 19.7955 11.5564 19.8593 11.5779 19.8942C11.5915 19.9163 11.6248 19.9533 11.6949 19.9533C11.73 19.9533 11.7704 19.9439 11.815 19.9252L13.2389 19.3291C13.2739 19.3144 13.3156 19.3067 13.3594 19.3067C13.464 19.3067 13.5706 19.35 13.6309 19.4168L14.3149 20.1751C14.3719 20.2384 14.4425 20.2732 14.5136 20.2732C14.6074 20.2732 14.6915 20.2126 14.7386 20.1111L16.0786 17.2204C16.0816 17.2204 16.0844 17.2204 16.0873 17.2203L17.4275 20.1111C17.4745 20.2126 17.5586 20.2732 17.6525 20.2732C17.7235 20.2732 17.7941 20.2384 17.8511 20.1751L18.5351 19.4168C18.5955 19.35 18.702 19.3067 18.8066 19.3067C18.8503 19.3067 18.892 19.3144 18.9271 19.3291L20.351 19.9252C20.3956 19.9439 20.436 19.9533 20.471 19.9533C20.5412 19.9533 20.5745 19.9163 20.5881 19.8942C20.6096 19.8593 20.6239 19.7955 20.5705 19.6895ZM1.93075 2.42299H18.2602L18.2603 9.68509L17.743 9.06273C17.6486 8.94913 17.4757 8.87283 17.3128 8.87283C17.2731 8.87283 17.2352 8.87738 17.1999 8.88633L16.3651 9.09882C16.2321 9.13264 15.9831 9.13264 15.85 9.09882L15.0153 8.88633C14.98 8.87738 14.9421 8.87283 14.9024 8.87283C14.7395 8.87283 14.5666 8.94913 14.4722 9.06273L13.9218 9.72498C13.8298 9.83579 13.6389 9.97449 13.5051 10.0279L12.7054 10.3471C12.5296 10.4173 12.3821 10.6202 12.3696 10.8091L12.3125 11.6679C12.303 11.8118 12.2301 12.0363 12.1533 12.1582L11.6947 12.8865C11.5939 13.0466 11.5939 13.2976 11.6947 13.4577L11.8842 13.7587H1.93075V2.42299ZM16.1076 15.9855C14.5538 15.9855 13.2942 14.7259 13.2942 13.1721C13.2942 11.6183 14.5538 10.3587 16.1076 10.3587C17.6614 10.3587 18.921 11.6183 18.921 13.1721C18.9211 14.7259 17.6614 15.9855 16.1076 15.9855Z" fill="#B0398D"/>
</g>
<defs>
<clipPath id="clip0_496_7354">
<rect width="20" height="20" fill="white" transform="translate(0.607422 0.686523)"/>
</clipPath>
</defs>
</svg>
