<svg width="41" height="40" viewBox="0 0 41 40" fill="none" xmlns="http://www.w3.org/2000/svg">
<g clip-path="url(#clip0_1656_21144)">
<path fill-rule="evenodd" clip-rule="evenodd" d="M22.3114 20.399C22.3114 21.4552 21.4552 22.3114 20.399 22.3114C19.3428 22.3114 18.4866 21.4552 18.4866 20.399C18.4866 19.3428 19.3428 18.4866 20.399 18.4866C21.4552 18.4866 22.3114 19.3428 22.3114 20.399ZM13.3868 18.4866C12.3306 18.4866 11.4744 19.3428 11.4744 20.399C11.4744 21.4552 12.3306 22.3114 13.3868 22.3114C14.443 22.3114 15.2992 21.4552 15.2992 20.399C15.2992 19.3428 14.443 18.4866 13.3868 18.4866ZM27.4112 18.4866C26.355 18.4866 25.4987 19.3428 25.4987 20.399C25.4987 21.4552 26.355 22.3114 27.4112 22.3114C28.4673 22.3114 29.3236 21.4552 29.3236 20.399C29.3236 19.3428 28.4673 18.4866 27.4112 18.4866ZM36.9732 20.399C36.9744 26.2196 33.9224 31.6142 28.9326 34.6111C23.9429 37.608 17.7468 37.7678 12.6091 35.0321L7.18268 36.8409C6.26634 37.1465 5.25599 36.9081 4.57296 36.225C3.88993 35.542 3.6515 34.5317 3.95709 33.6153L5.7659 28.1889C2.52733 22.1 3.39769 14.6419 7.9513 9.46238C12.5049 4.28283 19.79 2.46434 26.2436 4.89631C32.6972 7.32827 36.9704 13.5024 36.9732 20.399ZM34.4233 20.399C34.4216 14.5029 30.7323 9.23748 25.1911 7.22279C19.6499 5.20811 13.4403 6.87444 9.65214 11.3926C5.86401 15.9108 5.30642 22.3159 8.25681 27.4207C8.43957 27.737 8.47787 28.1165 8.36199 28.463L6.37469 34.4233L12.335 32.436C12.4648 32.3917 12.6011 32.3691 12.7382 32.3691C12.9621 32.3695 13.182 32.4288 13.3757 32.5412C17.715 35.0518 23.0645 35.0552 27.407 32.55C31.7495 30.0449 34.4245 25.4123 34.4233 20.399Z" fill="black"/>
</g>
<defs>
<clipPath id="clip0_1656_21144">
<rect width="40.798" height="40" fill="white"/>
</clipPath>
</defs>
</svg>
