<svg width="32" height="32" viewBox="0 0 32 32" fill="none" xmlns="http://www.w3.org/2000/svg">
<g clip-path="url(#clip0_906_1253)">
<path fill-rule="evenodd" clip-rule="evenodd" d="M26.4156 17.9965C26.7885 17.8737 27.0696 17.5361 27.1005 17.1202C27.1312 16.7059 26.9049 16.332 26.5566 16.1546L8.23954 5.60076C7.88428 5.39606 7.44005 5.42898 7.11883 5.68379C6.7976 5.93861 6.66448 6.3637 6.78297 6.75622L9.5181 15.8166L5.47689 24.3747C5.30181 24.7455 5.3708 25.1855 5.65094 25.4849C5.93108 25.7843 6.36559 25.8824 6.74716 25.7323L26.4156 17.9965ZM21.8045 15.7248L9.42658 8.59294L11.3455 14.9495L21.8045 15.7248ZM11.1975 16.944L21.6561 17.7193L8.36242 22.9479L11.1975 16.944Z" fill="black"/>
</g>
<defs>
<clipPath id="clip0_906_1253">
<rect width="32" height="32" fill="white"/>
</clipPath>
</defs>
</svg>
