<svg width="28" height="28" viewBox="0 0 28 28" fill="none" xmlns="http://www.w3.org/2000/svg">
<path d="M27.1166 1.45741H14.8832V0.883273C14.8832 0.395488 14.4877 0 13.9999 0C13.5121 0 13.1166 0.395488 13.1166 0.883273V1.45741H0.883179C0.395394 1.45741 0 1.8529 0 2.34069V5.25552C0 5.7433 0.395394 6.13879 0.883179 6.13879H1.45732V21.2871C1.45732 21.7749 1.85281 22.1703 2.34059 22.1703H12.2334L8.92107 26.5868C8.62843 26.977 8.70744 27.5307 9.09774 27.8233C9.25659 27.9426 9.44251 28 9.627 28C9.8955 28 10.1607 27.878 10.3343 27.6467L13.1166 23.9369V27.1167C13.1166 27.6045 13.5121 28 13.9999 28C14.4877 28 14.8832 27.6045 14.8832 27.1167V23.9369L17.6656 27.6467C17.8391 27.878 18.1042 28 18.3728 28C18.5573 28 18.7432 27.9425 18.9021 27.8233C19.2924 27.5307 19.3715 26.9769 19.0787 26.5868L15.7665 22.1703H25.6592C26.147 22.1703 26.5424 21.7749 26.5424 21.2871V6.13879H27.1166C27.6044 6.13879 27.9998 5.7433 27.9998 5.25552V2.34069C27.9998 1.8529 27.6044 1.45741 27.1166 1.45741ZM1.76645 4.37224V3.22396H26.2333V4.37224H1.76645ZM24.7759 20.4038H3.22387V6.13879H24.7759V20.4038H24.7759Z" fill="black"/>
<path d="M6.7114 13.4267H19.8281C20.3159 13.4267 20.7114 13.0312 20.7114 12.5434C20.7114 12.0556 20.3159 11.6602 19.8281 11.6602H6.7114C6.22361 11.6602 5.82812 12.0556 5.82812 12.5434C5.82812 13.0312 6.22361 13.4267 6.7114 13.4267Z" fill="black"/>
<path d="M6.7114 10.5126H9.62623C10.114 10.5126 10.5095 10.1172 10.5095 9.62937C10.5095 9.14158 10.114 8.74609 9.62623 8.74609H6.7114C6.22361 8.74609 5.82812 9.14158 5.82812 9.62937C5.82812 10.1172 6.22361 10.5126 6.7114 10.5126Z" fill="black"/>
<path d="M6.7114 16.3408H15.4559C15.9437 16.3408 16.3392 15.9453 16.3392 15.4575C16.3392 14.9697 15.9437 14.5742 15.4559 14.5742H6.7114C6.22361 14.5742 5.82812 14.9697 5.82812 15.4575C5.82812 15.9453 6.22361 16.3408 6.7114 16.3408Z" fill="black"/>
</svg>
