<svg width="25" height="25" viewBox="0 0 25 25" fill="none" xmlns="http://www.w3.org/2000/svg">
<g clip-path="url(#clip0_607_11274)">
<path fill-rule="evenodd" clip-rule="evenodd" d="M10.9068 9.47936e-08C12.8738 -0.000259157 14.8042 0.531259 16.4939 1.5383C18.1835 2.54535 19.5694 3.99045 20.505 5.72067C21.4406 7.45089 21.891 9.40186 21.8085 11.3671C21.7261 13.3323 21.1139 15.2387 20.0367 16.8845L24.7562 22.0292L21.5013 25.0054L16.9486 19.9888C15.5313 20.9319 13.9129 21.5302 12.2229 21.7358C10.533 21.9414 8.81833 21.7485 7.21624 21.1726C5.61416 20.5968 4.1691 19.6539 2.99672 18.4195C1.82433 17.1851 0.957153 15.6934 0.464585 14.0638C-0.0279822 12.4342 -0.132268 10.7119 0.160074 9.03471C0.452416 7.35757 1.13327 5.77213 2.14815 4.40528C3.16303 3.03842 4.48376 1.92809 6.00466 1.16314C7.52556 0.398186 9.20439 -0.000152112 10.9068 9.47936e-08ZM9.3567 12.9665V12.7081C9.34522 12.2296 9.39166 11.7515 9.49504 11.2841C9.78187 10.21 10.4349 10.0148 11.2038 9.41464C11.5293 9.16646 11.7938 8.85725 11.7938 8.43005C11.7938 7.65499 10.917 7.30509 10.2884 7.65906C10.1216 7.74734 9.98264 7.88029 9.88707 8.04303C9.79151 8.20578 9.74311 8.3919 9.74729 8.58059H6.98677C6.98677 7.18304 7.59705 6.09266 8.92951 5.56172C10.215 5.09965 11.6207 5.09605 12.9086 5.55155C14.1393 6.01129 14.8594 6.92062 14.8594 8.2551C14.8717 8.6511 14.7989 9.04513 14.6458 9.41057C14.1047 10.6006 13.2625 10.684 12.4468 11.4286C11.9402 11.8863 11.9138 12.3399 11.9138 12.9665H9.3567ZM10.6729 16.5916C10.4742 16.5947 10.277 16.5576 10.0931 16.4824C9.90919 16.4072 9.74242 16.2956 9.60285 16.1542C9.45906 16.0162 9.34556 15.8498 9.26956 15.6656C9.19356 15.4814 9.15673 15.2834 9.16141 15.0842C9.15862 14.8883 9.1966 14.6941 9.27295 14.5137C9.3493 14.3333 9.46234 14.1708 9.60489 14.0365C9.88673 13.7576 10.2672 13.6012 10.6637 13.6012C11.0602 13.6012 11.4407 13.7576 11.7226 14.0365C11.869 14.1702 11.9859 14.333 12.0657 14.5144C12.1456 14.6959 12.1867 14.892 12.1864 15.0903C12.1842 15.3592 12.1082 15.6224 11.9667 15.8511C11.829 16.0748 11.6391 16.2619 11.4134 16.3963C11.1909 16.5314 10.9352 16.6019 10.6749 16.5997L10.6729 16.5916ZM17.7583 4.05432C16.1708 2.47122 14.0836 1.48748 11.8521 1.27068C9.6207 1.05389 7.38312 1.61744 5.5206 2.86535C3.65807 4.11325 2.28581 5.96831 1.63759 8.11449C0.989371 10.2607 1.1053 12.5652 1.96561 14.6355C2.82593 16.7058 4.37743 18.4138 6.35578 19.4685C8.33414 20.5232 10.617 20.8593 12.8154 20.4197C15.0138 19.9801 16.9918 18.7918 18.4124 17.0574C19.833 15.323 20.6083 13.1497 20.6063 10.9078C20.6069 9.63408 20.3556 8.37281 19.8668 7.1966C19.378 6.02039 18.6614 4.95247 17.7583 4.05432Z" fill="black"/>
</g>
<defs>
<clipPath id="clip0_607_11274">
<rect width="24.7572" height="24.9972" fill="white"/>
</clipPath>
</defs>
</svg>
