<svg width="61" height="60" viewBox="0 0 61 60" fill="none" xmlns="http://www.w3.org/2000/svg">
<path d="M25.6411 20.6701C25.815 20.6463 25.9367 20.4861 25.913 20.3122C25.876 20.0408 25.8426 19.7646 25.8137 19.4914C25.7951 19.3169 25.6384 19.1904 25.4641 19.2088C25.2895 19.2273 25.163 19.3837 25.1815 19.5584C25.2111 19.8379 25.2454 20.1204 25.2832 20.3982C25.305 20.5575 25.4413 20.6731 25.5978 20.6731C25.612 20.673 25.6264 20.6721 25.6411 20.6701Z" fill="#B0398D"/>
<path d="M26.1262 21.614C26.0935 21.4416 25.9268 21.3284 25.7547 21.3611C25.5822 21.3938 25.4689 21.5602 25.5017 21.7327C25.8997 23.8277 26.5304 25.6714 27.3256 27.0643C27.3842 27.167 27.4914 27.2246 27.6019 27.2246C27.6553 27.2246 27.7095 27.2111 27.7592 27.1827C27.9116 27.0957 27.9646 26.9016 27.8776 26.7491C27.1168 25.4165 26.5113 23.6409 26.1262 21.614Z" fill="#B0398D"/>
<path d="M33.198 27.2505C33.0529 27.1516 32.8551 27.1892 32.7564 27.3342C32.0257 28.407 31.2242 28.9978 30.4995 28.9978C30.3239 28.9978 30.1816 29.1401 30.1816 29.3156C30.1816 29.4911 30.3239 29.6334 30.4995 29.6334C31.4546 29.6334 32.4167 28.9621 33.2819 27.6921C33.3806 27.5471 33.3431 27.3493 33.198 27.2505Z" fill="#B0398D"/>
<path d="M35.5355 19.2088C35.3608 19.1904 35.2045 19.3169 35.186 19.4914C34.9056 22.1383 34.2834 24.4786 33.3866 26.2593C33.3076 26.416 33.3707 26.6072 33.5275 26.6861C33.5734 26.7092 33.6221 26.7201 33.6702 26.7201C33.7865 26.7201 33.8985 26.6561 33.9544 26.5452C34.8852 24.6967 35.5297 22.2807 35.8182 19.5583C35.8367 19.3838 35.7102 19.2273 35.5355 19.2088Z" fill="#B0398D"/>
<path d="M35.602 18.3729C35.608 18.3732 35.6139 18.3734 35.6199 18.3734C35.7873 18.3734 35.9276 18.2425 35.9369 18.0732C35.9503 17.8321 35.9611 17.5866 35.9688 17.3436C35.9744 17.1681 35.8367 17.0213 35.6612 17.0157C35.4852 17.0112 35.3391 17.1479 35.3335 17.3233C35.3258 17.5613 35.3153 17.8018 35.3023 18.0378C35.2925 18.2132 35.4267 18.3632 35.602 18.3729Z" fill="#B0398D"/>
<path d="M41.2144 17.617H37.5173C37.3417 17.617 37.1994 17.7593 37.1994 17.9348V18.4846C37.1994 18.7253 37.0739 18.9401 36.8851 19.0665C36.9626 18.1702 37.0024 17.2508 37.0024 16.3178C37.0024 16.1423 36.8601 16 36.6845 16H24.3155C24.1399 16 23.9976 16.1423 23.9976 16.3178C23.9976 17.2508 24.0374 18.1702 24.1148 19.0665C23.9261 18.9401 23.8006 18.7254 23.8006 18.4846V17.9348C23.8006 17.7593 23.6583 17.617 23.4827 17.617H19.7856C19.61 17.617 19.4678 17.7593 19.4678 17.9348V18.4846C19.4678 20.9237 19.9262 22.8587 20.8692 24.3999C22.0866 26.3889 24.1166 27.7021 26.9029 28.3055C27.4976 29.1713 28.1531 29.8099 28.8476 30.2006C28.6144 30.3688 28.4617 30.642 28.4617 30.9509C28.4617 31.4144 28.8046 31.7983 29.2497 31.865C29.2091 32.1879 29.1721 32.5092 29.1362 32.8221C28.9062 34.8265 28.6883 36.7225 27.5782 38.0843H27.222C27.0465 38.0843 26.9042 38.2266 26.9042 38.4021V39.1014H25.7411C25.5655 39.1014 25.4233 39.2437 25.4233 39.4192V44.3472H24.6957C24.5202 44.3472 24.3779 44.4895 24.3779 44.665V45.6821C24.3779 45.8576 24.5202 45.9999 24.6957 45.9999H36.3043C36.4798 45.9999 36.6221 45.8576 36.6221 45.6821V44.665C36.6221 44.4895 36.4798 44.3472 36.3043 44.3472H35.5767V39.4192C35.5767 39.2437 35.4345 39.1014 35.2589 39.1014H34.0958V38.4021C34.0958 38.2266 33.9535 38.0843 33.7779 38.0843H33.4218C32.3117 36.7224 32.0938 34.8263 31.8638 32.8217C31.8279 32.5089 31.7909 32.1878 31.7503 31.865C32.1955 31.7983 32.5384 31.4144 32.5384 30.9509C32.5384 30.642 32.3857 30.3688 32.1524 30.2006C32.847 29.8099 33.5024 29.1713 34.0971 28.3055C36.8834 27.7021 38.9133 26.3888 40.1308 24.3999C41.0738 22.8586 41.5321 20.9237 41.5321 18.4846V17.9348C41.5322 17.7593 41.3899 17.617 41.2144 17.617ZM36.6668 20.914C37.6138 20.8486 38.4384 20.2348 38.7749 19.3521H39.7744C39.683 21.0517 39.3144 22.4092 38.6509 23.4941C37.9001 24.7208 36.7813 25.6019 35.2433 26.1743C35.8916 24.652 36.3731 22.8606 36.6668 20.914ZM25.7568 26.1744C24.2188 25.602 23.0999 24.7208 22.3493 23.4942C21.6857 22.4094 21.3171 21.0517 21.2257 19.3522H22.2252C22.5616 20.2348 23.3863 20.8487 24.3332 20.9141C24.6269 22.8606 25.1083 24.652 25.7568 26.1744ZM21.4114 24.0681C20.5313 22.6296 20.1035 20.8033 20.1035 18.4846V18.2527H23.1649V18.4846C23.1649 19.1059 23.6023 19.6372 24.185 19.7811C24.203 19.9432 24.2225 20.1042 24.2429 20.2645C23.5407 20.1626 22.951 19.652 22.7628 18.9518C22.7255 18.8129 22.5996 18.7164 22.4558 18.7164H20.894C20.8079 18.7164 20.7255 18.7513 20.6656 18.8131C20.6058 18.875 20.5735 18.9585 20.5763 19.0445C20.6398 21.0116 21.0424 22.5755 21.8071 23.8258C22.7293 25.3327 24.1428 26.3605 26.1223 26.9671C26.2206 27.1641 26.3211 27.3543 26.424 27.5364C24.1288 26.9208 22.4447 25.7562 21.4114 24.0681ZM35.9864 45.3643H25.0136V44.9829H35.9864V45.3643ZM34.941 44.3472H26.0589V39.7371H34.941V44.3472ZM27.5399 39.1014V38.72H33.4601V39.1014H27.5399ZM28.3688 38.0843C28.4551 37.9555 28.535 37.8236 28.6099 37.6891H32.3902C32.465 37.8237 32.545 37.9555 32.6312 38.0843H28.3688ZM32.0838 37.0534H28.9162C29.4327 35.8114 29.5971 34.3814 29.7677 32.8946C29.806 32.5614 29.8455 32.2188 29.8891 31.8763H31.1109C31.1545 32.2187 31.1942 32.5612 31.2323 32.8942C31.4029 34.3813 31.5672 35.8113 32.0838 37.0534ZM31.613 31.2407H29.3869C29.2272 31.2407 29.0972 31.1107 29.0972 30.951C29.0972 30.7912 29.2272 30.6613 29.3869 30.6613H31.613C31.7727 30.6613 31.9027 30.7912 31.9027 30.951C31.9027 31.1107 31.7727 31.2407 31.613 31.2407ZM30.5001 30.0182C28.9817 30.0182 27.5319 28.6274 26.4177 26.1019C25.3001 23.5686 24.6701 20.2176 24.6349 16.6357H36.3652C36.3299 20.2175 35.7 23.5686 34.5823 26.102C33.4682 28.6274 32.0184 30.0182 30.5001 30.0182ZM40.8965 18.4846C40.8965 20.8033 40.4687 22.6296 39.5887 24.068C38.5554 25.7562 36.8712 26.9207 34.576 27.5366C34.6789 27.3544 34.7794 27.1642 34.8777 26.9672C36.8572 26.3606 38.2708 25.3329 39.193 23.8259C39.9578 22.5757 40.3603 21.0116 40.4236 19.0446C40.4264 18.9585 40.3942 18.8751 40.3343 18.8133C40.2745 18.7514 40.1921 18.7165 40.106 18.7165H38.5442C38.4004 18.7165 38.2746 18.813 38.2372 18.9518C38.0491 19.652 37.4592 20.1626 36.7571 20.2646C36.7775 20.1043 36.7971 19.9433 36.815 19.7812C37.3977 19.6372 37.8351 19.1059 37.8351 18.4846V18.2527H40.8965V18.4846Z" fill="#B0398D"/>
<path d="M32.47 40.6133H28.5288C28.3532 40.6133 28.2109 40.7556 28.2109 40.9311V43.156C28.2109 43.3315 28.3532 43.4738 28.5288 43.4738H32.47C32.6456 43.4738 32.7878 43.3315 32.7878 43.156V40.9311C32.7878 40.7556 32.6455 40.6133 32.47 40.6133ZM32.1521 42.8382H28.8466V41.249H32.1521V42.8382Z" fill="#B0398D"/>
<path d="M27.4803 40.0547H26.5903C26.4147 40.0547 26.2725 40.197 26.2725 40.3725C26.2725 40.548 26.4147 40.6904 26.5903 40.6904H27.4803C27.6558 40.6904 27.7981 40.548 27.7981 40.3725C27.7981 40.197 27.6558 40.0547 27.4803 40.0547Z" fill="#B0398D"/>
<path d="M33.0107 42.1538C33.0107 42.3293 33.153 42.4716 33.3286 42.4716H34.2185C34.3941 42.4716 34.5364 42.3293 34.5364 42.1538C34.5364 41.9783 34.3941 41.8359 34.2185 41.8359H33.3286C33.1531 41.8359 33.0107 41.9782 33.0107 42.1538Z" fill="#B0398D"/>
<path d="M27.0353 43.2305H26.5903C26.4147 43.2305 26.2725 43.3728 26.2725 43.5483C26.2725 43.7238 26.4147 43.8661 26.5903 43.8661H27.0353C27.2109 43.8661 27.3531 43.7238 27.3531 43.5483C27.3531 43.3728 27.2109 43.2305 27.0353 43.2305Z" fill="#B0398D"/>
<path d="M60.5 30C60.5 46.5685 47.0685 60 30.5 60C13.9315 60 0.5 46.5685 0.5 30C0.5 13.4315 13.9315 0 30.5 0C47.0685 0 60.5 13.4315 60.5 30ZM9.54295 30C9.54295 41.5743 18.9257 50.957 30.5 50.957C42.0743 50.957 51.457 41.5743 51.457 30C51.457 18.4257 42.0743 9.04295 30.5 9.04295C18.9257 9.04295 9.54295 18.4257 9.54295 30Z" fill="#DDAACE"/>
<path d="M48.516 48.016C50.2818 49.7818 53.1773 49.7985 54.6579 47.7876C57.2564 44.2584 59.0614 40.187 59.9236 35.8527C61.0811 30.0333 60.487 24.0013 58.2164 18.5195C55.9458 13.0377 52.1006 8.35236 47.1671 5.05591C43.4927 2.60073 39.3374 0.998144 35.0045 0.340077C32.5356 -0.0348751 30.5 2.02433 30.5 4.52148C30.5 7.01862 32.5473 8.99422 34.9866 9.52883C37.5285 10.0859 39.9575 11.1145 42.1431 12.5749C45.5895 14.8776 48.2756 18.1507 49.8618 21.9801C51.448 25.8095 51.863 30.0232 51.0544 34.0885C50.5416 36.6666 49.5512 39.1115 48.1478 41.3028C46.801 43.4057 46.7503 46.2503 48.516 48.016Z" fill="#B0398D"/>
</svg>
