<svg width="101" height="199" viewBox="0 0 101 199" fill="none" xmlns="http://www.w3.org/2000/svg">
<path d="M100.998 61.9656C100.998 59.7404 99.1147 57.8574 96.8894 57.8574C94.6642 57.8574 92.7812 59.7404 92.7812 61.9656C92.7812 64.1909 94.6642 66.0738 96.8894 66.0738C99.1147 66.0738 100.998 64.1909 100.998 61.9656Z" fill="#9D9D9D"/>
<path d="M100.998 42.9656C100.998 40.7403 99.1147 38.8574 96.8894 38.8574C94.6642 38.8574 92.7812 40.7403 92.7812 42.9656C92.7812 45.1909 94.6642 47.0738 96.8894 47.0738C99.1147 47.2449 100.998 45.362 100.998 42.9656Z" fill="#9D9D9D"/>
<path d="M100.998 24.1365C100.998 21.9112 99.1147 20.0283 96.8894 20.0283C94.6642 20.0283 92.7812 21.9112 92.7812 24.1365C92.7812 26.3618 94.6642 28.2447 96.8894 28.2447C99.1147 28.2447 100.998 26.3618 100.998 24.1365Z" fill="#9D9D9D"/>
<path d="M81.3101 61.9656C81.3101 59.7404 79.4272 57.8574 77.2019 57.8574C74.9767 57.8574 73.0938 59.7404 73.0938 61.9656C73.0938 64.1909 74.9767 66.0738 77.2019 66.0738C79.4272 66.0738 81.3101 64.1909 81.3101 61.9656Z" fill="#9D9D9D"/>
<path d="M81.3101 42.9656C81.3101 40.7403 79.4272 38.8574 77.2019 38.8574C74.9767 38.8574 73.0938 40.7403 73.0938 42.9656C73.0938 45.1909 74.9767 47.0738 77.2019 47.0738C79.4272 47.0738 81.3101 45.362 81.3101 42.9656Z" fill="#9D9D9D"/>
<path d="M81.3101 24.1365C81.3101 21.9112 79.4272 20.0283 77.2019 20.0283C74.9767 20.0283 73.0938 21.9112 73.0938 24.1365C73.0938 26.3618 74.9767 28.2447 77.2019 28.2447C79.4272 28.2447 81.3101 26.3618 81.3101 24.1365Z" fill="#9D9D9D"/>
<path d="M57.5183 66.0738C59.7872 66.0738 61.6266 64.2345 61.6266 61.9656C61.6266 59.6968 59.7872 57.8574 57.5183 57.8574C55.2494 57.8574 53.4102 59.6968 53.4102 61.9656C53.4102 64.2345 55.2494 66.0738 57.5183 66.0738Z" fill="#9D9D9D"/>
<path d="M57.5183 47.0738C59.7872 47.0738 61.6266 45.2345 61.6266 42.9656C61.6266 40.6967 59.7872 38.8574 57.5183 38.8574C55.2494 38.8574 53.4102 40.6967 53.4102 42.9656C53.4102 45.2345 55.2494 47.0738 57.5183 47.0738Z" fill="#9D9D9D"/>
<path d="M57.5183 28.2447C59.7872 28.2447 61.6266 26.4054 61.6266 24.1365C61.6266 21.8676 59.7872 20.0283 57.5183 20.0283C55.2494 20.0283 53.4102 21.8676 53.4102 24.1365C53.4102 26.4054 55.2494 28.2447 57.5183 28.2447Z" fill="#9D9D9D"/>
<path d="M42.1148 61.9656C42.1148 59.7404 40.2319 57.8574 38.0066 57.8574C35.7813 57.8574 33.8984 59.7404 33.8984 61.9656C33.8984 64.1909 35.7813 66.0738 38.0066 66.0738C40.2319 66.0738 42.1148 64.1909 42.1148 61.9656Z" fill="#9D9D9D"/>
<path d="M42.1148 42.9656C42.1148 40.7403 40.2319 38.8574 38.0066 38.8574C35.7813 38.8574 33.8984 40.7403 33.8984 42.9656C33.8984 45.1909 35.7813 47.0738 38.0066 47.0738C40.2319 47.0738 42.1148 45.362 42.1148 42.9656Z" fill="#9D9D9D"/>
<path d="M42.1148 24.1365C42.1148 21.9112 40.2319 20.0283 38.0066 20.0283C35.7813 20.0283 33.8984 21.9112 33.8984 24.1365C33.8984 26.3618 35.7813 28.2447 38.0066 28.2447C40.2319 28.2447 42.1148 26.3618 42.1148 24.1365Z" fill="#9D9D9D"/>
<path d="M22.4273 61.9666C22.4273 59.7414 20.5444 57.8584 18.3191 57.8584C16.0938 57.8584 14.2109 59.7414 14.2109 61.9666C14.2109 64.1919 16.0938 66.0748 18.3191 66.0748C20.5444 66.0748 22.4273 64.1919 22.4273 61.9666Z" fill="#9D9D9D"/>
<path d="M22.4273 42.9656C22.4273 40.7403 20.5444 38.8574 18.3191 38.8574C16.0938 38.8574 14.2109 40.7403 14.2109 42.9656C14.2109 45.1909 16.0938 47.0738 18.3191 47.0738C20.5444 47.2449 22.4273 45.362 22.4273 42.9656Z" fill="#9D9D9D"/>
<path d="M22.4273 24.1365C22.4273 21.9112 20.5444 20.0283 18.3191 20.0283C16.0938 20.0283 14.2109 21.9112 14.2109 24.1365C14.2109 26.3618 16.0938 28.2447 18.3191 28.2447C20.5444 28.2447 22.4273 26.3618 22.4273 24.1365Z" fill="#9D9D9D"/>
<path d="M92.6094 194.455C92.6094 196.68 94.4923 198.563 96.7176 198.563C98.9429 198.563 100.826 196.68 100.826 194.455C100.826 192.23 98.9429 190.347 96.7176 190.347C94.4923 190.347 92.6094 192.058 92.6094 194.455Z" fill="#9D9D9D"/>
<path d="M100.998 175.454C100.998 173.229 99.1147 171.346 96.8894 171.346C94.6642 171.346 92.7812 173.229 92.7812 175.454C92.7812 177.679 94.6642 179.562 96.8894 179.562C99.1147 179.562 100.998 177.85 100.998 175.454Z" fill="#9D9D9D"/>
<path d="M100.998 156.626C100.998 154.4 99.1147 152.518 96.8894 152.518C94.6642 152.518 92.7812 154.4 92.7812 156.626C92.7812 158.851 94.6642 160.734 96.8894 160.734C99.1147 160.734 100.998 158.851 100.998 156.626Z" fill="#9D9D9D"/>
<path d="M100.998 137.625C100.998 135.4 99.1147 133.517 96.8894 133.517C94.6642 133.517 92.7812 135.4 92.7812 137.625C92.7812 139.85 94.6642 141.733 96.8894 141.733C99.1147 141.733 100.998 140.021 100.998 137.625Z" fill="#9D9D9D"/>
<path d="M100.998 118.796C100.998 116.57 99.1147 114.688 96.8894 114.688C94.6642 114.688 92.7812 116.57 92.7812 118.796C92.7812 121.021 94.6642 122.904 96.8894 122.904C99.1147 122.904 100.998 121.021 100.998 118.796Z" fill="#9D9D9D"/>
<path d="M100.998 99.7957C100.998 97.5704 99.1147 95.6875 96.8894 95.6875C94.6642 95.6875 92.7812 97.5704 92.7812 99.7957C92.7812 102.021 94.6642 103.904 96.8894 103.904C99.1147 103.904 100.998 102.021 100.998 99.7957Z" fill="#9D9D9D"/>
<path d="M100.998 80.7957C100.998 78.5705 99.1147 76.6875 96.8894 76.6875C94.6642 76.6875 92.7812 78.5705 92.7812 80.7957C92.7812 83.021 94.6642 84.9039 96.8894 84.9039C99.1147 85.0751 100.998 83.1922 100.998 80.7957Z" fill="#9D9D9D"/>
<path d="M81.3101 194.455C81.3101 192.23 79.4272 190.347 77.2019 190.347C74.9767 190.347 73.0938 192.23 73.0938 194.455C73.0938 196.68 74.9767 198.563 77.2019 198.563C79.4272 198.563 81.3101 196.68 81.3101 194.455Z" fill="#9D9D9D"/>
<path d="M81.3101 175.454C81.3101 173.229 79.4272 171.346 77.2019 171.346C74.9767 171.346 73.0938 173.229 73.0938 175.454C73.0938 177.679 74.9767 179.562 77.2019 179.562C79.4272 179.562 81.3101 177.85 81.3101 175.454Z" fill="#9D9D9D"/>
<path d="M81.3101 156.626C81.3101 154.4 79.4272 152.518 77.2019 152.518C74.9767 152.518 73.0938 154.4 73.0938 156.626C73.0938 158.851 74.9767 160.734 77.2019 160.734C79.4272 160.734 81.3101 158.851 81.3101 156.626Z" fill="#9D9D9D"/>
<path d="M81.3101 137.625C81.3101 135.4 79.4272 133.517 77.2019 133.517C74.9767 133.517 73.0938 135.4 73.0938 137.625C73.0938 139.85 74.9767 141.733 77.2019 141.733C79.4272 141.733 81.3101 140.021 81.3101 137.625Z" fill="#9D9D9D"/>
<path d="M81.3101 118.796C81.3101 116.57 79.4272 114.688 77.2019 114.688C74.9767 114.688 73.0938 116.57 73.0938 118.796C73.0938 121.021 74.9767 122.904 77.2019 122.904C79.4272 122.904 81.3101 121.021 81.3101 118.796Z" fill="#9D9D9D"/>
<path d="M81.3101 99.7957C81.3101 97.5704 79.4272 95.6875 77.2019 95.6875C74.9767 95.6875 73.0938 97.5704 73.0938 99.7957C73.0938 102.021 74.9767 103.904 77.2019 103.904C79.4272 103.904 81.3101 102.021 81.3101 99.7957Z" fill="#9D9D9D"/>
<path d="M81.3101 80.7957C81.3101 78.5705 79.4272 76.6875 77.2019 76.6875C74.9767 76.6875 73.0938 78.5705 73.0938 80.7957C73.0938 83.021 74.9767 84.9039 77.2019 84.9039C79.4272 84.9039 81.3101 83.1922 81.3101 80.7957Z" fill="#9D9D9D"/>
<path d="M61.6266 194.455C61.6266 192.23 59.7436 190.347 57.5183 190.347C55.2931 190.347 53.4102 192.23 53.4102 194.455C53.4102 196.68 55.2931 198.563 57.5183 198.563C59.7436 198.563 61.6266 196.68 61.6266 194.455Z" fill="#9D9D9D"/>
<path d="M61.6266 175.454C61.6266 173.229 59.7436 171.346 57.5183 171.346C55.2931 171.346 53.4102 173.229 53.4102 175.454C53.4102 177.679 55.2931 179.562 57.5183 179.562C59.7436 179.562 61.6266 177.85 61.6266 175.454Z" fill="#9D9D9D"/>
<path d="M61.6266 156.626C61.6266 154.4 59.7436 152.518 57.5183 152.518C55.2931 152.518 53.4102 154.4 53.4102 156.626C53.4102 158.851 55.2931 160.734 57.5183 160.734C59.7436 160.734 61.6266 158.851 61.6266 156.626Z" fill="#9D9D9D"/>
<path d="M61.6266 137.625C61.6266 135.4 59.7436 133.517 57.5183 133.517C55.2931 133.517 53.4102 135.4 53.4102 137.625C53.4102 139.85 55.2931 141.733 57.5183 141.733C59.7436 141.733 61.6266 140.021 61.6266 137.625Z" fill="#9D9D9D"/>
<path d="M57.5183 122.904C59.7872 122.904 61.6266 121.065 61.6266 118.796C61.6266 116.527 59.7872 114.688 57.5183 114.688C55.2494 114.688 53.4102 116.527 53.4102 118.796C53.4102 121.065 55.2494 122.904 57.5183 122.904Z" fill="#9D9D9D"/>
<path d="M61.6266 99.7957C61.6266 97.5704 59.7436 95.6875 57.5183 95.6875C55.2931 95.6875 53.4102 97.5704 53.4102 99.7957C53.4102 102.021 55.2931 103.904 57.5183 103.904C59.7436 103.904 61.6266 102.021 61.6266 99.7957Z" fill="#9D9D9D"/>
<path d="M61.6266 80.7957C61.6266 78.5705 59.7436 76.6875 57.5183 76.6875C55.2931 76.6875 53.4102 78.5705 53.4102 80.7957C53.4102 83.021 55.2931 84.9039 57.5183 84.9039C59.7436 85.0751 61.6266 83.1922 61.6266 80.7957Z" fill="#9D9D9D"/>
<path d="M42.1148 194.455C42.1148 192.23 40.2319 190.347 38.0066 190.347C35.7813 190.347 33.8984 192.23 33.8984 194.455C33.8984 196.68 35.7813 198.563 38.0066 198.563C40.2319 198.563 42.1148 196.68 42.1148 194.455Z" fill="#9D9D9D"/>
<path d="M42.1148 175.454C42.1148 173.229 40.2319 171.346 38.0066 171.346C35.7813 171.346 33.8984 173.229 33.8984 175.454C33.8984 177.679 35.7813 179.562 38.0066 179.562C40.2319 179.562 42.1148 177.85 42.1148 175.454Z" fill="#9D9D9D"/>
<path d="M42.1148 156.626C42.1148 154.4 40.2319 152.518 38.0066 152.518C35.7813 152.518 33.8984 154.4 33.8984 156.626C33.8984 158.851 35.7813 160.734 38.0066 160.734C40.2319 160.734 42.1148 158.851 42.1148 156.626Z" fill="#9D9D9D"/>
<path d="M42.1148 137.625C42.1148 135.4 40.2319 133.517 38.0066 133.517C35.7813 133.517 33.8984 135.4 33.8984 137.625C33.8984 139.85 35.7813 141.733 38.0066 141.733C40.2319 141.733 42.1148 140.021 42.1148 137.625Z" fill="#9D9D9D"/>
<path d="M42.1148 118.796C42.1148 116.57 40.2319 114.688 38.0066 114.688C35.7813 114.688 33.8984 116.57 33.8984 118.796C33.8984 121.021 35.7813 122.904 38.0066 122.904C40.2319 122.904 42.1148 121.021 42.1148 118.796Z" fill="#9D9D9D"/>
<path d="M42.1148 99.7957C42.1148 97.5704 40.2319 95.6875 38.0066 95.6875C35.7813 95.6875 33.8984 97.5704 33.8984 99.7957C33.8984 102.021 35.7813 103.904 38.0066 103.904C40.2319 103.904 42.1148 102.021 42.1148 99.7957Z" fill="#9D9D9D"/>
<path d="M42.1148 80.7957C42.1148 78.5705 40.2319 76.6875 38.0066 76.6875C35.7813 76.6875 33.8984 78.5705 33.8984 80.7957C33.8984 83.021 35.7813 84.9039 38.0066 84.9039C40.2319 84.9039 42.1148 83.1922 42.1148 80.7957Z" fill="#9D9D9D"/>
<path d="M22.4273 194.455C22.4273 192.23 20.5444 190.347 18.3191 190.347C16.0938 190.347 14.2109 192.23 14.2109 194.455C14.2109 196.68 16.0938 198.563 18.3191 198.563C20.5444 198.563 22.4273 196.68 22.4273 194.455Z" fill="#9D9D9D"/>
<path d="M22.4273 175.455C22.4273 173.23 20.5444 171.347 18.3191 171.347C16.0938 171.347 14.2109 173.23 14.2109 175.455C14.2109 177.68 16.0938 179.563 18.3191 179.563C20.5444 179.563 22.4273 177.851 22.4273 175.455Z" fill="#9D9D9D"/>
<path d="M22.4273 156.625C22.4273 154.4 20.5444 152.517 18.3191 152.517C16.0938 152.517 14.2109 154.4 14.2109 156.625C14.2109 158.85 16.0938 160.733 18.3191 160.733C20.5444 160.733 22.4273 158.85 22.4273 156.625Z" fill="#9D9D9D"/>
<path d="M22.4273 137.625C22.4273 135.4 20.5444 133.517 18.3191 133.517C16.0938 133.517 14.2109 135.4 14.2109 137.625C14.2109 139.85 16.0938 141.733 18.3191 141.733C20.5444 141.733 22.4273 140.021 22.4273 137.625Z" fill="#9D9D9D"/>
<path d="M22.4273 118.796C22.4273 116.57 20.5444 114.688 18.3191 114.688C16.0938 114.688 14.2109 116.57 14.2109 118.796C14.2109 121.021 16.0938 122.904 18.3191 122.904C20.5444 122.904 22.4273 121.021 22.4273 118.796Z" fill="#9D9D9D"/>
<path d="M22.4273 99.7957C22.4273 97.5704 20.5444 95.6875 18.3191 95.6875C16.0938 95.6875 14.2109 97.5704 14.2109 99.7957C14.2109 102.021 16.0938 103.904 18.3191 103.904C20.5444 103.904 22.4273 102.021 22.4273 99.7957Z" fill="#9D9D9D"/>
<path d="M22.4273 80.7957C22.4273 78.5705 20.5444 76.6875 18.3191 76.6875C16.0938 76.6875 14.2109 78.5705 14.2109 80.7957C14.2109 83.021 16.0938 84.9039 18.3191 84.9039C20.5444 85.0751 22.4273 83.1922 22.4273 80.7957Z" fill="#9D9D9D"/>
<path d="M86.6148 41.9382C86.6148 39.713 84.7319 37.8301 82.5066 37.8301C80.2813 37.8301 78.3984 39.713 78.3984 41.9382C78.3984 44.1635 80.2813 46.0464 82.5066 46.0464C84.7319 46.0464 86.6148 44.1635 86.6148 41.9382Z" fill="#4747B9" fill-opacity="0.2"/>
<path d="M86.6148 22.9382C86.6148 20.713 84.7319 18.8301 82.5066 18.8301C80.2813 18.8301 78.3984 20.713 78.3984 22.9382C78.3984 25.1635 80.2813 27.0464 82.5066 27.0464C84.7319 27.0464 86.6148 25.3347 86.6148 22.9382Z" fill="#4747B9" fill-opacity="0.2"/>
<path d="M86.6148 4.10817C86.6148 1.88291 84.7319 0 82.5066 0C80.2813 0 78.3984 1.88291 78.3984 4.10817C78.3984 6.33344 80.2813 8.21634 82.5066 8.21634C84.7319 8.21634 86.6148 6.33344 86.6148 4.10817Z" fill="#4747B9" fill-opacity="0.2"/>
<path d="M66.9273 41.9382C66.9273 39.713 65.0444 37.8301 62.8191 37.8301C60.5938 37.8301 58.7109 39.713 58.7109 41.9382C58.7109 44.1635 60.5938 46.0464 62.8191 46.0464C65.0444 46.0464 66.9273 44.1635 66.9273 41.9382Z" fill="#4747B9" fill-opacity="0.2"/>
<path d="M66.9273 22.9382C66.9273 20.713 65.0444 18.8301 62.8191 18.8301C60.5938 18.8301 58.7109 20.713 58.7109 22.9382C58.7109 25.1635 60.5938 27.0464 62.8191 27.0464C65.0444 27.0464 66.9273 25.3347 66.9273 22.9382Z" fill="#4747B9" fill-opacity="0.2"/>
<path d="M66.9273 4.10817C66.9273 1.88291 65.0444 0 62.8191 0C60.5938 0 58.7109 1.88291 58.7109 4.10817C58.7109 6.33344 60.5938 8.21634 62.8191 8.21634C65.0444 8.21634 66.9273 6.33344 66.9273 4.10817Z" fill="#4747B9" fill-opacity="0.2"/>
<path d="M47.4156 41.9382C47.4156 39.713 45.5327 37.8301 43.3074 37.8301C41.0821 37.8301 39.1992 39.713 39.1992 41.9382C39.1992 44.1635 41.0821 46.0464 43.3074 46.0464C45.5327 46.0464 47.4156 44.1635 47.4156 41.9382Z" fill="#4747B9" fill-opacity="0.2"/>
<path d="M47.4156 22.9382C47.4156 20.713 45.5327 18.8301 43.3074 18.8301C41.0821 18.8301 39.1992 20.713 39.1992 22.9382C39.1992 25.1635 41.0821 27.0464 43.3074 27.0464C45.5327 27.0464 47.4156 25.3347 47.4156 22.9382Z" fill="#4747B9" fill-opacity="0.2"/>
<path d="M47.4156 4.10817C47.4156 1.88291 45.5327 0 43.3074 0C41.0821 0 39.1992 1.88291 39.1992 4.10817C39.1992 6.33344 41.0821 8.21634 43.3074 8.21634C45.5327 8.21634 47.4156 6.33344 47.4156 4.10817Z" fill="#4747B9" fill-opacity="0.2"/>
<path d="M27.732 41.9382C27.732 39.713 25.8491 37.8301 23.6238 37.8301C21.3985 37.8301 19.5156 39.713 19.5156 41.9382C19.5156 44.1635 21.3985 46.0464 23.6238 46.0464C25.8491 46.0464 27.732 44.1635 27.732 41.9382Z" fill="#4747B9" fill-opacity="0.2"/>
<path d="M27.732 22.9382C27.732 20.713 25.8491 18.8301 23.6238 18.8301C21.3985 18.8301 19.5156 20.713 19.5156 22.9382C19.5156 25.1635 21.3985 27.0464 23.6238 27.0464C25.8491 27.0464 27.732 25.3347 27.732 22.9382Z" fill="#4747B9" fill-opacity="0.2"/>
<path d="M27.732 4.10817C27.732 1.88291 25.8491 0 23.6238 0C21.3985 0 19.5156 1.88291 19.5156 4.10817C19.5156 6.33344 21.3985 8.21634 23.6238 8.21634C25.8491 8.21634 27.732 6.33344 27.732 4.10817Z" fill="#4747B9" fill-opacity="0.2"/>
<path d="M8.21634 41.9382C8.21634 39.713 6.33344 37.8301 4.10817 37.8301C1.88291 37.8301 0 39.713 0 41.9382C0 44.1635 1.88291 46.0464 4.10817 46.0464C6.33344 46.0464 8.21634 44.1635 8.21634 41.9382Z" fill="#4747B9" fill-opacity="0.2"/>
<path d="M8.21634 22.9373C8.21634 20.712 6.33344 18.8291 4.10817 18.8291C1.88291 18.8291 0 20.712 0 22.9373C0 25.1625 1.88291 27.0454 4.10817 27.0454C6.33344 27.0454 8.21634 25.3337 8.21634 22.9373Z" fill="#4747B9" fill-opacity="0.2"/>
<path d="M8.21634 4.10817C8.21634 1.88291 6.33344 0 4.10817 0C1.88291 0 0 1.88291 0 4.10817C0 6.33344 1.88291 8.21634 4.10817 8.21634C6.33344 8.21634 8.21634 6.33344 8.21634 4.10817Z" fill="#4747B9" fill-opacity="0.2"/>
<path d="M78.2266 174.427C78.2266 176.652 80.1095 178.535 82.3347 178.535C84.56 178.535 86.443 176.652 86.443 174.427C86.443 172.201 84.56 170.318 82.3347 170.318C80.1095 170.318 78.2266 172.03 78.2266 174.427Z" fill="#4747B9" fill-opacity="0.2"/>
<path d="M82.5066 159.535C84.7755 159.535 86.6148 157.695 86.6148 155.427C86.6148 153.158 84.7755 151.318 82.5066 151.318C80.2377 151.318 78.3984 153.158 78.3984 155.427C78.3984 157.695 80.2377 159.535 82.5066 159.535Z" fill="#4747B9" fill-opacity="0.2"/>
<path d="M86.6148 136.596C86.6148 134.371 84.7319 132.488 82.5066 132.488C80.2813 132.488 78.3984 134.371 78.3984 136.596C78.3984 138.822 80.2813 140.705 82.5066 140.705C84.7319 140.705 86.6148 138.822 86.6148 136.596Z" fill="#4747B9" fill-opacity="0.2"/>
<path d="M82.5066 121.705C84.7755 121.705 86.6148 119.865 86.6148 117.597C86.6148 115.328 84.7755 113.488 82.5066 113.488C80.2377 113.488 78.3984 115.328 78.3984 117.597C78.3984 119.865 80.2377 121.705 82.5066 121.705Z" fill="#4747B9" fill-opacity="0.2"/>
<path d="M82.5066 102.705C84.7755 102.705 86.6148 100.865 86.6148 98.5965C86.6148 96.3276 84.7755 94.4883 82.5066 94.4883C80.2377 94.4883 78.3984 96.3276 78.3984 98.5965C78.3984 100.865 80.2377 102.705 82.5066 102.705Z" fill="#4747B9" fill-opacity="0.2"/>
<path d="M86.6148 79.7683C86.6148 77.5431 84.7319 75.6602 82.5066 75.6602C80.2813 75.6602 78.3984 77.5431 78.3984 79.7683C78.3984 81.9936 80.2813 83.8765 82.5066 83.8765C84.7319 83.8765 86.6148 81.9936 86.6148 79.7683Z" fill="#4747B9" fill-opacity="0.2"/>
<path d="M82.5066 64.8755C84.7755 64.8755 86.6148 63.0362 86.6148 60.7674C86.6148 58.4985 84.7755 56.6592 82.5066 56.6592C80.2377 56.6592 78.3984 58.4985 78.3984 60.7674C78.3984 63.0362 80.2377 64.8755 82.5066 64.8755Z" fill="#4747B9" fill-opacity="0.2"/>
<path d="M66.9273 174.427C66.9273 172.201 65.0444 170.318 62.8191 170.318C60.5938 170.318 58.7109 172.201 58.7109 174.427C58.7109 176.652 60.5938 178.535 62.8191 178.535C65.0444 178.535 66.9273 176.652 66.9273 174.427Z" fill="#4747B9" fill-opacity="0.2"/>
<path d="M62.8191 159.535C65.088 159.535 66.9273 157.695 66.9273 155.427C66.9273 153.158 65.088 151.318 62.8191 151.318C60.5502 151.318 58.7109 153.158 58.7109 155.427C58.7109 157.695 60.5502 159.535 62.8191 159.535Z" fill="#4747B9" fill-opacity="0.2"/>
<path d="M66.9273 136.596C66.9273 134.371 65.0444 132.488 62.8191 132.488C60.5938 132.488 58.7109 134.371 58.7109 136.596C58.7109 138.822 60.5938 140.705 62.8191 140.705C65.0444 140.705 66.9273 138.822 66.9273 136.596Z" fill="#4747B9" fill-opacity="0.2"/>
<path d="M62.8191 121.705C65.088 121.705 66.9273 119.865 66.9273 117.597C66.9273 115.328 65.088 113.488 62.8191 113.488C60.5502 113.488 58.7109 115.328 58.7109 117.597C58.7109 119.865 60.5502 121.705 62.8191 121.705Z" fill="#4747B9" fill-opacity="0.2"/>
<path d="M62.8191 102.705C65.088 102.705 66.9273 100.865 66.9273 98.5965C66.9273 96.3276 65.088 94.4883 62.8191 94.4883C60.5502 94.4883 58.7109 96.3276 58.7109 98.5965C58.7109 100.865 60.5502 102.705 62.8191 102.705Z" fill="#4747B9" fill-opacity="0.2"/>
<path d="M66.9273 79.7683C66.9273 77.5431 65.0444 75.6602 62.8191 75.6602C60.5938 75.6602 58.7109 77.5431 58.7109 79.7683C58.7109 81.9936 60.5938 83.8765 62.8191 83.8765C65.0444 83.8765 66.9273 81.9936 66.9273 79.7683Z" fill="#4747B9" fill-opacity="0.2"/>
<path d="M62.8191 64.8755C65.088 64.8755 66.9273 63.0362 66.9273 60.7674C66.9273 58.4985 65.088 56.6592 62.8191 56.6592C60.5502 56.6592 58.7109 58.4985 58.7109 60.7674C58.7109 63.0362 60.5502 64.8755 62.8191 64.8755Z" fill="#4747B9" fill-opacity="0.2"/>
<path d="M47.4156 174.427C47.4156 172.201 45.5327 170.318 43.3074 170.318C41.0821 170.318 39.1992 172.201 39.1992 174.427C39.1992 176.652 41.0821 178.535 43.3074 178.535C45.5327 178.535 47.4156 176.652 47.4156 174.427Z" fill="#4747B9" fill-opacity="0.2"/>
<path d="M47.4156 155.427C47.4156 153.201 45.5327 151.318 43.3074 151.318C41.0821 151.318 39.1992 153.201 39.1992 155.427C39.1992 157.652 41.0821 159.535 43.3074 159.535C45.5327 159.535 47.4156 157.823 47.4156 155.427Z" fill="#4747B9" fill-opacity="0.2"/>
<path d="M47.4156 136.596C47.4156 134.371 45.5327 132.488 43.3074 132.488C41.0821 132.488 39.1992 134.371 39.1992 136.596C39.1992 138.822 41.0821 140.705 43.3074 140.705C45.5327 140.705 47.4156 138.822 47.4156 136.596Z" fill="#4747B9" fill-opacity="0.2"/>
<path d="M47.4156 117.597C47.4156 115.371 45.5327 113.488 43.3074 113.488C41.0821 113.488 39.1992 115.371 39.1992 117.597C39.1992 119.822 41.0821 121.705 43.3074 121.705C45.5327 121.705 47.4156 119.822 47.4156 117.597Z" fill="#4747B9" fill-opacity="0.2"/>
<path d="M47.4156 98.5965C47.4156 96.3712 45.5327 94.4883 43.3074 94.4883C41.0821 94.4883 39.1992 96.3712 39.1992 98.5965C39.1992 100.822 41.0821 102.705 43.3074 102.705C45.5327 102.876 47.4156 100.993 47.4156 98.5965Z" fill="#4747B9" fill-opacity="0.2"/>
<path d="M47.4156 79.7683C47.4156 77.5431 45.5327 75.6602 43.3074 75.6602C41.0821 75.6602 39.1992 77.5431 39.1992 79.7683C39.1992 81.9936 41.0821 83.8765 43.3074 83.8765C45.5327 83.8765 47.4156 81.9936 47.4156 79.7683Z" fill="#4747B9" fill-opacity="0.2"/>
<path d="M47.4156 60.7674C47.4156 58.5421 45.5327 56.6592 43.3074 56.6592C41.0821 56.6592 39.1992 58.5421 39.1992 60.7674C39.1992 62.9926 41.0821 64.8755 43.3074 64.8755C45.5327 65.0467 47.4156 63.1638 47.4156 60.7674Z" fill="#4747B9" fill-opacity="0.2"/>
<path d="M27.732 174.427C27.732 172.201 25.8491 170.318 23.6238 170.318C21.3985 170.318 19.5156 172.201 19.5156 174.427C19.5156 176.652 21.3985 178.535 23.6238 178.535C25.8491 178.535 27.732 176.652 27.732 174.427Z" fill="#4747B9" fill-opacity="0.2"/>
<path d="M27.732 155.427C27.732 153.201 25.8491 151.318 23.6238 151.318C21.3985 151.318 19.5156 153.201 19.5156 155.427C19.5156 157.652 21.3985 159.535 23.6238 159.535C25.8491 159.535 27.732 157.823 27.732 155.427Z" fill="#4747B9" fill-opacity="0.2"/>
<path d="M27.732 136.596C27.732 134.371 25.8491 132.488 23.6238 132.488C21.3985 132.488 19.5156 134.371 19.5156 136.596C19.5156 138.822 21.3985 140.705 23.6238 140.705C25.8491 140.705 27.732 138.822 27.732 136.596Z" fill="#4747B9" fill-opacity="0.2"/>
<path d="M27.732 117.597C27.732 115.371 25.8491 113.488 23.6238 113.488C21.3985 113.488 19.5156 115.371 19.5156 117.597C19.5156 119.822 21.3985 121.705 23.6238 121.705C25.8491 121.705 27.732 119.822 27.732 117.597Z" fill="#4747B9" fill-opacity="0.2"/>
<path d="M27.732 98.5965C27.732 96.3712 25.8491 94.4883 23.6238 94.4883C21.3985 94.4883 19.5156 96.3712 19.5156 98.5965C19.5156 100.822 21.3985 102.705 23.6238 102.705C25.8491 102.876 27.732 100.993 27.732 98.5965Z" fill="#4747B9" fill-opacity="0.2"/>
<path d="M27.732 79.7683C27.732 77.5431 25.8491 75.6602 23.6238 75.6602C21.3985 75.6602 19.5156 77.5431 19.5156 79.7683C19.5156 81.9936 21.3985 83.8765 23.6238 83.8765C25.8491 83.8765 27.732 81.9936 27.732 79.7683Z" fill="#4747B9" fill-opacity="0.2"/>
<path d="M27.732 60.7674C27.732 58.5421 25.8491 56.6592 23.6238 56.6592C21.3985 56.6592 19.5156 58.5421 19.5156 60.7674C19.5156 62.9926 21.3985 64.8755 23.6238 64.8755C25.8491 65.0467 27.732 63.1638 27.732 60.7674Z" fill="#4747B9" fill-opacity="0.2"/>
<path d="M8.21634 174.427C8.21634 172.201 6.33344 170.318 4.10817 170.318C1.88291 170.318 0 172.201 0 174.427C0 176.652 1.88291 178.535 4.10817 178.535C6.33344 178.535 8.21634 176.652 8.21634 174.427Z" fill="#4747B9" fill-opacity="0.2"/>
<path d="M8.21634 155.427C8.21634 153.201 6.33344 151.318 4.10817 151.318C1.88291 151.318 0 153.201 0 155.427C0 157.652 1.88291 159.535 4.10817 159.535C6.33344 159.535 8.21634 157.823 8.21634 155.427Z" fill="#4747B9" fill-opacity="0.2"/>
<path d="M8.21634 136.597C8.21634 134.372 6.33344 132.489 4.10817 132.489C1.88291 132.489 0 134.372 0 136.597C0 138.823 1.88291 140.706 4.10817 140.706C6.33344 140.706 8.21634 138.823 8.21634 136.597Z" fill="#4747B9" fill-opacity="0.2"/>
<path d="M8.21634 117.597C8.21634 115.371 6.33344 113.488 4.10817 113.488C1.88291 113.488 0 115.371 0 117.597C0 119.822 1.88291 121.705 4.10817 121.705C6.33344 121.705 8.21634 119.822 8.21634 117.597Z" fill="#4747B9" fill-opacity="0.2"/>
<path d="M8.21634 98.5974C8.21634 96.3722 6.33344 94.4893 4.10817 94.4893C1.88291 94.4893 0 96.3722 0 98.5974C0 100.823 1.88291 102.706 4.10817 102.706C6.33344 102.706 8.21634 100.994 8.21634 98.5974Z" fill="#4747B9" fill-opacity="0.2"/>
<path d="M8.21634 79.7674C8.21634 77.5421 6.33344 75.6592 4.10817 75.6592C1.88291 75.6592 0 77.5421 0 79.7674C0 81.9926 1.88291 83.8755 4.10817 83.8755C6.33344 83.8755 8.21634 81.9926 8.21634 79.7674Z" fill="#4747B9" fill-opacity="0.2"/>
<path d="M8.21634 60.7674C8.21634 58.5421 6.33344 56.6592 4.10817 56.6592C1.88291 56.6592 0 58.5421 0 60.7674C0 62.9926 1.88291 64.8755 4.10817 64.8755C6.33344 64.8755 8.21634 63.1638 8.21634 60.7674Z" fill="#4747B9" fill-opacity="0.2"/>
</svg>
