<svg width="24" height="24" viewBox="0 0 24 24" fill="none" xmlns="http://www.w3.org/2000/svg">
<mask id="mask0_1804_3053" style="mask-type:luminance" maskUnits="userSpaceOnUse" x="0" y="0" width="24" height="24">
<path d="M24 0H0V24H24V0Z" fill="white"/>
</mask>
<g mask="url(#mask0_1804_3053)">
<path d="M12 15C13.6569 15 15 13.6569 15 12C15 10.3431 13.6569 9 12 9C10.3431 9 9 10.3431 9 12C9 13.6569 10.3431 15 12 15Z" fill="black"/>
<path d="M23.0091 11.1844C21.7687 9.2663 20.1595 7.6369 18.3558 6.472C16.3603 5.182 14.1572 4.5 11.985 4.5C9.99194 4.5 8.03204 5.0695 6.15984 6.1927C4.25064 7.3378 2.52094 9.0108 1.01864 11.1647C0.849039 11.4081 0.755639 11.6965 0.750239 11.9931C0.744939 12.2897 0.827938 12.5813 0.988638 12.8306C2.22664 14.768 3.81984 16.3997 5.59554 17.5486C7.59474 18.8437 9.74624 19.5 11.985 19.5C14.1745 19.5 16.3823 18.8236 18.3694 17.5444C20.1722 16.3833 21.7781 14.7478 23.0137 12.8137C23.1689 12.5702 23.251 12.2872 23.2501 11.9984C23.2493 11.7096 23.1656 11.4271 23.0091 11.1844ZM12.0009 16.5C11.1109 16.5 10.2409 16.2361 9.50094 15.7416C8.76084 15.2471 8.18414 14.5443 7.84354 13.7221C7.50294 12.8998 7.41384 11.995 7.58744 11.1221C7.76104 10.2492 8.18964 9.4474 8.81904 8.818C9.44834 8.1887 10.2501 7.7601 11.123 7.5865C11.9959 7.4128 12.9007 7.5019 13.723 7.8425C14.5453 8.1831 15.2481 8.7599 15.7425 9.4999C16.237 10.24 16.5009 11.11 16.5009 12C16.4996 13.1931 16.025 14.3369 15.1814 15.1805C14.3378 16.0241 13.194 16.4986 12.0009 16.5Z" fill="black"/>
<path d="M19 1L5 23" stroke="black" stroke-width="2" stroke-linecap="round"/>
</g>
</svg>
