<svg width="31" height="30" viewBox="0 0 31 30" fill="none" xmlns="http://www.w3.org/2000/svg">
<path d="M15.5 30C23.7842 30 30.5 23.2842 30.5 15C30.5 6.71572 23.7842 0 15.5 0C7.21572 0 0.5 6.71572 0.5 15C0.5 23.2842 7.21572 30 15.5 30Z" fill="#1977F3"/>
<path d="M21.3386 19.3365L22.0031 14.9996H17.8434V12.1856C17.8434 11.0002 18.4234 9.84209 20.2882 9.84209H22.1803V6.15063C22.1803 6.15063 20.4632 5.85742 18.8221 5.85742C15.3964 5.85742 13.1563 7.93308 13.1563 11.6941V14.9996H9.34668V19.3365H13.1563V29.8182C13.9199 29.9384 14.7025 29.9996 15.4998 29.9996C16.2972 29.9996 17.0798 29.9363 17.8434 29.8182V19.3365H21.3386Z" fill="white"/>
</svg>
