<svg width="40" height="40" viewBox="0 0 40 40" fill="none" xmlns="http://www.w3.org/2000/svg">
<g clip-path="url(#clip0_1656_21163)">
<path fill-rule="evenodd" clip-rule="evenodd" d="M22.0932 28.804C22.0932 29.8498 21.2454 30.6977 20.1995 30.6977C19.1536 30.6977 18.3058 29.8498 18.3058 28.804C18.3058 27.7581 19.1536 26.9103 20.1995 26.9103C21.2454 26.9103 22.0932 27.7581 22.0932 28.804ZM20.1995 11.7607C16.7182 11.7607 13.8872 14.3093 13.8872 17.4418V18.073C13.8872 18.7702 14.4524 19.3355 15.1496 19.3355C15.8469 19.3355 16.4121 18.7702 16.4121 18.073V17.4418C16.4121 15.7059 18.1117 14.2856 20.1995 14.2856C22.2873 14.2856 23.9869 15.7059 23.9869 17.4418C23.9869 19.1777 22.2873 20.5979 20.1995 20.5979C19.5023 20.5979 18.937 21.1632 18.937 21.8604V23.1229C18.937 23.8201 19.5023 24.3853 20.1995 24.3853C20.8967 24.3853 21.462 23.8201 21.462 23.1229V23.0092C24.3404 22.4806 26.5118 20.1845 26.5118 17.4418C26.5118 14.3093 23.6808 11.7607 20.1995 11.7607ZM36.6116 20.5979C36.6116 29.6621 29.2636 37.01 20.1995 37.01C11.1353 37.01 3.78741 29.6621 3.78741 20.5979C3.78741 11.5338 11.1353 4.18584 20.1995 4.18584C29.2597 4.19541 36.602 11.5378 36.6116 20.5979ZM34.0867 20.5979C34.0867 12.9283 27.8692 6.71078 20.1995 6.71078C12.5298 6.71078 6.31234 12.9283 6.31234 20.5979C6.31234 28.2676 12.5298 34.4851 20.1995 34.4851C27.8656 34.4764 34.078 28.264 34.0867 20.5979Z" fill="black"/>
</g>
<defs>
<clipPath id="clip0_1656_21163">
<rect width="40" height="40" fill="white"/>
</clipPath>
</defs>
</svg>
