<svg width="194" height="194" viewBox="0 0 194 194" fill="none" xmlns="http://www.w3.org/2000/svg">
<circle cx="97" cy="97" r="92.813" stroke="url(#paint0_linear_340_1838)" stroke-width="8.3741"/>
<g clip-path="url(#clip0_340_1838)">
<path d="M61.915 149.458L69.763 143.389L78.6966 147.701L75.3568 138.374L82.2225 131.219L72.3169 131.529L67.6226 122.792L64.8412 132.315L55.07 134.073L63.2695 139.656L61.915 149.458ZM98.3113 158.578L102.065 149.396L111.95 148.662L104.391 142.251L106.759 132.615L98.3217 137.836L89.8843 132.615L92.2522 142.251L84.673 148.662L94.558 149.396L98.3113 158.578ZM69.0805 89.1459C73.6714 87.4294 79.5341 85.2374 83.7528 82.6214C88.5919 87.1089 91.7352 92.2168 91.9833 98.4207H104.681C104.929 92.2168 108.072 87.1089 112.911 82.6214C117.13 85.2374 122.993 87.4191 127.583 89.1459C141.108 94.202 134.501 103.436 126.612 111.211C119.374 118.335 109.375 122.74 98.3217 122.74C87.2684 122.74 77.28 118.346 70.0318 111.211C62.2562 103.549 55.4629 94.2331 69.0805 89.1459ZM88.3644 76.3141C88.5712 74.6183 83.5667 68.1973 82.6568 65.1057C80.6922 62.0037 79.9994 57.0406 82.1398 53.7525C82.998 52.4497 82.6258 50.1129 82.6258 48.3241C82.6258 30.4258 113.987 30.4051 113.987 48.3241C113.987 50.5885 113.47 52.3153 114.7 54.0937C116.758 57.0716 115.693 62.3553 113.956 65.1263C112.849 68.3627 107.597 74.4943 107.969 76.3348C108.279 85.5062 88.292 85.2064 88.3644 76.3141ZM161.839 122.316L155.77 114.479L160.082 105.545L150.745 108.895L143.59 102.029L143.9 111.935L135.163 116.629L144.686 119.4L146.443 129.171L152.017 120.972L161.839 122.316ZM134.708 149.458L133.374 139.625L141.573 134.042L131.812 132.273L129.041 122.75L124.347 131.488L114.431 131.177L121.297 138.333L117.926 147.68L126.86 143.368L134.708 149.458ZM34.7832 122.306L44.6164 120.972L50.1999 129.171L51.9681 119.411L61.4911 116.64L52.7539 111.945L53.0641 102.04L45.8986 108.905L36.541 105.545L40.8527 114.479L34.7832 122.306Z" fill="black"/>
</g>
<defs>
<linearGradient id="paint0_linear_340_1838" x1="0" y1="97" x2="194" y2="97" gradientUnits="userSpaceOnUse">
<stop stop-color="#B0398D"/>
<stop offset="1" stop-color="#CF93B7"/>
</linearGradient>
<clipPath id="clip0_340_1838">
<rect width="127.056" height="123.685" fill="white" transform="translate(34.7832 34.8926)"/>
</clipPath>
</defs>
</svg>
