<svg width="46" height="47" viewBox="0 0 46 47" fill="none" xmlns="http://www.w3.org/2000/svg">
<path fill-rule="evenodd" clip-rule="evenodd" d="M11.1115 9.11151C11.8232 8.39982 12.7884 8 13.7949 8H25.832H25.834C26.0422 8 26.2419 8.08272 26.3892 8.22997L35.4185 17.2593C35.5657 17.4065 35.6484 17.6062 35.6484 17.8145V35.873C35.6484 36.8795 35.2486 37.8448 34.5369 38.5565C33.8252 39.2681 32.86 39.668 31.8535 39.668H13.7949C12.7884 39.668 11.8232 39.2681 11.1115 38.5565C10.3998 37.8448 10 36.8795 10 35.873V11.7949C10 10.7884 10.3998 9.82319 11.1115 9.11151ZM13.7949 9.57031H25.0469V17.8145C25.0469 18.2481 25.3984 18.5996 25.832 18.5996H34.0781V35.873C34.0781 36.463 33.8437 37.0289 33.4266 37.4461C33.0094 37.8633 32.4435 38.0977 31.8535 38.0977H13.7949C13.2049 38.0977 12.6391 37.8633 12.2219 37.4461C11.8047 37.0289 11.5703 36.4631 11.5703 35.873V11.7949C11.5703 11.2049 11.8047 10.6391 12.2219 10.2219C12.6391 9.80469 13.2049 9.57031 13.7949 9.57031ZM26.6172 17.0293H32.9677L26.6172 10.6787V17.0293ZM16.8047 24.5547C16.3711 24.5547 16.0195 24.9062 16.0195 25.3398C16.0195 25.7735 16.3711 26.125 16.8047 26.125H28.8438C29.2774 26.125 29.6289 25.7735 29.6289 25.3398C29.6289 24.9062 29.2774 24.5547 28.8438 24.5547H16.8047ZM16.0195 31.3594C16.0195 30.9257 16.3711 30.5742 16.8047 30.5742H28.8438C29.2774 30.5742 29.6289 30.9257 29.6289 31.3594C29.6289 31.793 29.2774 32.1445 28.8438 32.1445H16.8047C16.3711 32.1445 16.0195 31.793 16.0195 31.3594ZM16.8047 18.5352C16.3711 18.5352 16.0195 18.8867 16.0195 19.3203C16.0195 19.7539 16.3711 20.1055 16.8047 20.1055H18.3096H19.8145C20.2481 20.1055 20.5996 19.7539 20.5996 19.3203C20.5996 18.8867 20.2481 18.5352 19.8145 18.5352H18.3096H16.8047Z" fill="black"/>
</svg>
