<svg width="40" height="40" viewBox="0 0 40 40" fill="none" xmlns="http://www.w3.org/2000/svg">
<g clip-path="url(#clip0_1656_21150)">
<path fill-rule="evenodd" clip-rule="evenodd" d="M30.3844 12.8656L21.6344 4.11562C21.3998 3.88126 21.0816 3.74974 20.75 3.75H5.75C4.36929 3.75 3.25 4.86929 3.25 6.25V33.75C3.25 35.1307 4.36929 36.25 5.75 36.25H28.25C29.6307 36.25 30.75 35.1307 30.75 33.75V13.75C30.7503 13.4184 30.6187 13.1002 30.3844 12.8656ZM22 8.01719L26.4828 12.5H22V8.01719ZM28.25 33.75H5.75V6.25H19.5V13.75C19.5 14.4404 20.0596 15 20.75 15H28.25V33.75ZM23.25 21.25C23.25 21.9404 22.6904 22.5 22 22.5H12C11.3096 22.5 10.75 21.9404 10.75 21.25C10.75 20.5596 11.3096 20 12 20H22C22.6904 20 23.25 20.5596 23.25 21.25ZM23.25 26.25C23.25 26.9404 22.6904 27.5 22 27.5H12C11.3096 27.5 10.75 26.9404 10.75 26.25C10.75 25.5596 11.3096 25 12 25H22C22.6904 25 23.25 25.5596 23.25 26.25Z" fill="black"/>
</g>
<defs>
<clipPath id="clip0_1656_21150">
<rect width="34.2857" height="40" fill="white"/>
</clipPath>
</defs>
</svg>
