<svg width="41" height="40" viewBox="0 0 41 40" fill="none" xmlns="http://www.w3.org/2000/svg">
<path d="M6.83008 8.33333H16.8301M16.8301 8.33333C16.8301 10.1743 18.3224 11.6667 20.1634 11.6667C22.0044 11.6667 23.4967 10.1743 23.4967 8.33333M16.8301 8.33333C16.8301 6.49238 18.3224 5 20.1634 5C22.0044 5 23.4967 6.49238 23.4967 8.33333M23.4967 8.33333H33.4967M6.83008 20H26.8301M26.8301 20C26.8301 21.841 28.3224 23.3333 30.1634 23.3333C32.0044 23.3333 33.4967 21.841 33.4967 20C33.4967 18.159 32.0044 16.6667 30.1634 16.6667C28.3224 16.6667 26.8301 18.159 26.8301 20ZM13.4967 31.6667H33.4967M13.4967 31.6667C13.4967 29.8257 12.0044 28.3333 10.1634 28.3333C8.32246 28.3333 6.83008 29.8257 6.83008 31.6667C6.83008 33.5077 8.32246 35 10.1634 35C12.0044 35 13.4967 33.5077 13.4967 31.6667Z" stroke="black" stroke-width="3.0625" stroke-linecap="round"/>
</svg>
