<svg width="139" height="139" viewBox="0 0 139 139" fill="none" xmlns="http://www.w3.org/2000/svg">
<circle cx="69.5" cy="69.5" r="67.5" stroke="url(#paint0_linear_2616_14901)" stroke-width="4"/>
<g clip-path="url(#clip0_2616_14901)">
<path d="M44.0466 80.7171L39.8577 90.5231C39.7599 90.7535 39.5979 90.951 39.3909 91.0918C39.184 91.2326 38.9408 91.3108 38.6906 91.3171L28.1527 92.264L36.1858 99.2774C36.5588 99.6043 36.7009 100.098 36.5979 100.551L34.2246 110.947L43.3751 105.475C43.8014 105.22 44.3166 105.237 44.7145 105.475L53.8685 110.947L52.8258 106.389C53.6927 106.486 54.5862 106.422 55.4549 106.184L56.6416 111.391C56.6753 111.617 56.6753 111.849 56.638 112.082C56.5925 112.362 56.4949 112.632 56.3502 112.876C56.0466 113.384 55.554 113.75 54.9806 113.894C54.4317 114.033 53.8259 113.96 53.2947 113.644L44.0448 108.113L34.8748 113.599C34.6758 113.729 34.452 113.828 34.2121 113.889L34.0452 113.93C33.7894 113.976 33.514 113.976 33.2369 113.922L33.1481 113.906C32.5547 113.768 32.0698 113.402 31.766 112.919C31.4588 112.43 31.3525 111.842 31.4693 111.277L33.88 100.727L25.7651 93.6407C25.552 93.4542 25.3708 93.2233 25.2429 92.9692C25.1234 92.7359 25.0458 92.4833 25.0137 92.2231L25.0048 92.1077C24.9657 91.5197 25.1665 90.9619 25.5271 90.532C25.8842 90.1056 26.3976 89.8125 26.9838 89.7468L37.7615 88.7857L41.9859 78.8891C42.098 78.6223 42.2609 78.3798 42.4655 78.175C42.6325 78.0045 42.8315 77.8606 43.0535 77.7486C43.1335 77.706 43.2152 77.6705 43.3022 77.6438C43.8281 77.4555 44.3894 77.4822 44.8762 77.6776C45.3647 77.8748 45.7857 78.2443 46.038 78.7452L49.3812 86.5634L48.4095 90.8144C48.3385 90.7256 48.2816 90.6279 48.2372 90.5231L44.0466 80.7171ZM32.2723 51.999C31.2597 51.5727 30.7836 50.4074 31.21 49.3948C31.6363 48.3822 32.8034 47.9061 33.816 48.3325L42.1173 51.8498C43.1299 52.2762 43.606 53.4433 43.1797 54.4541C42.7533 55.4667 41.5862 55.9428 40.5736 55.5164L32.2723 51.999ZM40.7139 39.0594C39.9394 38.2795 39.943 37.0183 40.7228 36.2437C41.5027 35.4692 42.764 35.4728 43.5385 36.2526L49.8804 42.662C50.6549 43.4419 50.6514 44.7032 49.8715 45.4777C49.0917 46.2522 47.8304 46.2487 47.0559 45.4688L40.7139 39.0594ZM53.4422 30.2944C53.0247 29.2783 53.5097 28.1147 54.5258 27.6973C55.5437 27.2798 56.7055 27.7648 57.1248 28.7809L60.5533 37.1213C60.9708 38.1374 60.484 39.301 59.4679 39.7185C58.4518 40.1359 57.2882 39.651 56.8707 38.6348L53.4422 30.2944ZM107.137 48.3325C108.15 47.9061 109.317 48.3822 109.743 49.3948C110.169 50.4074 109.693 51.5727 108.681 51.999L100.379 55.5164C99.3669 55.9428 98.1998 55.4667 97.7734 54.4541C97.3471 53.4433 97.8232 52.2762 98.8357 51.8498L107.137 48.3325ZM97.4146 36.2526C98.1891 35.4728 99.4504 35.4692 100.23 36.2437C101.01 37.0183 101.014 38.2795 100.239 39.0594L93.8972 45.4688C93.1227 46.2487 91.8614 46.2522 91.0815 45.4777C90.3017 44.7032 90.2981 43.4419 91.0727 42.662L97.4146 36.2526ZM83.8283 28.7809C84.2476 27.7648 85.4094 27.2798 86.4273 27.6973C87.4434 28.1147 87.9284 29.2783 87.5109 30.2944L84.0823 38.6348C83.6649 39.651 82.5013 40.1359 81.4852 39.7185C80.4691 39.301 79.9823 38.1374 80.3998 37.1213L83.8283 28.7809ZM68.4176 27.0329C68.4176 25.9315 69.3112 25.0361 70.4144 25.0361C71.5158 25.0361 72.4111 25.9315 72.4111 27.0329V36.0501C72.4111 37.1515 71.5158 38.0468 70.4144 38.0468C69.3112 38.0468 68.4176 37.1515 68.4176 36.0501V27.0329ZM72.7309 49.1301L79.1189 64.086L95.3841 65.5427C96.0396 65.6084 96.6081 65.9299 97.0024 66.3989L97.0682 66.486C97.4181 66.9425 97.61 67.5216 97.5656 68.131L97.5585 68.2216C97.5265 68.5236 97.4377 68.806 97.308 69.0618L97.2707 69.1293C97.1534 69.3407 97.0042 69.5361 96.8319 69.7031L84.4572 80.5146L88.1024 96.4706C88.2321 97.1048 88.1007 97.7355 87.7774 98.2488C87.0561 99.4035 85.5159 99.7286 84.3879 98.9914L70.4765 90.6723L56.4497 99.0571C55.9039 99.3747 55.2556 99.4665 54.6431 99.3129C53.3516 98.9879 52.5753 97.6946 52.8648 96.412L56.4959 80.5146L44.2135 69.7884C43.9729 69.578 43.776 69.3222 43.6343 69.0357C43.4926 68.7492 43.4087 68.4375 43.3875 68.1185C43.3466 67.5039 43.542 66.8661 43.9844 66.3616C44.2064 66.1094 44.4676 65.9122 44.7483 65.7754C45.0378 65.6333 45.3576 65.5516 45.6809 65.5338L61.8341 64.086L68.2382 49.0892C68.5011 48.4728 68.9932 48.0163 69.5705 47.7853C70.8176 47.2826 72.2121 47.8901 72.722 49.107L72.7309 49.1301ZM98.9779 78.9158L103.192 88.7857L113.969 89.7468C114.556 89.8125 115.069 90.1074 115.426 90.532C115.787 90.9619 115.987 91.5197 115.948 92.1077L115.939 92.2231C115.907 92.4833 115.83 92.7359 115.71 92.9692C115.582 93.2233 115.403 93.4524 115.188 93.6407L107.073 100.727L109.484 111.277C109.605 111.862 109.484 112.446 109.187 112.919C108.885 113.4 108.398 113.768 107.805 113.906L107.716 113.922C107.439 113.976 107.165 113.976 106.908 113.93L106.741 113.889C106.501 113.828 106.277 113.731 106.078 113.599L96.9065 108.113L87.6583 113.644C87.4076 113.794 87.1297 113.894 86.8404 113.937C86.5511 113.98 86.2562 113.965 85.9725 113.894C85.4218 113.755 84.9191 113.404 84.6028 112.876C84.4536 112.626 84.3577 112.356 84.3133 112.086L84.3115 112.071C84.2742 111.849 84.276 111.62 84.3115 111.395L85.5 106.179C85.6936 106.232 85.8925 106.277 86.0915 106.312C86.7577 106.433 87.4452 106.461 88.1273 106.385L87.0845 110.947L96.2368 105.475C96.6365 105.237 97.1499 105.22 97.5762 105.475L106.728 110.947L104.353 100.551C104.252 100.098 104.394 99.6043 104.767 99.2774L112.8 92.264L102.263 91.3171C102.012 91.3108 101.769 91.2326 101.562 91.0918C101.355 90.951 101.193 90.7535 101.095 90.5231L96.9065 80.7171L92.7194 90.5231C92.6732 90.6314 92.6111 90.7327 92.5382 90.8233L91.5683 86.5758L94.9151 78.7452C95.1674 78.2443 95.5884 77.8748 96.0769 77.6776C96.5654 77.4822 97.1268 77.4555 97.6526 77.6438C97.7397 77.6723 97.8232 77.7078 97.9013 77.7504C98.1252 77.8623 98.3206 78.0062 98.4876 78.175C98.6936 78.3828 98.8571 78.628 98.9672 78.8891L98.9779 78.9158Z" fill="black"/>
</g>
<defs>
<linearGradient id="paint0_linear_2616_14901" x1="0" y1="69.5" x2="139" y2="69.5" gradientUnits="userSpaceOnUse">
<stop stop-color="#B0398D"/>
<stop offset="1" stop-color="#CF93B7"/>
</linearGradient>
<clipPath id="clip0_2616_14901">
<rect width="90.9541" height="89" fill="white" transform="translate(25 25)"/>
</clipPath>
</defs>
</svg>
