<svg width="31" height="30" viewBox="0 0 31 30" fill="none" xmlns="http://www.w3.org/2000/svg">
<g clip-path="url(#clip0_856_16185)">
<path d="M30.4842 15.2807C30.4842 14.0516 30.3821 13.1547 30.1613 12.2246H15.7988V17.7721H24.2292C24.0593 19.1507 23.1415 21.2269 21.1018 22.622L21.0732 22.8077L25.6144 26.2455L25.929 26.2762C28.8184 23.6685 30.4842 19.8317 30.4842 15.2807Z" fill="#4285F4"/>
<path d="M15.7984 29.8973C19.9286 29.8973 23.3959 28.5685 25.9285 26.2764L21.1014 22.6223C19.8097 23.5026 18.0759 24.1171 15.7984 24.1171C11.7531 24.1171 8.31979 21.5095 7.09589 17.9053L6.9165 17.9202L2.19456 21.4912L2.13281 21.6589C4.64833 26.5421 9.81541 29.8973 15.7984 29.8973Z" fill="#34A853"/>
<path d="M7.0967 17.9045C6.77377 16.9744 6.58687 15.9777 6.58687 14.948C6.58687 13.9182 6.77377 12.9216 7.07971 11.9915L7.07116 11.7934L2.29005 8.16504L2.13362 8.23775C1.09685 10.2641 0.501953 12.5397 0.501953 14.948C0.501953 17.3564 1.09685 19.6318 2.13362 21.6582L7.0967 17.9045Z" fill="#FBBC05"/>
<path d="M15.7984 5.78004C18.6708 5.78004 20.6085 6.99252 21.7133 8.00576L26.0305 3.8866C23.3791 1.47824 19.9286 0 15.7984 0C9.81542 0 4.64834 3.35507 2.13281 8.2382L7.07891 11.992C8.3198 8.38774 11.7532 5.78004 15.7984 5.78004Z" fill="#EB4335"/>
</g>
<defs>
<clipPath id="clip0_856_16185">
<rect width="30" height="30" fill="white" transform="translate(0.5)"/>
</clipPath>
</defs>
</svg>
