<svg width="35" height="31" viewBox="0 0 35 31" fill="none" xmlns="http://www.w3.org/2000/svg">
<path d="M17.4749 28.7463L18.2012 30.1484C17.9768 30.2647 17.7277 30.3254 17.4749 30.3254C17.2221 30.3254 16.9731 30.2647 16.7486 30.1484L16.7318 30.14L16.6939 30.1189C16.4733 30.0051 16.2557 29.8858 16.0412 29.761C13.4749 28.3013 11.0541 26.5995 8.81176 24.6789C4.93808 21.3379 0.632812 16.3252 0.632812 10.3252C0.632812 4.71683 5.02439 0.851562 9.58018 0.851562C12.837 0.851562 15.6918 2.53998 17.4749 5.10419C19.2581 2.53998 22.1128 0.851562 25.3697 0.851562C29.9254 0.851562 34.317 4.71683 34.317 10.3252C34.317 16.3252 30.0118 21.3379 26.1381 24.6789C23.7057 26.7598 21.0643 28.5828 18.256 30.1189L18.2181 30.14L18.2054 30.1463H18.2012L17.4749 28.7463ZM9.58018 4.00946C6.76755 4.00946 3.79071 6.45998 3.79071 10.3252C3.79071 14.8516 7.11702 19.0495 10.8749 22.2874C12.9253 24.0408 15.1349 25.5992 17.4749 26.9421C19.8149 25.5992 22.0245 24.0408 24.0749 22.2874C27.8328 19.0495 31.1591 14.8516 31.1591 10.3252C31.1591 6.45998 28.1823 4.00946 25.3697 4.00946C22.4791 4.00946 19.877 6.08525 18.9928 9.17998C18.8997 9.51088 18.701 9.80228 18.427 10.0098C18.153 10.2174 17.8187 10.3297 17.4749 10.3297C17.1312 10.3297 16.7968 10.2174 16.5228 10.0098C16.2488 9.80228 16.0501 9.51088 15.957 9.17998C15.0728 6.08525 12.4707 4.00946 9.58018 4.00946Z" fill="#BF2B91"/>
</svg>
