<svg width="40" height="41" viewBox="0 0 40 41" fill="none" xmlns="http://www.w3.org/2000/svg">
<g clip-path="url(#clip0_2452_20160)">
<path fill-rule="evenodd" clip-rule="evenodd" d="M22.0932 29.3045C22.0932 30.3503 21.2454 31.1982 20.1995 31.1982C19.1536 31.1982 18.3058 30.3503 18.3058 29.3045C18.3058 28.2586 19.1536 27.4108 20.1995 27.4108C21.2454 27.4108 22.0932 28.2586 22.0932 29.3045ZM20.1995 12.2611C16.7182 12.2611 13.8872 14.8098 13.8872 17.9423V18.5735C13.8872 19.2707 14.4524 19.836 15.1496 19.836C15.8469 19.836 16.4121 19.2707 16.4121 18.5735V17.9423C16.4121 16.2064 18.1117 14.7861 20.1995 14.7861C22.2873 14.7861 23.9869 16.2064 23.9869 17.9423C23.9869 19.6781 22.2873 21.0984 20.1995 21.0984C19.5023 21.0984 18.937 21.6636 18.937 22.3609V23.6234C18.937 24.3206 19.5023 24.8858 20.1995 24.8858C20.8967 24.8858 21.462 24.3206 21.462 23.6234V23.5097C24.3404 22.9811 26.5118 20.685 26.5118 17.9423C26.5118 14.8098 23.6808 12.2611 20.1995 12.2611ZM36.6116 21.0984C36.6116 30.1626 29.2636 37.5105 20.1995 37.5105C11.1353 37.5105 3.78741 30.1626 3.78741 21.0984C3.78741 12.0343 11.1353 4.68633 20.1995 4.68633C29.2597 4.6959 36.602 12.0382 36.6116 21.0984ZM34.0867 21.0984C34.0867 13.4288 27.8692 7.21127 20.1995 7.21127C12.5298 7.21127 6.31234 13.4288 6.31234 21.0984C6.31234 28.7681 12.5298 34.9856 20.1995 34.9856C27.8656 34.9769 34.078 28.7645 34.0867 21.0984Z" fill="#B0398D"/>
</g>
<defs>
<clipPath id="clip0_2452_20160">
<rect width="40" height="40" fill="white" transform="translate(0 0.5)"/>
</clipPath>
</defs>
</svg>
