<svg width="71" height="80" viewBox="0 0 71 80" fill="none" xmlns="http://www.w3.org/2000/svg">
<mask id="mask0_1882_4854" style="mask-type:luminance" maskUnits="userSpaceOnUse" x="0" y="0" width="71" height="80">
<path d="M70.125 0.675781H0.128906V79.8378H70.125V0.675781Z" fill="white"/>
</mask>
<g mask="url(#mask0_1882_4854)">
<path d="M35.2804 0.677125C27.4954 0.606215 22.339 3.34853 19.4895 7.18653C17.2666 10.1805 16.3634 13.7053 16.0278 17.0805C13.4557 17.048 12.7803 19.8507 12.7789 21.4289C12.926 23.8771 14.4301 26.8421 17.0605 27.2095C17.9129 29.7513 19.1906 32.2595 20.8566 34.5C22.598 36.843 24.8263 38.9054 27.446 40.3324C21.5503 41.111 15.9762 42.7834 11.3819 45.1754C4.84884 48.5767 0.205023 53.6174 0.297899 59.7044C0.297899 64.6014 -0.264269 69.2334 0.662061 73.0354C1.12522 74.936 2.02983 76.7024 3.75977 77.956C5.47678 79.2004 7.85969 79.802 10.7743 79.7787C26.9428 79.8684 43.1262 79.8457 59.3005 79.7787C62.2622 79.7787 64.6613 79.168 66.4066 77.9304C68.1516 76.6924 69.0841 74.9454 69.5648 73.0614C70.5257 69.2944 69.9595 64.708 69.9595 59.8084C69.9595 53.676 65.2769 48.5907 58.7234 45.1754C54.1862 42.81 48.7029 41.149 42.903 40.3584C45.6283 38.8997 47.9251 36.763 49.705 34.3437C51.317 32.1523 52.5634 29.7123 53.4096 27.2355C56.3317 26.3265 57.454 23.7271 57.4793 21.4294C57.4793 18.6068 56.9251 17.7367 54.6548 17.0549C54.591 15.5309 54.4362 13.9633 53.9256 12.4462C53.1234 10.0619 51.252 7.78397 47.9737 6.66557C47.5168 5.7844 46.907 4.6852 46.3034 4.0098C42.439 1.37559 38.7699 0.740365 35.2804 0.677125ZM40.9286 14.0081C42.1952 15.2502 43.3941 16.5545 44.8155 17.8617C46.3209 19.2463 48.2584 20.4942 50.7675 20.9859C50.4902 24.7425 48.9603 29.1269 46.4248 32.5725C43.6158 36.39 39.7985 38.958 35.2804 39.0034C30.8129 39.0484 26.9739 36.52 24.1361 32.7021C21.2983 28.8844 19.6619 23.8724 19.7331 19.9181C22.6939 18.7219 27.931 18.4604 31.0598 17.8349C34.6926 17.0956 38.2132 15.9973 40.9286 14.0081ZM35.0375 43.17C37.0446 43.17 39.0405 43.3077 41.02 43.5344L38.0435 46.945H32.213L29.207 43.508C31.1329 43.2944 33.0824 43.17 35.0375 43.17ZM24.9253 44.159L29.207 49.0544L28.3261 55.0694C28.2277 55.8254 28.817 56.6067 29.662 56.8397L30.9376 57.204L26.4436 76.4974C20.2787 76.4894 14.5207 76.4857 10.8352 76.4457C9.26603 76.3747 7.4052 76.1947 6.2803 75.404C5.41432 74.7764 4.81621 73.827 4.4582 72.3577C3.74208 69.419 4.18489 64.791 4.18489 59.7034C4.03299 54.433 9.34272 50.194 13.4163 48.0127C17.2775 46.258 21.3481 44.874 24.9253 44.159ZM45.3024 44.1847C49.5238 45.0207 53.4617 46.3394 56.7202 48.0384C62.5337 51.0684 66.073 55.1274 66.073 59.8077C66.073 64.8924 66.5054 69.4457 65.7689 72.331C65.401 73.7737 64.8087 74.7447 63.9162 75.3777C63.0245 76.0104 61.6739 76.4454 59.3005 76.4454C55.7686 76.4604 49.4655 76.4587 43.8134 76.471L39.3194 57.2027L40.5949 56.8384C41.44 56.6054 42.0291 55.824 41.9308 55.068L41.0499 49.053L45.3024 44.1847Z" fill="#212121"/>
</g>
</svg>
