<svg width="81" height="80" viewBox="0 0 81 80" fill="none" xmlns="http://www.w3.org/2000/svg">
<path fill-rule="evenodd" clip-rule="evenodd" d="M11.7778 32.3714C11.2788 31.8847 10.8559 31.3747 10.5207 30.8414V20.238L37.595 32.918L67.5074 21.9247V30.8414C67.2254 31.3414 66.8635 31.8214 66.4254 32.278C67.7283 35.438 67.9188 39.188 67.9454 41.0214C72.6274 39.5647 77.0807 42.998 77.0807 49.328C77.0807 60.0214 67.7016 62.718 67.3245 62.838C58.1283 78.758 43.4159 79.9947 39.1188 79.9947C34.8216 79.9947 20.1093 78.7547 10.9169 62.838C10.5359 62.718 1.15307 60.0214 1.15307 49.3014C1.15307 42.6247 6.06355 39.578 10.2959 41.0347C10.3226 39.198 10.5093 35.5047 11.7778 32.3714ZM63.2826 34.6014C57.1112 38.0414 46.4026 39.6814 39.0121 39.6814C30.9855 39.6814 20.9702 38.0114 14.9397 34.6547C14.3455 36.7247 14.0216 38.9814 14.0216 41.4314C14.0216 43.1914 12.4026 44.4914 10.6045 44.4914C10.1435 44.4914 9.67497 44.4047 9.21402 44.2247C8.98545 44.128 8.63497 44.0547 8.23878 44.0547C7.81212 44.0547 7.33974 44.1414 6.92831 44.3847C3.50736 46.368 3.86545 57.178 12.235 59.7114C13.0693 59.9647 13.7702 60.5047 14.174 61.2147C22.4026 75.5447 35.3435 76.6614 39.1188 76.6614C42.8902 76.6614 55.8388 75.5447 64.0597 61.2147C64.4712 60.5047 65.1683 59.9647 66.0026 59.7114C74.3721 57.178 74.7302 46.368 71.3093 44.3847C69.9188 43.568 68.9016 44.4914 67.6369 44.4914C65.8388 44.4914 64.2159 43.198 64.2159 41.4314C64.2159 38.9614 63.8921 36.6847 63.2826 34.6014ZM80.8788 33.358H69.4883L73.3435 26.6847L73.2864 16.2114L37.7969 29.2347L0.878784 12.168L40.6921 -0.00195312L77.0807 14.818V26.6847L80.8788 33.358Z" fill="#212121"/>
</svg>
