<svg width="76" height="85" viewBox="0 0 76 85" fill="none" xmlns="http://www.w3.org/2000/svg">
<path d="M36.4233 11.7602C17.1943 11.1672 2.80532 27.0455 3.25232 46.6576C3.25232 65.9865 18.9184 81.6526 38.2473 81.6526C57.5761 81.6526 73.2422 65.9865 73.2422 46.6576C73.2422 36.3458 68.7628 27.1071 61.6663 20.7189" stroke="black" stroke-width="5" stroke-linecap="round" stroke-linejoin="round"/>
<path d="M22.6969 78.0279V77.7517C22.6969 69.9754 38.25 70.8927 38.25 62.1986C38.25 54.4218 26.5851 54.4218 26.5851 42.7568C26.5851 31.7609 18.8083 31.0918 7.14328 31.0918H6.90625" stroke="black" stroke-width="5" stroke-linecap="round" stroke-linejoin="round"/>
<path d="M50.7585 31.731C50.4483 32.0245 50.1644 32.2866 49.9135 32.5142C49.6626 32.2865 49.3787 32.0245 49.0684 31.731C47.8287 30.5584 46.18 28.8954 44.5366 26.9303C41.1612 22.8943 38.1627 17.9968 38.1627 13.607C38.1627 7.12296 43.423 1.86444 49.9135 1.86444C56.4035 1.86444 61.6639 7.12292 61.6639 13.607C61.6639 17.9968 58.6654 22.8943 55.2901 26.9303C53.6468 28.8954 51.9982 30.5584 50.7585 31.731Z" stroke="black" stroke-width="3.73279" stroke-linecap="round" stroke-linejoin="round"/>
<path d="M61.4603 72.7876C60.8729 72.5618 60.2896 72.3248 59.7339 71.9982C54.1501 68.732 52.2758 61.5617 55.5382 55.9784C58.8044 50.3946 65.9747 48.5203 71.558 51.7828C71.9705 52.024 72.3162 52.3273 72.6895 52.6072" stroke="black" stroke-width="5" stroke-linecap="round" stroke-linejoin="round"/>
<path d="M49.9161 13.0234C50.4527 13.0234 50.8885 13.4588 50.8843 13.9954C50.8843 14.532 50.449 14.9673 49.9124 14.9673C49.3758 14.9673 48.9404 14.532 48.9404 13.9954C48.9404 13.4588 49.3758 13.0234 49.9161 13.0234Z" stroke="black" stroke-width="4.66599" stroke-linecap="round" stroke-linejoin="round"/>
</svg>
