<svg width="54" height="80" viewBox="0 0 54 80" fill="none" xmlns="http://www.w3.org/2000/svg">
<path d="M27.0005 33.3314C14.1172 33.3314 3.6672 43.778 3.6672 56.6647C3.6672 69.5514 14.1172 79.998 27.0005 79.998C39.8839 79.998 50.3339 69.5514 50.3339 56.6647C50.3339 43.778 39.8839 33.3314 27.0005 33.3314ZM27.0005 73.3314C17.7939 73.3314 10.3339 65.868 10.3339 56.6647C10.3339 47.4614 17.7939 39.998 27.0005 39.998C36.2072 39.998 43.6672 47.4614 43.6672 56.6647C43.6672 65.868 36.2072 73.3314 27.0005 73.3314ZM31.9472 58.948L37.0005 54.0914L30.0572 53.1347L27.0005 46.828L23.9439 53.1347L17.0005 54.0914L22.0539 58.948L20.8239 65.848L27.0005 62.5414L33.1805 65.848L31.9472 58.948ZM13.6672 -0.00195312L33.5272 26.6647H20.3339L0.333862 -0.00195312H13.6672ZM35.6805 23.978L53.6672 -0.00195312H40.3339L29.0805 15.1114L35.6805 23.978Z" fill="#212121"/>
</svg>
