<svg width="81" height="68" viewBox="0 0 81 68" fill="none" xmlns="http://www.w3.org/2000/svg">
<path d="M40.7578 9.68406C30.9645 3.58406 16.0378 1.13073 0.757812 0.664062V59.7107C13.8811 60.1107 26.7411 61.9807 36.3145 66.3607C39.1345 67.6541 42.3711 67.6541 45.2045 66.3607C54.7778 61.9807 67.6345 60.1107 80.7578 59.7107V0.664062C65.4778 1.13073 50.5511 3.58406 40.7578 9.68406ZM7.42448 53.3641V7.68406C24.6145 8.98073 32.5145 12.5607 37.4245 15.4641V59.3574C32.3411 57.5374 21.7045 54.3441 7.42448 53.3641ZM74.0911 53.3641C59.8145 54.3407 49.1745 57.5374 44.0911 59.3607V15.4574C48.9345 12.5874 56.8578 8.98406 74.0911 7.68406V53.3641ZM67.4245 19.3174C60.4711 20.3574 52.5878 22.7274 47.4245 24.8907V21.3441C52.9845 19.2707 60.3611 16.9607 67.4245 15.9241V19.3174ZM67.4245 29.5007C60.3611 30.5374 52.9845 32.8474 47.4245 34.9207V38.4674C52.5878 36.3041 60.4711 33.9307 67.4245 32.8907V29.5007ZM67.4245 22.7307C60.3611 23.7674 52.9845 26.0774 47.4245 28.1507V31.6974C52.5878 29.5341 60.4711 27.1607 67.4245 26.1207V22.7307ZM67.4245 43.0407C60.3611 44.0774 52.9845 46.3874 47.4245 48.4607V52.0074C52.5878 49.8441 60.4711 47.4707 67.4245 46.4307V43.0407ZM67.4245 36.2707C60.3611 37.3074 52.9845 39.6174 47.4245 41.6907V45.2374C52.5878 43.0741 60.4711 40.7007 67.4245 39.6607V36.2707ZM14.0911 15.9241C21.1545 16.9607 28.5311 19.2707 34.0911 21.3441V24.8907C28.9278 22.7274 21.0445 20.3541 14.0911 19.3174V15.9241ZM14.0911 32.8907C21.0445 33.9307 28.9278 36.3007 34.0911 38.4674V34.9207C28.5311 32.8474 21.1545 30.5374 14.0911 29.5007V32.8907ZM14.0911 26.1207C21.0445 27.1607 28.9278 29.5307 34.0911 31.6974V28.1507C28.5311 26.0774 21.1545 23.7641 14.0911 22.7307V26.1207ZM14.0911 46.4307C21.0445 47.4707 28.9278 49.8407 34.0911 52.0074V48.4607C28.5311 46.3874 21.1545 44.0774 14.0911 43.0407V46.4307ZM14.0911 39.6607C21.0445 40.7007 28.9278 43.0707 34.0911 45.2374V41.6907C28.5311 39.6174 21.1545 37.3074 14.0911 36.2707V39.6607Z" fill="#212121"/>
</svg>
