<svg width="198" height="132" viewBox="0 0 198 132" fill="none" xmlns="http://www.w3.org/2000/svg">
<path d="M28.2371 39.151V40.5578C28.2371 42.7785 27.8036 44.6365 26.9365 46.1141C26.0695 47.6005 24.9724 48.786 23.6364 49.6708C22.3004 50.5644 20.8052 51.1925 19.1507 51.5641C17.4962 51.9357 15.8771 52.1215 14.2934 52.1215C12.6123 52.1215 10.9401 51.9357 9.28563 51.5641C7.63113 51.1925 6.1536 50.5644 4.8707 49.6708C3.5878 48.7772 2.53495 47.5916 1.72097 46.1141C0.906993 44.6277 0.5 42.7785 0.5 40.5578V27.2776H5.24231V40.5578C5.24231 41.8937 5.49004 42.9909 5.9855 43.8579C6.48097 44.725 7.14452 45.4151 7.98504 45.9371C8.82556 46.4591 9.78996 46.8307 10.8782 47.0519C11.9665 47.2731 13.0989 47.3881 14.2934 47.3881C16.9653 47.3881 19.1595 46.8661 20.8937 45.8309C22.6189 44.7958 23.486 43.0351 23.486 40.5666V17.6514H28.2283V34.4087H33.8642C35.2002 34.4087 36.0407 34.0548 36.3857 33.3293C36.7308 32.6127 36.9077 31.4625 36.9077 29.8788V17.6426H41.6501V30.1C41.6501 31.2413 41.5793 32.2499 41.4289 33.1435C42.0659 33.5417 42.7295 33.8513 43.393 34.0725C44.0566 34.2937 44.7378 34.4087 45.428 34.4087H47.3567C48.6396 34.4087 49.4713 34.0548 49.8429 33.3293C50.2145 32.6127 50.4003 31.4625 50.4003 29.8788V17.6426H55.1426V30.1C55.1426 31.2413 55.0718 32.2499 54.9214 33.1435C55.5584 33.5417 56.222 33.8513 56.8856 34.0725C57.5491 34.2937 58.2304 34.4087 58.9205 34.4087H61.734V39.151H59.2833C58.0977 39.151 56.9829 38.9918 55.9477 38.6733C54.9126 38.3547 53.9659 37.9212 53.1342 37.3727C52.4883 38.0628 51.7097 38.5317 50.7984 38.7794C49.8783 39.0272 48.8608 39.151 47.7195 39.151H45.7907C44.6051 39.151 43.4904 38.9918 42.4552 38.6733C41.42 38.3547 40.4733 37.9212 39.6328 37.3727C38.9869 38.0628 38.226 38.5317 37.3324 38.7794C36.4388 39.0272 35.4037 39.151 34.2181 39.151H28.2371Z" fill="white"/>
<path d="M71.4307 39.1505H59.6191V34.4082H71.4307V39.1505Z" fill="white"/>
<path d="M85.7461 39.1505H70.0947V34.4082H85.7461V39.1505Z" fill="white"/>
<path d="M100.062 39.1505H84.4102V34.4082H100.062V39.1505Z" fill="white"/>
<path d="M114.368 39.1505H98.7168V34.4082H114.368V39.1505Z" fill="white"/>
<path d="M128.684 39.1505H113.032V34.4082H128.684V39.1505Z" fill="white"/>
<path d="M151.298 33.5849C151.847 33.8326 152.386 34.0273 152.926 34.1777C153.466 34.3281 154.041 34.3989 154.634 34.3989H156.854V39.1412H154.926C153.74 39.1412 152.625 38.9819 151.59 38.6634C150.555 38.3449 149.608 37.9114 148.776 37.3628C147.936 38.0529 146.936 38.5218 145.777 38.7696C144.618 39.0173 143.318 39.1412 141.884 39.1412H127.348V34.3989H131.948V28.9134C131.948 24.9054 132.86 21.9769 134.691 20.1277C136.523 18.2786 138.92 17.3496 141.884 17.3496C144.901 17.3496 147.325 18.3051 149.148 20.2074C150.971 22.1096 151.891 25.0205 151.891 28.9222C151.9 30.7006 151.696 32.2578 151.298 33.5849ZM141.884 34.4077C142.672 34.4077 143.388 34.3458 144.034 34.2219C144.68 34.0981 145.22 33.8503 145.662 33.4787C146.105 33.1071 146.45 32.5497 146.697 31.8065C146.945 31.0633 147.069 30.099 147.069 28.9134C147.069 26.3387 146.6 24.525 145.662 23.4633C144.724 22.4016 143.459 21.8707 141.884 21.8707C140.301 21.8707 139.053 22.4193 138.142 23.4987C137.23 24.5869 136.77 26.3918 136.77 28.9134V34.3989H141.884V34.4077Z" fill="white"/>
<path d="M184.379 39.1505C183.194 39.1505 182.079 38.9912 181.044 38.6727C180.009 38.3542 179.062 37.9207 178.221 37.3721C177.575 38.0623 176.815 38.5312 175.921 38.7789C175.027 39.0266 173.992 39.1505 172.807 39.1505H155.527V34.4082H162.057V17.6509H166.799V34.4082H172.435C173.771 34.4082 174.612 34.0543 174.957 33.3288C175.302 32.6121 175.479 31.462 175.479 29.8782V17.6421H180.221V30.0994C180.221 31.2408 180.15 32.2494 180 33.143C180.637 33.5411 181.3 33.8508 181.964 34.072C182.627 34.2932 183.309 34.4082 183.999 34.4082H185.848C187.184 34.4082 188.033 34.0543 188.405 33.3288C188.776 32.6033 188.962 31.462 188.962 29.8782V17.6421H193.705V30.1791C193.705 31.9132 193.545 33.3553 193.227 34.5144C192.908 35.6734 192.431 36.6024 191.82 37.2925C191.201 37.9826 190.422 38.4692 189.484 38.7346C188.546 39.0089 187.458 39.1417 186.22 39.1417H184.379V39.1505ZM173.815 11.8646C172.984 11.8646 172.302 11.5638 171.763 10.971C171.223 10.3782 170.958 9.68809 170.958 8.89181C170.958 8.09553 171.223 7.42311 171.763 6.85687C172.302 6.29062 172.984 6.00749 173.815 6.00749C174.594 6.00749 175.266 6.29062 175.824 6.85687C176.381 7.42311 176.664 8.10438 176.664 8.89181C176.664 9.67924 176.381 10.3782 175.824 10.971C175.266 11.5638 174.594 11.8646 173.815 11.8646ZM177.522 5.85709C176.673 5.85709 175.974 5.55627 175.417 4.96349C174.868 4.3707 174.594 3.68058 174.594 2.8843C174.594 2.09687 174.868 1.4156 175.417 0.849359C175.965 0.283115 176.664 0 177.522 0C178.328 0 179.009 0.283115 179.584 0.849359C180.159 1.4156 180.451 2.09687 180.451 2.8843C180.451 3.68058 180.168 4.3707 179.584 4.96349C179.009 5.55627 178.319 5.85709 177.522 5.85709ZM181.185 11.8646C180.345 11.8646 179.655 11.5638 179.106 10.971C178.558 10.3782 178.292 9.68809 178.292 8.89181C178.292 8.09553 178.566 7.42311 179.106 6.85687C179.646 6.29062 180.336 6.00749 181.185 6.00749C181.973 6.00749 182.645 6.29062 183.185 6.85687C183.725 7.42311 183.999 8.10438 183.999 8.89181C183.999 9.67924 183.725 10.3782 183.185 10.971C182.645 11.5638 181.982 11.8646 181.185 11.8646Z" fill="white"/>
<path d="M8.34786 91.6519C7.1092 91.6519 6.03865 91.5192 5.1185 91.2449C4.19836 90.9706 3.43746 90.4928 2.81813 89.8027C2.1988 89.1126 1.72988 88.1836 1.41137 87.0246C1.09286 85.8656 0.933594 84.4146 0.933594 82.6893V74.0895H5.68476V82.3973C5.68476 83.981 5.85286 85.1312 6.20677 85.8479C6.56067 86.5645 7.39234 86.9273 8.72833 86.9273H30.6084C31.9443 86.9273 32.7849 86.5734 33.1299 85.8479C33.475 85.1312 33.6519 83.981 33.6519 82.3973V70.6035H38.3942V82.6185C38.3942 83.7598 38.3235 84.7685 38.173 85.6621C38.8189 86.0602 39.4825 86.3699 40.1726 86.5911C40.8627 86.8123 41.5528 86.9273 42.2518 86.9273H44.9945V91.6696H42.5437C41.3581 91.6696 40.2434 91.5103 39.2082 91.1918C38.173 90.8733 37.2263 90.4398 36.3947 89.8912C35.7488 90.5813 34.9879 91.0502 34.0943 91.298C33.2007 91.5457 32.1655 91.6696 30.98 91.6696H8.34786V91.6519ZM20.4779 103.295C19.6462 103.295 18.965 102.994 18.4253 102.402C17.8856 101.809 17.6201 101.119 17.6201 100.323C17.6201 99.5262 17.8856 98.8538 18.4253 98.2875C18.965 97.7213 19.6462 97.4382 20.4779 97.4382C21.2565 97.4382 21.9289 97.7213 22.4863 98.2875C23.0437 98.8538 23.3268 99.5351 23.3268 100.323C23.3268 101.11 23.0437 101.809 22.4863 102.402C21.9289 102.994 21.2565 103.295 20.4779 103.295Z" fill="white"/>
<path d="M52.9659 91.6524H44.9854V86.9102H52.9659V91.6524Z" fill="white"/>
<path d="M67.2812 91.6524H51.6299V86.9102H67.2812V91.6524Z" fill="white"/>
<path d="M81.5879 91.6524H65.9365V86.9102H81.5879V91.6524Z" fill="white"/>
<path d="M95.9033 91.6524H80.252V86.9102H95.9033V91.6524Z" fill="white"/>
<path d="M110.219 91.6524H94.5674V86.9102H110.219V91.6524Z" fill="white"/>
<path d="M124.534 91.6524H108.883V86.9102H124.534V91.6524Z" fill="white"/>
<path d="M123.26 102.473C122.721 101.88 122.455 101.19 122.455 100.393C122.455 99.5971 122.721 98.9158 123.26 98.3584C123.8 97.7922 124.481 97.509 125.313 97.509C126.091 97.509 126.764 97.7922 127.33 98.3584C127.887 98.9246 128.171 99.6059 128.171 100.393C128.171 101.181 127.887 101.88 127.33 102.473C126.773 103.065 126.1 103.366 125.313 103.366C124.481 103.366 123.8 103.065 123.26 102.473ZM123.198 91.6519H130.613C131.851 91.6519 132.939 91.5192 133.877 91.2449C134.815 90.9707 135.594 90.4929 136.213 89.8028C136.832 89.1127 137.301 88.1837 137.62 87.0247C137.938 85.8656 138.098 84.4146 138.098 82.6894V70.1523H133.355V82.3885C133.355 83.9723 133.169 85.1224 132.798 85.8391C132.426 86.5557 131.577 86.9185 130.241 86.9185H123.198V91.6519ZM130.613 102.473C130.064 101.88 129.799 101.19 129.799 100.393C129.799 99.5971 130.064 98.9158 130.613 98.3584C131.152 97.7922 131.851 97.509 132.692 97.509C133.479 97.509 134.152 97.7922 134.691 98.3584C135.24 98.9246 135.505 99.6059 135.505 100.393C135.505 101.181 135.231 101.88 134.691 102.473C134.152 103.065 133.479 103.366 132.692 103.366C131.851 103.366 131.152 103.065 130.613 102.473Z" fill="white"/>
<path d="M138.469 99.952C139.407 99.952 140.353 99.837 141.291 99.6158C142.229 99.3946 143.069 98.9876 143.813 98.3948C144.556 97.8021 145.149 96.9615 145.591 95.8733C146.033 94.785 146.255 93.3517 146.255 91.5733V70.1445H150.997V91.5733C150.997 94.0949 150.652 96.1829 149.962 97.8374C149.272 99.4919 148.343 100.819 147.184 101.801C146.025 102.792 144.689 103.482 143.176 103.88C141.672 104.278 140.097 104.5 138.469 104.544V99.952Z" fill="white"/>
<path d="M174.815 89.9444C174.169 90.5903 173.391 91.0326 172.479 91.2804C171.559 91.5281 170.515 91.652 169.329 91.652H156.129V86.9097H168.958C170.241 86.9097 171.072 86.5735 171.444 85.9099C171.816 85.2463 172.001 84.1227 172.001 82.539C172.001 79.8228 171.391 77.7701 170.188 76.3811C168.976 74.992 167.259 74.3019 165.038 74.3019H158.659V69.8516H164.959C167.038 69.8516 168.816 70.1612 170.294 70.7805C171.78 71.3999 173.001 72.2493 173.966 73.3375C174.93 74.4258 175.638 75.7352 176.08 77.2658C176.523 78.7965 176.744 80.4509 176.744 82.2293V82.8221C176.744 83.3618 176.744 83.875 176.744 84.3439C176.744 84.8128 176.691 85.2463 176.593 85.6445C177.239 86.0426 177.903 86.3523 178.593 86.5735C179.283 86.7947 179.982 86.9097 180.672 86.9097H182.45V91.652H180.964C179.778 91.652 178.664 91.5016 177.629 91.2096C176.593 90.9088 175.647 90.4841 174.815 89.9444Z" fill="white"/>
<path d="M181.114 86.9007H185.494C186.83 86.9007 187.679 86.5468 188.051 85.8213C188.422 85.1046 188.608 83.9544 188.608 82.3707V70.1345H193.35V82.6715C193.35 84.4057 193.191 85.8478 192.873 87.0068C192.554 88.1659 192.076 89.0949 191.466 89.785C190.847 90.4751 190.068 90.9617 189.13 91.2272C188.192 91.5014 187.104 91.6341 185.865 91.6341H181.123V86.9007H181.114ZM187.308 64.3571C186.476 64.3571 185.795 64.0563 185.264 63.4635C184.724 62.8707 184.459 62.1806 184.459 61.3843C184.459 60.588 184.724 59.9156 185.264 59.3494C185.803 58.7831 186.485 58.5 187.308 58.5C188.095 58.5 188.759 58.7831 189.325 59.3494C189.882 59.9156 190.165 60.5969 190.165 61.3843C190.165 62.1717 189.882 62.8707 189.325 63.4635C188.759 64.0563 188.086 64.3571 187.308 64.3571ZM194.686 64.3571C193.846 64.3571 193.156 64.0563 192.607 63.4635C192.068 62.8707 191.793 62.1806 191.793 61.3843C191.793 60.588 192.068 59.9156 192.607 59.3494C193.156 58.7831 193.846 58.5 194.686 58.5C195.474 58.5 196.146 58.7831 196.686 59.3494C197.226 59.9156 197.5 60.5969 197.5 61.3843C197.5 62.1717 197.226 62.8707 196.686 63.4635C196.146 64.0563 195.474 64.3571 194.686 64.3571Z" fill="white"/>
<path d="M3.46437 126.99C3.92444 128.857 5.31351 129.927 7.83507 129.927C10.5955 129.927 11.6661 128.706 11.6661 127.202C11.6661 125.628 10.8609 124.69 7.44578 123.929C3.84482 123.124 2.43805 122.035 2.43805 119.93C2.43805 117.886 4.08371 116.09 7.62274 116.09C11.3122 116.09 12.8516 118.089 13.064 119.939H11.3652C11.029 118.479 10.0027 117.373 7.54309 117.373C5.37543 117.373 4.17217 118.275 4.17217 119.815C4.17217 121.328 5.17195 121.92 8.0828 122.566C12.6658 123.593 13.4002 125.238 13.4002 127.061C13.4002 129.317 11.5776 131.184 7.73773 131.184C3.68555 131.184 2.07529 129.096 1.76562 126.99H3.46437Z" fill="white"/>
<path d="M16.9131 116.295H18.5676V122.586H27.6982V116.295H29.3528V131.017H27.6982V123.922H18.5676V131.017H16.9131V116.295Z" fill="white"/>
<path d="M35.8371 126.231L33.926 131.017H32.2627L38.1198 116.295H40.1282L46.2419 131.017H44.4635L42.4993 126.231H35.8371ZM42.0127 124.895C40.3228 120.745 39.4381 118.666 39.1019 117.622H39.0753C38.6772 118.799 37.6863 121.347 36.3237 124.895H42.0127Z" fill="white"/>
<path d="M63.0532 124.47C63.0532 121.657 63.0797 118.887 63.1505 117.383H63.0708C62.4073 119.542 59.4168 126.381 57.4526 131.017H55.9132C54.4268 127.346 51.339 119.719 50.6046 117.357H50.5427C50.6665 119.047 50.7108 122.4 50.7108 124.93V131.017H49.1094V116.295H51.5779C53.6216 121.126 56.1697 127.407 56.7537 129.168H56.7979C57.1695 127.938 60.1423 120.993 62.248 116.295H64.6634V131.017H63.0354V124.47H63.0532Z" fill="white"/>
<path d="M69.7593 126.99C70.2193 128.857 71.6084 129.927 74.13 129.927C76.8904 129.927 77.961 128.706 77.961 127.202C77.961 125.628 77.1558 124.69 73.7407 123.929C70.1397 123.124 68.7329 122.035 68.7329 119.93C68.7329 117.886 70.3786 116.09 73.9176 116.09C77.6071 116.09 79.1465 118.089 79.3589 119.939H77.6601C77.3239 118.479 76.2976 117.373 73.838 117.373C71.6704 117.373 70.4671 118.275 70.4671 119.815C70.4671 121.328 71.4668 121.92 74.3777 122.566C78.9607 123.593 79.6951 125.238 79.6951 127.061C79.6951 129.317 77.8725 131.184 74.0327 131.184C69.9805 131.184 68.3702 129.096 68.0605 126.99H69.7593Z" fill="white"/>
<path d="M92.6301 117.622H87.2861V116.295H99.655V117.622H94.3022V131.008H92.6301V117.622Z" fill="white"/>
<path d="M103.831 124.31V131.007H102.177V116.285H108.211C111.458 116.285 113.183 117.878 113.183 120.187C113.183 122.08 111.962 123.266 110.272 123.646C111.785 123.991 112.909 124.938 112.909 127.46V128.052C112.909 129.079 112.838 130.415 113.121 131.007H111.484C111.184 130.379 111.237 129.211 111.237 127.893V127.539C111.237 125.265 110.511 124.301 107.503 124.301H103.831V124.31ZM103.831 122.992H107.565C110.246 122.992 111.458 122.08 111.458 120.267C111.458 118.568 110.246 117.603 107.866 117.603H103.831V122.992Z" fill="white"/>
<path d="M118.943 126.231L117.031 131.017H115.368L121.225 116.295H123.234L129.347 131.017H127.569L125.605 126.231H118.943ZM125.118 124.895C123.428 120.745 122.544 118.666 122.207 117.622H122.181C121.783 118.799 120.792 121.347 119.429 124.895H125.118Z" fill="white"/>
<path d="M133.886 116.295V131.017H132.231V116.295H133.886Z" fill="white"/>
<path d="M138.461 131.017V116.295H140.761C143.194 119.79 148.715 127.602 149.68 129.204H149.706C149.556 127.186 149.582 124.948 149.582 122.55V116.295H151.193V131.017H149.051C146.769 127.708 141.098 119.454 140 117.817H139.974C140.089 119.63 140.08 121.94 140.08 124.603V131.017H138.461Z" fill="white"/>
<path d="M157.43 116.295V131.017H155.775V116.295H157.43Z" fill="white"/>
<path d="M162.013 131.017V116.295H164.313C166.746 119.79 172.267 127.602 173.231 129.204H173.258C173.108 127.186 173.134 124.948 173.134 122.55V116.295H174.744V131.017H172.603C170.321 127.708 164.649 119.454 163.552 117.817H163.526C163.641 119.63 163.632 121.94 163.632 124.603V131.017H162.013Z" fill="white"/>
<path d="M192.095 131.017H190.776C190.679 130.796 190.626 130.088 190.599 128.823C189.962 129.849 188.635 131.194 185.468 131.194C180.814 131.194 178.39 127.973 178.39 123.788C178.39 119.391 180.982 116.082 185.786 116.082C189.396 116.082 191.732 117.825 192.218 120.506H190.564C189.936 118.621 188.476 117.391 185.733 117.391C181.814 117.391 180.133 120.196 180.133 123.709C180.133 126.92 181.787 129.875 185.609 129.875C189.467 129.875 190.493 127.566 190.493 124.655V124.496H185.574V123.169H192.103V131.017H192.095Z" fill="white"/>
</svg>
