<svg width="85" height="86" viewBox="0 0 85 86" fill="none" xmlns="http://www.w3.org/2000/svg">
<g clip-path="url(#clip0_642_18703)">
<path d="M79.7423 15.9666H4.59385C2.11764 15.9666 0.108398 18.0195 0.108398 20.5521V65.3687C0.108398 67.9018 2.11667 69.9543 4.59385 69.9543H79.7423C82.2187 69.9543 84.2278 67.9013 84.2278 65.3687V20.5521C84.2278 18.0191 82.2196 15.9666 79.7423 15.9666ZM56.1628 66.3194C50.8956 66.3194 46.0401 64.492 42.1659 61.4361C38.2946 64.4921 33.4389 66.3194 28.1712 66.3194C15.5429 66.3194 5.26897 55.8378 5.26897 42.9584C5.26897 30.0781 15.5428 19.6018 28.1712 19.6018C33.4386 19.6018 38.2941 21.4224 42.1659 24.4827C46.0396 21.4224 50.8952 19.6018 56.1628 19.6018C68.791 19.6018 79.065 30.0785 79.065 42.9584C79.0649 55.8377 68.7904 66.3194 56.1628 66.3194Z" fill="white"/>
<path d="M23.7009 44.4544C23.475 44.4307 23.3765 44.4216 23.2215 44.4216C22.0027 44.4216 21.3887 44.8481 21.3887 45.6885C21.3887 46.2089 21.69 46.54 22.1556 46.54C23.0322 46.54 23.6619 45.6885 23.7009 44.4544Z" fill="white"/>
<path d="M59.5048 44.4544C59.2811 44.4307 59.1808 44.4216 59.0231 44.4216C57.8066 44.4216 57.1904 44.8481 57.1904 45.6885C57.1904 46.2089 57.4919 46.54 57.9623 46.54C58.8364 46.54 59.4685 45.6885 59.5048 44.4544Z" fill="white"/>
<path d="M41.1864 43.0327C41.2001 42.86 41.4122 41.5391 40.1935 41.5391C39.5134 41.5391 39.0251 42.0734 38.8291 43.0327H41.1864Z" fill="white"/>
<path d="M69.993 46.2439C70.9925 46.2439 71.6979 45.0838 71.6979 43.4323C71.6979 42.3707 71.2988 41.7966 70.5586 41.7966C69.584 41.7966 68.8926 42.9562 68.8926 44.5965C68.8925 45.6906 69.2627 46.2439 69.993 46.2439Z" fill="white"/>
<path d="M56.0913 21.697C51.4516 21.697 47.1683 23.251 43.7075 25.8733C46.8461 28.8593 49.1671 32.7368 50.2761 37.1069H48.1564C47.0703 33.2437 44.9472 29.8328 42.1123 27.2078C39.2806 29.8328 37.1559 33.2436 36.074 37.1069H33.9509C35.0625 32.7371 37.3836 28.8596 40.5221 25.8733C37.0597 23.251 32.7779 21.697 28.1362 21.697C16.6354 21.697 7.31348 31.2273 7.31348 42.9861C7.31348 54.7423 16.6363 64.2751 28.1362 64.2751C32.7781 64.2751 37.0598 62.7212 40.5221 60.0989C37.5689 57.2873 35.3411 53.685 34.1633 49.6303H36.3068C37.4456 53.1806 39.4671 56.3145 42.1122 58.7644C44.7602 56.3145 46.7845 53.1807 47.9234 49.6303H50.0662C48.8866 53.6853 46.6591 57.2872 43.7075 60.0989C47.1679 62.7211 51.4512 64.2751 56.0913 64.2751C67.591 64.2751 76.914 54.7419 76.914 42.9861C76.914 31.2266 67.5909 21.697 56.0913 21.697ZM15.8988 48.1728L17.129 40.2867L14.3835 48.1728H12.9184L12.738 40.3335L11.4465 48.1728H9.43557L11.1128 37.912H14.2029L14.2896 44.2626L16.3735 37.912H19.708L18.0464 48.1728H15.8988ZM25.904 43.7448C25.7169 44.9508 25.3174 47.5405 25.2625 48.1728H23.4823L23.5238 47.3073C22.9803 47.9907 22.2568 48.3178 21.2736 48.3178C20.1071 48.3178 19.3131 47.3869 19.3131 46.0405C19.3131 44.0058 20.6981 42.8231 23.0808 42.8231C23.325 42.8231 23.6376 42.8464 23.9572 42.8884C24.0235 42.6108 24.0395 42.4941 24.0395 42.3447C24.0395 41.7942 23.6672 41.5866 22.6631 41.5866C21.6135 41.5725 20.7461 41.841 20.3901 41.9623C20.4131 41.8224 20.6891 40.0864 20.6891 40.0864C21.7575 39.7645 22.4646 39.6431 23.2587 39.6431C25.1029 39.6431 26.0797 40.4877 26.0774 42.0883C26.0797 42.5174 26.0112 43.047 25.904 43.7448ZM31.7213 41.7428C31.1781 41.6635 30.6007 41.6166 30.181 41.6166C29.485 41.6166 29.1266 41.8454 29.1266 42.298C29.1266 42.6876 29.2317 42.781 30.1305 43.2055C31.2079 43.7122 31.6439 44.3794 31.6439 45.5294C31.6439 47.4331 30.5985 48.3176 28.3324 48.3176C27.02 48.2797 26.5865 48.1777 26.0958 48.0704L26.3924 46.1431C27.0795 46.3713 27.6775 46.4696 28.3165 46.4696C29.1676 46.4696 29.5512 46.2363 29.5512 45.7187C29.5512 45.3379 29.4165 45.2168 28.5469 44.7969C27.4101 44.2486 26.9128 43.5232 26.9128 42.4661C26.9036 40.9239 27.7343 39.6429 30.1374 39.6429C30.6282 39.6429 31.4703 39.7176 32.0273 39.8063L31.7213 41.7428ZM36.2106 41.836H35.1088C34.8621 43.4204 34.5083 45.3941 34.5037 45.66C34.5037 46.0916 34.7296 46.2781 35.2407 46.2781C35.485 46.2781 35.6742 46.2504 35.818 46.199L35.5355 48.0471C34.9459 48.2334 34.4878 48.3178 33.9899 48.3178C32.8924 48.3178 32.2942 47.6715 32.2942 46.4835C32.2808 46.1151 32.4541 45.147 32.5911 44.258C32.712 43.481 33.5197 38.5702 33.5197 38.5702H35.6539L35.4053 39.8296H36.503L36.2106 41.836ZM42.9159 44.7176H38.6662C38.5224 45.9235 39.2804 46.4277 40.5221 46.4277C41.2863 46.4277 41.9736 46.2689 42.7402 45.9051L42.3865 47.9816C41.6516 48.2105 40.9437 48.3177 40.1956 48.3177C37.8033 48.3125 36.5577 47.0367 36.5577 44.5939C36.5577 41.7426 38.1437 39.6428 40.2958 39.6428C42.0554 39.6428 43.181 40.8164 43.181 42.6642C43.181 43.2756 43.1012 43.8706 42.9159 44.7176ZM47.6813 42.1998C46.4787 42.0739 46.294 43.0703 45.5246 48.1725H43.377L43.4753 47.6107C43.8473 45.0253 44.3264 42.41 44.5961 39.8293H46.5676C46.5855 40.254 46.4923 40.6671 46.4396 41.0964C47.0953 40.1096 47.6013 39.5868 48.4985 39.7784C48.2336 40.2404 47.8753 41.1523 47.6813 42.1998ZM54.1286 48.0143C53.3389 48.2381 52.8255 48.3178 52.2322 48.3178C49.9206 48.3178 48.4797 46.6144 48.4797 43.8896C48.4797 40.2215 50.47 37.66 53.3162 37.66C54.2539 37.66 55.361 38.066 55.6759 38.1919L55.3242 40.4176C54.5574 40.0208 54.0006 39.862 53.4048 39.862C51.8009 39.862 50.6796 41.4465 50.6796 43.707C50.6796 45.2634 51.433 46.206 52.6812 46.206C53.2116 46.206 53.7955 46.0361 54.5053 45.6789L54.1286 48.0143ZM61.708 43.7448C61.5232 44.9508 61.122 47.5405 61.0667 48.1728H59.2891L59.3301 47.3073C58.7846 47.9907 58.0586 48.3178 57.0771 48.3178C55.9133 48.3178 55.1142 47.3869 55.1142 46.0405C55.1142 44.0058 56.5043 42.8231 58.8847 42.8231C59.129 42.8231 59.4417 42.8464 59.7615 42.8884C59.8269 42.6108 59.8434 42.4941 59.8434 42.3447C59.8434 41.7942 59.4714 41.5866 58.4692 41.5866C57.4174 41.5725 56.5526 41.841 56.1962 41.9623C56.2166 41.8224 56.4931 40.0864 56.4931 40.0864C57.5633 39.7645 58.2707 39.6431 59.0604 39.6431C60.9067 39.6431 61.884 40.4877 61.8813 42.0883C61.8859 42.5174 61.8154 43.047 61.708 43.7448ZM64.2963 48.1725H62.1507L62.249 47.6107C62.621 45.0253 63.0981 42.41 63.3673 39.8293H65.3393C65.3598 40.254 65.2661 40.6671 65.2138 41.0964C65.8686 40.1096 66.3711 39.5868 67.2719 39.7784C67.0028 40.2404 66.6465 41.1523 66.4549 42.1998C65.2524 42.0739 65.0655 43.0703 64.2963 48.1725ZM71.1295 48.1725L71.2318 47.3959C70.6406 48.0378 70.0361 48.3178 69.2509 48.3178C67.6895 48.3178 66.6582 46.9433 66.6582 44.8577C66.6582 42.0785 68.2575 39.7408 70.1517 39.7408C70.983 39.7408 71.6171 40.0862 72.2042 40.8772L72.6787 37.9118H74.7971L73.1623 48.1725H71.1295Z" fill="white"/>
</g>
<defs>
<clipPath id="clip0_642_18703">
<rect width="84.3903" height="84.3903" fill="white" transform="translate(0.109375 0.820068)"/>
</clipPath>
</defs>
</svg>
