<svg width="143" height="142" viewBox="0 0 143 142" fill="none" xmlns="http://www.w3.org/2000/svg">
<circle cx="71.5" cy="71" r="67.9352" stroke="url(#paint0_linear_1882_15265)" stroke-width="6.1295"/>
<g clip-path="url(#clip0_1882_15265)">
<path d="M81.9433 48.855V66.266C81.9433 81.204 61.0689 81.204 61.0689 66.266V48.855C61.0689 33.491 81.9433 33.491 81.9433 48.855ZM74.0981 90.9026V102.726C74.0673 103.392 73.7807 104.022 73.298 104.483C72.8153 104.944 72.1735 105.201 71.5061 105.201C70.8386 105.201 70.1969 104.944 69.7141 104.483C69.2314 104.022 68.9449 103.392 68.9141 102.726V90.8749C66.5292 90.5989 64.2039 89.9433 62.026 88.933C59.5926 87.8012 57.3757 86.2527 55.4754 84.3576L55.4478 84.3078C53.3506 82.2099 51.682 79.7237 50.5348 76.9882C49.392 74.2389 48.8053 71.2904 48.8087 68.3131C48.8047 67.7985 48.9545 67.2945 49.2388 66.8656C49.5231 66.4367 49.929 66.1025 50.4045 65.9057C50.88 65.709 51.4034 65.6587 51.9076 65.7614C52.4119 65.864 52.874 66.1149 53.2347 66.4818L53.2901 66.5371C53.742 67.018 53.9934 67.6532 53.9927 68.3131C53.9893 70.6031 54.4407 72.8711 55.3205 74.9854C57.1178 79.2936 60.5439 82.7177 64.8531 84.5125C66.9685 85.3925 69.2371 85.8456 71.5282 85.8456C73.8193 85.8456 76.0879 85.3925 78.2033 84.5125C80.3322 83.6244 82.2664 82.3274 83.8963 80.695L83.9405 80.6563C85.5517 79.0329 86.8331 77.1128 87.7138 75.002C88.5882 72.881 89.032 70.6072 89.0195 68.3131C89.0503 67.6464 89.3368 67.0171 89.8195 66.5562C90.3023 66.0953 90.944 65.8381 91.6115 65.8381C92.2789 65.8381 92.9207 66.0953 93.4034 66.5562C93.8861 67.0171 94.1727 67.6464 94.2035 68.3131C94.2058 71.285 93.6191 74.2278 92.4773 76.9716C91.3278 79.7321 89.6494 82.2412 87.5367 84.3576L87.4869 84.4018C85.5997 86.277 83.3998 87.8085 80.9861 88.9275C78.8061 89.937 76.479 90.5925 74.0926 90.8694L74.0981 90.9026Z" fill="black"/>
</g>
<defs>
<linearGradient id="paint0_linear_1882_15265" x1="0.5" y1="71" x2="142.5" y2="71" gradientUnits="userSpaceOnUse">
<stop stop-color="#B0398D"/>
<stop offset="1" stop-color="#CF93B7"/>
</linearGradient>
<clipPath id="clip0_1882_15265">
<rect width="45.3948" height="67.9843" fill="white" transform="translate(48.8086 37.3301)"/>
</clipPath>
</defs>
</svg>
