<svg width="40" height="40" viewBox="0 0 40 40" fill="none" xmlns="http://www.w3.org/2000/svg">
<path d="M4.12577 21.6061C4.12577 21.243 4.42362 20.9448 4.7874 20.9448C5.15117 20.9448 5.44871 21.2427 5.44871 21.6061C5.44871 21.9699 5.15116 22.2678 4.7874 22.2678C4.42332 22.2678 4.12577 21.9696 4.12577 21.6061ZM35.8758 8.09287V32.5671C35.8758 34.0289 34.6917 35.2129 33.2299 35.2129L6.77132 35.2126C5.30952 35.2126 4.12515 34.0286 4.12515 32.5668V24.2519C4.12515 23.8882 4.423 23.5903 4.78677 23.5903C5.15055 23.5903 5.44809 23.8882 5.44809 24.2519V32.5668C5.44809 33.294 6.04318 33.8897 6.77137 33.8897H33.23C33.9572 33.8897 34.5529 33.2943 34.5529 32.5668L34.5526 12.0613H5.44794V18.9598C5.44794 19.3236 5.15039 19.6215 4.78662 19.6215C4.42286 19.6215 4.125 19.3236 4.125 18.9598V8.09264C4.125 6.63358 5.3118 5.44678 6.77117 5.44678H8.09414C8.09414 5.08118 8.38986 4.78516 8.75545 4.78516C9.12106 4.78516 9.41708 5.08118 9.41708 5.44678H10.74C10.74 5.08118 11.0361 4.78516 11.4014 4.78516C11.767 4.78516 12.063 5.08118 12.063 5.44678H13.386C13.386 5.08118 13.682 4.78516 14.0476 4.78516C14.4132 4.78516 14.7089 5.08118 14.7089 5.44678H16.0319C16.0319 5.08118 16.3279 4.78516 16.6935 4.78516C17.0591 4.78516 17.3548 5.08118 17.3548 5.44678H22.6468C22.6468 5.08118 22.9429 4.78516 23.3081 4.78516C23.6737 4.78516 23.9698 5.08118 23.9698 5.44678H25.2927C25.2927 5.08118 25.5888 4.78516 25.9544 4.78516C26.32 4.78516 26.6157 5.08118 26.6157 5.44678H27.9386C27.9386 5.08118 28.2347 4.78516 28.6003 4.78516C28.9659 4.78516 29.2616 5.08118 29.2616 5.44678H30.5849C30.5849 5.08118 30.8806 4.78516 31.2462 4.78516C31.6118 4.78516 31.9078 5.08118 31.9078 5.44678H33.2308C34.6889 5.44678 35.8755 6.63334 35.8755 8.09264L35.8758 8.09287ZM5.44843 10.739H34.5531V8.09287C34.5531 7.3635 33.9595 6.7699 33.2301 6.7699H31.9069V7.43152C31.9069 7.79713 31.6108 8.09284 31.2452 8.09284C30.8796 8.09284 30.5839 7.79712 30.5839 7.43152V6.7699H29.2607V7.43152C29.2607 7.79713 28.9649 8.09284 28.5993 8.09284C28.2337 8.09284 27.9377 7.79712 27.9377 7.43152V6.7699H26.6147V7.43152C26.6147 7.79713 26.319 8.09284 25.9534 8.09284C25.5878 8.09284 25.2918 7.79712 25.2918 7.43152V6.7699H23.9688V7.43152C23.9688 7.79713 23.6728 8.09284 23.3072 8.09284C22.9419 8.09284 22.6459 7.79712 22.6459 7.43152V6.7699H17.3545V7.43152C17.3545 7.79713 17.0588 8.09284 16.6932 8.09284C16.3276 8.09284 16.0316 7.79712 16.0316 7.43152V6.7699H14.7086V7.43152C14.7086 7.79713 14.4129 8.09284 14.0473 8.09284C13.6817 8.09284 13.3856 7.79712 13.3856 7.43152V6.7699H12.0627V7.43152C12.0627 7.79713 11.7667 8.09284 11.4011 8.09284C11.0358 8.09284 10.7397 7.79712 10.7397 7.43152V6.7699H9.41677V7.43152C9.41677 7.79713 9.12075 8.09284 8.75515 8.09284C8.38955 8.09284 8.09384 7.79712 8.09384 7.43152V6.7699H6.77087C6.0415 6.7699 5.44759 7.36347 5.44759 8.09287L5.44843 10.739ZM23.3078 21.9836C23.3078 20.8892 24.198 19.999 25.2923 19.999H27.9382C29.0326 19.999 29.9227 20.8893 29.9227 21.9836V22.6452H31.2457C32.3401 22.6452 33.2302 23.5351 33.2302 24.6294V30.5828C33.2302 31.6771 32.34 32.5673 31.2457 32.5673L21.9848 32.567C20.8904 32.567 20.0005 31.6768 20.0005 30.5825V24.6291C20.0005 23.5347 20.8908 22.6449 21.9848 22.6449H23.3077L23.3078 21.9836ZM24.6308 22.6452H28.5996V21.9836C28.5996 21.6186 28.3033 21.3223 27.938 21.3223H25.2921C24.9271 21.3223 24.6308 21.6186 24.6308 21.9836L24.6308 22.6452ZM31.2458 23.9679H21.9848C21.6198 23.9679 21.3235 24.2642 21.3235 24.6292V25.2908H31.9071V24.6292C31.9071 24.2645 31.6105 23.9679 31.2458 23.9679ZM31.9071 26.6137H30.5841V27.2753C30.5841 27.6406 30.2881 27.9366 29.9225 27.9366C29.5569 27.9366 29.2609 27.6406 29.2609 27.2753V26.6137H23.9691V27.2753C23.9691 27.6406 23.6731 27.9366 23.3075 27.9366C22.9422 27.9366 22.6462 27.6406 22.6462 27.2753V26.6137H21.3232V30.5825C21.3232 30.9475 21.6196 31.2442 21.9846 31.2442H31.2455C31.6105 31.2442 31.9071 30.9475 31.9071 30.5825L31.9071 26.6137ZM8.09459 15.3692C8.45835 15.3692 8.7559 15.0713 8.7559 14.7076C8.7559 14.3438 8.45835 14.0459 8.09459 14.0459C7.73082 14.0459 7.43296 14.3438 7.43296 14.7076C7.43296 15.0713 7.73081 15.3692 8.09459 15.3692ZM12.0631 15.3692C12.4269 15.3692 12.7247 15.0713 12.7247 14.7076C12.7247 14.3438 12.4269 14.0459 12.0631 14.0459C11.6993 14.0459 11.4015 14.3438 11.4015 14.7076C11.4015 15.0713 11.6993 15.3692 12.0631 15.3692ZM16.0322 15.3692C16.396 15.3692 16.6939 15.0713 16.6939 14.7076C16.6939 14.3438 16.396 14.0459 16.0322 14.0459C15.6685 14.0459 15.3709 14.3438 15.3709 14.7076C15.3709 15.0713 15.6685 15.3692 16.0322 15.3692ZM20.0011 15.3692C20.3648 15.3692 20.6624 15.0713 20.6624 14.7076C20.6624 14.3438 20.3648 14.0459 20.0011 14.0459C19.6373 14.0459 19.3394 14.3438 19.3394 14.7076C19.3394 15.0713 19.6373 15.3692 20.0011 15.3692ZM23.9696 15.3692C24.3334 15.3692 24.6312 15.0713 24.6312 14.7076C24.6312 14.3438 24.3334 14.0459 23.9696 14.0459C23.6058 14.0459 23.308 14.3438 23.308 14.7076C23.308 15.0713 23.6058 15.3692 23.9696 15.3692ZM27.9387 15.3692C28.3025 15.3692 28.6003 15.0713 28.6003 14.7076C28.6003 14.3438 28.3025 14.0459 27.9387 14.0459C27.575 14.0459 27.2774 14.3438 27.2774 14.7076C27.2774 15.0713 27.575 15.3692 27.9387 15.3692ZM31.9076 15.3692C32.2713 15.3692 32.5689 15.0713 32.5689 14.7076C32.5689 14.3438 32.2713 14.0459 31.9076 14.0459C31.5438 14.0459 31.2459 14.3438 31.2459 14.7076C31.2459 15.0713 31.5438 15.3692 31.9076 15.3692ZM8.09505 18.6764C8.45882 18.6764 8.75637 18.3788 8.75637 18.0151C8.75637 17.6513 8.45882 17.3534 8.09505 17.3534C7.73129 17.3534 7.43343 17.6513 7.43343 18.0151C7.43343 18.3788 7.73128 18.6764 8.09505 18.6764ZM12.0636 18.6764C12.4273 18.6764 12.7252 18.3788 12.7252 18.0151C12.7252 17.6513 12.4273 17.3534 12.0636 17.3534C11.6998 17.3534 11.4019 17.6513 11.4019 18.0151C11.4023 18.3788 11.6998 18.6764 12.0636 18.6764ZM16.0327 18.6764C16.3965 18.6764 16.6943 18.3788 16.6943 18.0151C16.6943 17.6513 16.3965 17.3534 16.0327 17.3534C15.6689 17.3534 15.3714 17.6513 15.3714 18.0151C15.3711 18.3788 15.6689 18.6764 16.0327 18.6764ZM20.0015 18.6764C20.3653 18.6764 20.6629 18.3788 20.6629 18.0151C20.6629 17.6513 20.3653 17.3534 20.0015 17.3534C19.6378 17.3534 19.3399 17.6513 19.3399 18.0151C19.3399 18.3788 19.6378 18.6764 20.0015 18.6764ZM23.9701 18.6764C24.3338 18.6764 24.6317 18.3788 24.6317 18.0151C24.6317 17.6513 24.3338 17.3534 23.9701 17.3534C23.6063 17.3534 23.3084 17.6513 23.3084 18.0151C23.3087 18.3788 23.6063 18.6764 23.9701 18.6764ZM27.9392 18.6764C28.303 18.6764 28.6008 18.3788 28.6008 18.0151C28.6008 17.6513 28.303 17.3534 27.9392 17.3534C27.5754 17.3534 27.2779 17.6513 27.2779 18.0151C27.2776 18.3788 27.5754 18.6764 27.9392 18.6764ZM31.908 18.6764C32.2718 18.6764 32.5693 18.3788 32.5693 18.0151C32.5693 17.6513 32.2718 17.3534 31.908 17.3534C31.5443 17.3534 31.2464 17.6513 31.2464 18.0151C31.2467 18.3788 31.5442 18.6764 31.908 18.6764ZM8.09552 21.9839C8.45929 21.9839 8.75684 21.686 8.75684 21.3226C8.75684 20.9588 8.45929 20.6609 8.09552 20.6609C7.73176 20.6609 7.4339 20.9588 7.4339 21.3226C7.4339 21.6857 7.73175 21.9839 8.09552 21.9839ZM12.064 21.9839C12.4278 21.9839 12.7257 21.686 12.7257 21.3226C12.7257 20.9588 12.4278 20.6609 12.064 20.6609C11.7003 20.6609 11.4024 20.9588 11.4024 21.3226C11.4027 21.6857 11.7003 21.9839 12.064 21.9839ZM16.0332 21.9839C16.3969 21.9839 16.6948 21.686 16.6948 21.3226C16.6948 20.9588 16.397 20.6609 16.0332 20.6609C15.6694 20.6609 15.3719 20.9588 15.3719 21.3226C15.3716 21.6857 15.6694 21.9839 16.0332 21.9839ZM20.002 21.9839C20.3658 21.9839 20.6633 21.686 20.6633 21.3226C20.6633 20.9588 20.3658 20.6609 20.002 20.6609C19.6382 20.6609 19.3404 20.9588 19.3404 21.3226C19.3404 21.6857 19.6382 21.9839 20.002 21.9839ZM8.09576 25.9524C8.45952 25.9524 8.75707 25.6548 8.75707 25.2911C8.75707 24.9273 8.45952 24.6294 8.09576 24.6294C7.73199 24.6294 7.43413 24.9273 7.43413 25.2911C7.43413 25.6548 7.73198 25.9524 8.09576 25.9524ZM12.0643 25.9524C12.428 25.9524 12.7259 25.6548 12.7259 25.2911C12.7259 24.9273 12.428 24.6294 12.0643 24.6294C11.7005 24.6294 11.4026 24.9273 11.4026 25.2911C11.4026 25.6548 11.7005 25.9524 12.0643 25.9524ZM16.0334 25.9524C16.3972 25.9524 16.695 25.6548 16.695 25.2911C16.695 24.9273 16.3972 24.6294 16.0334 24.6294C15.6696 24.6294 15.3721 24.9273 15.3721 25.2911C15.3721 25.6548 15.6696 25.9524 16.0334 25.9524ZM8.09591 29.2599C8.09591 29.6255 8.39163 29.9215 8.75723 29.9215H15.3722C15.7378 29.9215 16.0335 29.6255 16.0335 29.2599C16.0335 28.8943 15.7378 28.5986 15.3722 28.5986H8.75754C8.39194 28.5986 8.09591 28.8943 8.09591 29.2599ZM8.75754 31.2444C8.39194 31.2444 8.09623 31.5401 8.09623 31.9057C8.09623 32.2713 8.39195 32.5674 8.75754 32.5674H12.7267C13.092 32.5674 13.388 32.2713 13.388 31.9057C13.388 31.5401 13.092 31.2444 12.7267 31.2444H8.75754Z" fill="#BF2B91"/>
</svg>
