<svg width="143" height="142" viewBox="0 0 143 142" fill="none" xmlns="http://www.w3.org/2000/svg">
<circle cx="71.5" cy="71" r="67.9352" stroke="url(#paint0_linear_473_3134)" stroke-width="6.1295"/>
<g clip-path="url(#clip0_473_3134)">
<path fill-rule="evenodd" clip-rule="evenodd" d="M51.4184 35.8934H98.8142C99.9806 35.8934 100.926 36.8392 100.926 38.0057C100.926 51.4161 100.945 59.9739 100.965 68.0939C101.045 68.1612 101.122 68.2321 101.197 68.3061L101.205 68.3145C101.858 68.9691 102.265 69.8705 102.265 70.8619V77.3157C102.265 78.3072 101.858 79.2086 101.205 79.8632L101.197 79.8714C101.131 79.9366 101.063 79.9992 100.994 80.0592C101.014 88.8488 101.031 97.0424 101.031 102.97C101.031 104.158 100.548 105.235 99.7679 106.015C98.9883 106.795 97.911 107.278 96.7231 107.278H50.9469L50.7891 107.272C50.0696 107.282 49.3969 107.284 48.7673 107.276C48.6371 107.286 48.5062 107.285 48.3764 107.271C47.7359 107.258 47.1403 107.23 46.5854 107.182L46.5162 107.176L46.475 107.172L46.396 107.165L46.3654 107.162L46.2773 107.153L46.2572 107.151C45.0058 107.023 43.9764 106.782 43.1107 106.352C40.9775 105.294 40.0761 103.538 40.0074 100.44L40.0054 100.356L40.0049 100.311L40.0036 100.203V100.18L40.0029 100.047V47.3086H40.0112C40.0106 46.4043 40.0071 45.4991 40.0141 44.5949C40.0489 40.4085 40.3611 38.0514 42.7972 36.8684C44.4693 36.0107 47.1426 35.7703 51.4184 35.9001V35.8934ZM50.7128 37.9884V105.169L50.9469 105.166H96.7231C97.9323 105.166 98.919 104.179 98.919 102.97C98.919 95.3265 98.9072 88.0626 98.8915 80.9236C98.8114 80.9286 98.7306 80.9318 98.6492 80.9318H81.5695C80.4031 80.9318 79.4573 79.986 79.4573 78.8197V69.358C79.4573 68.1915 80.4031 67.2458 81.5695 67.2458H98.6492C98.7194 67.2458 98.7893 67.2477 98.8586 67.2519C98.8353 57.7765 98.8142 48.2311 98.8142 38.0057H93.6093V57.7937C93.6085 57.8728 93.5837 57.9499 93.5384 58.0147C93.4797 58.098 93.3904 58.1546 93.29 58.1721C93.1897 58.1896 93.0865 58.1665 93.0031 58.1079L88.6555 55.0483L84.0891 58.0944C84.0325 58.1397 83.9642 58.1681 83.8922 58.1763C83.8201 58.1845 83.7472 58.1722 83.6818 58.1408C83.6164 58.1093 83.5613 58.0601 83.5227 57.9987C83.4841 57.9373 83.4636 57.8662 83.4636 57.7937V38.0057H51.4184C51.1807 37.9984 50.9429 37.9923 50.7051 37.9874V37.9884H50.7128ZM48.6006 105.171C48.2895 105.166 47.9785 105.157 47.6676 105.144C43.5794 104.978 42.1151 104.11 42.1151 99.6745V47.3086C42.1151 45.9592 42.0669 44.4566 42.1697 43.0421C42.286 41.4472 42.5216 39.7907 44.0528 38.8707L44.0891 38.8496C45.3251 38.1496 47.2093 38.0265 48.6006 37.9884V105.171ZM56.6365 54.5621C55.9558 54.5621 55.4034 54.0097 55.4034 53.3288C55.4034 52.6481 55.9558 52.0957 56.6365 52.0957H75.8127C76.4936 52.0957 77.046 52.6481 77.046 53.3288C77.0459 53.6559 76.9159 53.9695 76.6847 54.2008C76.4534 54.432 76.1398 54.562 75.8127 54.5621H56.6365ZM56.6365 48.3767C55.9558 48.3767 55.4034 47.8243 55.4034 47.1436C55.4034 46.4628 55.9558 45.9104 56.6365 45.9104H75.8127C76.1398 45.9105 76.4534 46.0404 76.6847 46.2717C76.9159 46.5029 77.0459 46.8166 77.046 47.1436C77.046 47.8243 76.4936 48.3767 75.8127 48.3767H56.6365ZM56.6369 60.7475C55.9561 60.7475 55.4036 60.1951 55.4036 59.5144C55.4036 58.8337 55.9561 58.2813 56.6369 58.2813H72.8897C73.5706 58.2813 74.123 58.8337 74.123 59.5144C74.123 60.1951 73.5706 60.7475 72.8897 60.7475H56.6369ZM81.5695 69.358H85.3056V78.8197H81.5695V69.358ZM95.7205 72.7643C96.452 72.7643 97.0449 73.3573 97.0449 74.0888C97.0449 74.2628 97.0106 74.435 96.9441 74.5957C96.8775 74.7564 96.78 74.9024 96.657 75.0254C96.534 75.1484 96.388 75.2459 96.2273 75.3125C96.0666 75.379 95.8944 75.4133 95.7205 75.4132C95.3716 75.4097 95.0381 75.2685 94.7927 75.0205C94.5472 74.7725 94.4095 74.4377 94.4095 74.0888C94.4095 73.7398 94.5472 73.405 94.7927 73.157C95.0381 72.909 95.3716 72.7679 95.7205 72.7643ZM87.295 69.358H98.6492C99.4765 69.358 100.153 70.0345 100.153 70.8619V77.3157C100.153 78.143 99.4765 78.8197 98.6492 78.8197H87.295V69.358Z" fill="black"/>
</g>
<defs>
<linearGradient id="paint0_linear_473_3134" x1="0.5" y1="71" x2="142.5" y2="71" gradientUnits="userSpaceOnUse">
<stop stop-color="#B0398D"/>
<stop offset="1" stop-color="#CF93B7"/>
</linearGradient>
<clipPath id="clip0_473_3134">
<rect width="62.2623" height="71.4157" fill="white" transform="translate(40.0029 35.8672)"/>
</clipPath>
</defs>
</svg>
