<svg width="143" height="142" viewBox="0 0 143 142" fill="none" xmlns="http://www.w3.org/2000/svg">
<circle cx="71.5" cy="71" r="67.9352" stroke="url(#paint0_linear_473_3069)" stroke-width="6.1295"/>
<g clip-path="url(#clip0_473_3069)">
<path d="M81.9443 48.8511V66.2621C81.9443 81.2001 61.0698 81.2001 61.0698 66.2621V48.8511C61.0698 33.4871 81.9443 33.4871 81.9443 48.8511ZM74.0991 90.8987V102.722C74.0683 103.389 73.7817 104.018 73.299 104.479C72.8163 104.94 72.1745 105.197 71.5071 105.197C70.8396 105.197 70.1978 104.94 69.7151 104.479C69.2324 104.018 68.9458 103.389 68.915 102.722V90.871C66.5302 90.595 64.2048 89.9394 62.027 88.9291C59.5936 87.7972 57.3767 86.2488 55.4764 84.3537L55.4487 84.3039C53.3516 82.2059 51.6829 79.7198 50.5358 76.9843C49.393 74.235 48.8063 71.2865 48.8096 68.3092C48.8057 67.7946 48.9555 67.2906 49.2398 66.8617C49.5241 66.4328 49.93 66.0986 50.4055 65.9018C50.881 65.7051 51.4044 65.6548 51.9086 65.7575C52.4128 65.8601 52.875 66.111 53.2357 66.4779L53.291 66.5332C53.743 67.014 53.9943 67.6493 53.9937 68.3092C53.9903 70.5992 54.4416 72.8672 55.3215 74.9815C57.1188 79.2897 60.5448 82.7138 64.8541 84.5086C66.9695 85.3886 69.238 85.8417 71.5292 85.8417C73.8203 85.8417 76.0889 85.3886 78.2042 84.5086C80.3332 83.6205 82.2674 82.3235 83.8973 80.6911L83.9415 80.6524C85.5527 79.029 86.834 77.1089 87.7147 74.9981C88.5892 72.8771 89.033 70.6033 89.0204 68.3092C89.0512 67.6425 89.3378 67.0132 89.8205 66.5523C90.3032 66.0914 90.945 65.8342 91.6124 65.8342C92.2799 65.8342 92.9217 66.0914 93.4044 66.5523C93.8871 67.0132 94.1736 67.6425 94.2045 68.3092C94.2068 71.281 93.6201 74.2239 92.4783 76.9677C91.3287 79.7282 89.6504 82.2373 87.5377 84.3537L87.4879 84.3979C85.6007 86.2731 83.4008 87.8046 80.9871 88.9236C78.807 89.9331 76.48 90.5886 74.0935 90.8655L74.0991 90.8987Z" fill="black"/>
</g>
<defs>
<linearGradient id="paint0_linear_473_3069" x1="0.5" y1="71" x2="142.5" y2="71" gradientUnits="userSpaceOnUse">
<stop stop-color="#B0398D"/>
<stop offset="1" stop-color="#CF93B7"/>
</linearGradient>
<clipPath id="clip0_473_3069">
<rect width="45.3948" height="67.9843" fill="white" transform="translate(48.8096 37.3281)"/>
</clipPath>
</defs>
</svg>
