<svg width="143" height="142" viewBox="0 0 143 142" fill="none" xmlns="http://www.w3.org/2000/svg">
<circle cx="71.5" cy="71" r="67.9352" stroke="url(#paint0_linear_473_3143)" stroke-width="6.1295"/>
<g clip-path="url(#clip0_473_3143)">
<path fill-rule="evenodd" clip-rule="evenodd" d="M41.8092 44.8568H54.5492L54.5324 44.6375V38.9197C54.5324 37.6434 55.8592 36.5977 57.4897 36.5977C59.1145 36.5977 60.447 37.649 60.447 38.9197V44.6375L60.4301 44.8568H82.1264L82.1096 44.6375V38.9197C82.1096 37.6434 83.4364 36.5977 85.0612 36.5977C86.6861 36.5977 88.0186 37.649 88.0186 38.9197V44.6375L88.0017 44.8568H101.557C102.136 44.8568 102.608 45.329 102.608 45.9081V56.849C102.608 57.4281 102.136 57.9004 101.557 57.9004H41.8092C41.2301 57.8948 40.7578 57.4225 40.7578 56.8434V45.9025C40.7578 45.3234 41.2301 44.8568 41.8092 44.8568ZM41.0221 60.318H102.35C102.496 60.318 102.608 60.4361 102.608 60.5766V105.42C102.608 105.56 102.49 105.678 102.35 105.678H41.0221C40.8815 105.678 40.7578 105.56 40.7578 105.42V60.5822C40.7578 60.4361 40.8759 60.318 41.0221 60.318ZM95.4456 66.2607H87.7431C87.2764 66.2607 86.8997 66.6149 86.8997 67.0478V74.2106C86.8997 74.6435 87.2764 74.9977 87.7431 74.9977H95.4512C95.9178 74.9977 96.3001 74.6435 96.3001 74.2106V67.0478C96.2945 66.6149 95.9122 66.2607 95.4456 66.2607ZM47.6395 78.7253H55.342C55.8086 78.7253 56.1909 79.0795 56.1909 79.5124V86.6752C56.1909 87.1081 55.8086 87.4623 55.342 87.4623H47.9037C47.4371 87.4623 47.0604 87.1081 47.0604 86.6752V79.2538C47.0604 78.8209 47.4427 78.4666 47.9037 78.4666L47.6395 78.7253ZM47.6395 91.1955H55.342C55.8086 91.1955 56.1909 91.5497 56.1909 91.9826V99.1453C56.1909 99.5782 55.8086 99.9324 55.342 99.9324H47.8981C47.4314 99.9324 47.0547 99.5782 47.0547 99.1453V91.9826C47.0547 91.5497 47.4371 91.1955 47.8981 91.1955H47.6395ZM47.6395 66.2607H55.342C55.8086 66.2607 56.1909 66.6149 56.1909 67.0478V74.2106C56.1909 74.6435 55.8086 74.9977 55.342 74.9977H47.8981C47.4314 74.9977 47.0547 74.6435 47.0547 74.2106V67.0478C47.0547 66.6149 47.4371 66.2607 47.8981 66.2607H47.6395ZM61.0092 66.2607H68.7173C69.184 66.2607 69.5607 66.6149 69.5607 67.0478V74.2106C69.5607 74.6435 69.1784 74.9977 68.7173 74.9977H61.0092C60.5426 74.9977 60.1602 74.6435 60.1602 74.2106V67.0478C60.1602 66.6149 60.5426 66.2607 61.0092 66.2607ZM61.0092 78.7253H68.7173C69.184 78.7253 69.5607 79.0795 69.5607 79.5124V86.6752C69.5607 87.1081 69.1784 87.4623 68.7173 87.4623H61.0092C60.5426 87.4623 60.1602 87.1081 60.1602 86.6752V79.2538C60.1602 78.8209 60.5426 78.4666 61.0092 78.4666V78.7253ZM61.0092 91.1955H68.7173C69.184 91.1955 69.5607 91.5497 69.5607 91.9826V99.1453C69.5607 99.5782 69.1784 99.9324 68.7173 99.9324H61.0092C60.5426 99.9324 60.1602 99.5782 60.1602 99.1453V91.9826C60.1602 91.5497 60.5426 91.1955 61.0092 91.1955ZM74.3733 66.2607H82.0814C82.5481 66.2607 82.9304 66.6149 82.9304 67.0478V74.2106C82.9304 74.6435 82.5481 74.9977 82.0814 74.9977H74.3733C73.9067 74.9977 73.5244 74.6435 73.5244 74.2106V67.0478C73.53 66.6149 73.9067 66.2607 74.3733 66.2607ZM74.3733 78.7253H82.0814C82.5481 78.7253 82.9304 79.0795 82.9304 79.5124V86.6752C82.9304 87.1081 82.5481 87.4623 82.0814 87.4623H74.3733C73.9067 87.4623 73.5244 87.1081 73.5244 86.6752V79.2538C73.5244 78.8209 73.9067 78.4666 74.3733 78.4666V78.7253ZM95.4456 78.7253H87.7431C87.2764 78.7253 86.8997 79.0795 86.8997 79.5124V86.6752C86.8997 87.1081 87.2764 87.4623 87.7431 87.4623H95.4512C95.9178 87.4623 96.3001 87.1081 96.3001 86.6752V79.2481C96.3001 78.8152 95.9178 78.461 95.4512 78.461L95.4456 78.7253ZM95.4456 91.1955H87.7431C87.2764 91.1955 86.8997 91.5497 86.8997 91.9826V99.1453C86.8997 99.5782 87.2764 99.9324 87.7431 99.9324H95.4512C95.9178 99.9324 96.3001 99.5782 96.3001 99.1453V91.7183C96.3001 91.2854 95.9178 90.9312 95.4512 90.9312L95.4456 91.1955ZM74.3733 91.1955H82.0814C82.5481 91.1955 82.9304 91.5497 82.9304 91.9826V99.1453C82.9304 99.5782 82.5481 99.9324 82.0814 99.9324H74.3733C73.9067 99.9324 73.5244 99.5782 73.5244 99.1453V91.9826C73.53 91.5497 73.9067 91.1955 74.3733 91.1955ZM44.699 63.4215H99.19C99.4823 63.4215 99.7185 63.6689 99.7185 63.95V102.052C99.7185 102.333 99.4711 102.581 99.19 102.581H44.1761C43.895 102.581 43.6477 102.344 43.6477 102.052V64.4728C43.6477 63.8937 44.1199 63.4215 44.699 63.4215ZM85.0612 53.1271C86.6861 53.1271 88.0186 52.0757 88.0186 50.8051V45.0929L88.0017 44.8624H82.1264L82.1096 45.0929V50.8051C82.1096 52.0814 83.4364 53.1271 85.0612 53.1271ZM57.4897 53.1271C59.1145 53.1271 60.447 52.0757 60.447 50.8051V45.0929L60.4301 44.8624H54.5492L54.5324 45.0929V50.8051C54.5324 52.0814 55.8592 53.1271 57.4897 53.1271Z" fill="black"/>
</g>
<defs>
<linearGradient id="paint0_linear_473_3143" x1="0.5" y1="71" x2="142.5" y2="71" gradientUnits="userSpaceOnUse">
<stop stop-color="#B0398D"/>
<stop offset="1" stop-color="#CF93B7"/>
</linearGradient>
<clipPath id="clip0_473_3143">
<rect width="61.8505" height="69.0864" fill="white" transform="translate(40.7578 36.5977)"/>
</clipPath>
</defs>
</svg>
