<svg width="143" height="142" viewBox="0 0 143 142" fill="none" xmlns="http://www.w3.org/2000/svg">
<circle cx="71.5" cy="71" r="67.9352" stroke="url(#paint0_linear_473_3126)" stroke-width="6.1295"/>
<g clip-path="url(#clip0_473_3126)">
<path d="M71.2792 79.1872C70.5848 79.1891 69.8915 79.1313 69.207 79.0145C68.1308 78.7135 67.1273 78.1959 66.2581 77.4935C66.0589 77.3341 65.8729 77.1614 65.6869 76.9821C64.9448 76.242 64.3571 75.3618 63.958 74.3927C63.559 73.4235 63.3565 72.3847 63.3623 71.3367C63.3658 69.2226 64.2008 67.1948 65.6869 65.6912C66.427 64.949 67.3072 64.3614 68.2763 63.9623C69.2455 63.5632 70.2843 63.3607 71.3324 63.3666C73.4464 63.3701 75.4743 64.2051 76.9778 65.6912C78.136 66.8573 78.9071 68.3517 79.1864 69.9713C79.4656 71.5909 79.2395 73.2572 78.5386 74.7439C77.9155 76.1284 76.8896 77.293 75.5946 78.0857C74.2996 78.8783 72.7957 79.2622 71.2792 79.1872ZM46.2333 92.7429C46.774 93.3747 47.05 94.1908 47.0038 95.021C46.9526 95.8594 46.5817 96.6463 45.9677 97.2194L45.868 97.3058C45.236 97.8505 44.4162 98.127 43.5833 98.0762C42.7498 98.0261 41.9675 97.6575 41.3982 97.0467L41.2919 96.9139C37.9206 93.1861 35.1772 88.9354 33.1691 84.3279C31.3718 80.1929 30.4666 75.7255 30.5124 71.2171C30.6121 66.6859 31.662 62.2261 33.5942 58.1263C35.7654 53.553 38.6684 49.3646 42.1885 45.7262L42.2749 45.6399C42.8637 45.0712 43.6419 44.74 44.46 44.71C44.8847 44.6954 45.3081 44.7661 45.7051 44.9178C46.102 45.0695 46.4646 45.2992 46.7713 45.5934L46.8444 45.6731C47.4177 46.2567 47.7518 47.0339 47.7809 47.8515C47.7949 48.2752 47.724 48.6974 47.5723 49.0932C47.4206 49.4891 47.1912 49.8505 46.8975 50.1562L46.851 50.2094C43.8818 53.2987 41.4165 56.8354 39.5451 60.69C37.9449 64.0094 37.073 67.6327 36.9881 71.3167C36.95 74.993 37.6854 78.6362 39.1466 82.0099C40.8559 85.8308 43.1529 89.3605 45.9544 92.4706C46.0245 92.5136 46.0892 92.5649 46.147 92.6234L46.2333 92.7163V92.7429ZM58.3611 83.0128C58.8401 83.6602 59.0604 84.4631 58.9788 85.2643C58.938 85.6823 58.8142 86.088 58.6147 86.4575C58.4151 86.827 58.1437 87.153 57.8165 87.4162L57.6903 87.5159C57.042 87.9932 56.2398 88.2132 55.4388 88.1336C55.0196 88.0937 54.6127 87.9703 54.242 87.7707C53.8712 87.571 53.5442 87.2992 53.2802 86.9713L53.2204 86.8982C51.3548 84.6304 49.8515 82.0875 48.7638 79.3598C47.7521 76.7933 47.223 74.0621 47.203 71.3034C47.195 68.5764 47.702 65.8723 48.6974 63.3334C49.7833 60.5985 51.2941 58.0522 53.1739 55.7884C53.7094 55.1226 54.4875 54.6967 55.337 54.6045C56.1864 54.5124 57.0377 54.7614 57.7036 55.2969C58.3694 55.8324 58.7953 56.6105 58.8874 57.4599C58.9796 58.3094 58.7306 59.1607 58.1951 59.8266V59.8598C56.781 61.5577 55.6384 63.4643 54.8078 65.5119C53.2761 69.2141 53.2761 73.3729 54.8078 77.0751C55.6612 79.1683 56.8256 81.1208 58.2615 82.8667L58.3744 83.0327L58.3611 83.0128ZM101.26 97.0268C100.686 97.6325 99.9016 97.996 99.0682 98.043C98.6456 98.0713 98.2216 98.0135 97.8221 97.873C97.4225 97.7326 97.0556 97.5125 96.7436 97.2261C96.4266 96.9443 96.1684 96.6027 95.9837 96.2209C95.7991 95.8391 95.6917 95.4245 95.6676 95.0011C95.6443 94.582 95.7045 94.1624 95.8448 93.7668C95.985 93.3711 96.2025 93.0073 96.4846 92.6964L96.5244 92.6499C99.3932 89.5017 101.739 85.9139 103.472 82.0232C104.966 78.6186 105.72 74.9352 105.683 71.2171C105.596 67.5326 104.722 63.9093 103.12 60.5904C101.239 56.7335 98.7576 53.2002 95.7673 50.123L95.6876 50.0367C95.1316 49.4239 94.8361 48.6187 94.864 47.7918C94.8969 46.9469 95.2508 46.1464 95.8536 45.5535L95.9399 45.4738C96.5527 44.9178 97.3579 44.6224 98.1848 44.6502C99.0297 44.6832 99.8302 45.0371 100.423 45.6399L100.503 45.7196C103.997 49.3491 106.883 53.5182 109.051 58.0665C110.974 62.1617 112.019 66.6141 112.119 71.1374C112.164 75.6607 111.259 80.1431 109.462 84.2946C107.489 88.831 104.798 93.0202 101.492 96.7014C101.433 96.8162 101.357 96.9214 101.267 97.0135L101.26 97.0268ZM89.192 87.1904C88.7639 87.6255 88.221 87.93 87.6266 88.0684C87.0321 88.2069 86.4106 88.1736 85.8344 87.9725C85.2581 87.7713 84.7509 87.4106 84.3717 86.9323C83.9925 86.4541 83.757 85.8779 83.6926 85.271C83.6476 84.8504 83.686 84.425 83.8057 84.0192C83.9253 83.6135 84.1239 83.2354 84.39 82.9065V82.8733C85.8208 81.1494 86.9788 79.2164 87.8238 77.1415C89.3424 73.4206 89.3424 69.2527 87.8238 65.5318V65.4787C86.9921 63.4458 85.8493 61.5547 84.4365 59.8731L84.3369 59.7535C83.863 59.1063 83.6453 58.3067 83.7258 57.5086C83.7651 57.0902 83.8883 56.6841 84.088 56.3143C84.2877 55.9446 84.5598 55.6189 84.8881 55.3567L84.9745 55.277C85.6322 54.7692 86.4589 54.5317 87.2858 54.6128C87.705 54.6553 88.1116 54.7806 88.4821 54.9812C88.8526 55.1818 89.1796 55.4539 89.4443 55.7818L89.4908 55.8415C91.3596 58.0925 92.8593 60.6257 93.9341 63.3467C94.934 65.8845 95.4434 68.589 95.4352 71.3167C95.4151 74.0689 94.8859 76.7936 93.8744 79.3532C92.7755 82.1043 91.2589 84.6693 89.3779 86.958C89.321 87.0248 89.2588 87.087 89.192 87.1439V87.1904Z" fill="black"/>
</g>
<defs>
<linearGradient id="paint0_linear_473_3126" x1="0.5" y1="71" x2="142.5" y2="71" gradientUnits="userSpaceOnUse">
<stop stop-color="#B0398D"/>
<stop offset="1" stop-color="#CF93B7"/>
</linearGradient>
<clipPath id="clip0_473_3126">
<rect width="81.6134" height="53.4326" fill="white" transform="translate(30.5107 44.6484)"/>
</clipPath>
</defs>
</svg>
