<svg width="143" height="142" viewBox="0 0 143 142" fill="none" xmlns="http://www.w3.org/2000/svg">
<circle cx="71.5" cy="71" r="67.9352" stroke="url(#paint0_linear_473_3116)" stroke-width="6.1295"/>
<g clip-path="url(#clip0_473_3116)">
<path fill-rule="evenodd" clip-rule="evenodd" d="M41.1237 37.3281H102.266C103.069 37.3281 103.727 37.9858 103.727 38.7888V78.6807C103.727 79.005 103.622 79.3014 103.442 79.5437H103.597C103.714 79.5383 103.83 79.5668 103.931 79.626C104.033 79.6851 104.115 79.7724 104.168 79.8771L114.648 100.697C115.46 102.307 115.118 105.174 112.965 105.393H30.3827C28.4815 105.139 27.8787 102.321 28.6255 100.832L39.141 79.8905C39.1894 79.7846 39.2671 79.6949 39.365 79.632C39.4628 79.5691 39.5767 79.5355 39.6931 79.5354H39.9418C39.7609 79.2872 39.6635 78.9879 39.6636 78.6807V38.7888C39.6636 37.9853 40.3207 37.3281 41.1237 37.3281ZM63.4158 94.0893H78.3468C79.2195 94.0893 79.7946 94.8003 79.9139 95.6153L80.6455 100.628L80.6594 100.81C80.6594 101.179 80.4954 101.512 80.2395 101.764C79.9857 102.012 79.6606 102.173 79.3103 102.225C79.2328 102.237 79.1546 102.243 79.079 102.243H62.6842C62.6118 102.243 62.5349 102.237 62.4568 102.226C61.7539 102.124 61.1061 101.554 61.1053 100.81C61.1043 100.749 61.1084 100.689 61.1177 100.628L61.8493 95.6167C61.9677 94.8035 62.5429 94.0893 63.4158 94.0893ZM42.5983 82.2771H100.838C101.708 82.2771 102.033 82.9544 102.366 83.6539L105.995 91.2181C106.059 91.3503 106.089 91.4843 106.089 91.6169C106.089 91.8707 105.981 92.1087 105.809 92.3113C105.655 92.4933 105.441 92.6493 105.21 92.7608C104.96 92.8814 104.682 92.9527 104.422 92.9527H38.9678C38.7044 92.9527 38.4217 92.8795 38.1689 92.7567C37.94 92.6447 37.73 92.4895 37.5767 92.3081C37.4078 92.1079 37.3019 91.8707 37.3014 91.6183C37.301 91.479 37.3331 91.3415 37.3952 91.2168L41.0809 83.6354C41.4143 82.9434 41.7358 82.2771 42.5983 82.2771ZM81.4385 89.9533C81.6361 89.9533 81.7524 90.118 81.7894 90.3082L81.9156 90.9598C81.9524 91.15 81.7452 91.3144 81.5495 91.3144H56.5379C56.3402 91.3144 56.2302 91.1555 56.2932 90.9598L56.5033 90.3082C56.5663 90.1131 56.7786 89.9533 56.9761 89.9533H81.4385ZM75.6914 87.9934H72.479C72.4329 87.993 72.3872 88.0019 72.3446 88.0197C72.302 88.0375 72.2636 88.0638 72.2315 88.097C72.1995 88.1302 72.1746 88.1696 72.1583 88.2127C72.142 88.2559 72.1347 88.3019 72.1368 88.348L72.1668 89.0001C72.1756 89.1949 72.344 89.3546 72.5417 89.3546H75.7539C75.8 89.3552 75.8457 89.3462 75.8883 89.3284C75.9308 89.3106 75.9692 89.2843 76.0012 89.2511C76.0332 89.2179 76.0581 89.1785 76.0743 89.1353C76.0906 89.0922 76.0978 89.0461 76.0956 89.0001L76.0657 88.348C76.0574 88.1532 75.8875 87.9934 75.6914 87.9934ZM75.4186 85.937H72.479C72.4329 85.9364 72.3871 85.9453 72.3445 85.9631C72.3019 85.9809 72.2634 86.0072 72.2314 86.0404C72.1993 86.0736 72.1744 86.113 72.1581 86.1562C72.1419 86.1994 72.1346 86.2455 72.1368 86.2916L72.1668 86.9436C72.1756 87.1388 72.344 87.2982 72.5417 87.2982H75.4813C75.5274 87.2988 75.5732 87.2899 75.6158 87.2721C75.6584 87.2543 75.6969 87.228 75.7289 87.1948C75.761 87.1616 75.7859 87.1222 75.8022 87.079C75.8184 87.0358 75.8257 86.9897 75.8235 86.9436L75.7935 86.2916C75.7844 86.0967 75.6163 85.937 75.4186 85.937ZM86.413 89.9533H83.4733C83.2763 89.9533 83.1662 90.1131 83.2294 90.3082L83.4392 90.9598C83.5024 91.1555 83.7147 91.3144 83.9122 91.3144H86.8515C87.049 91.3144 87.1589 91.1555 87.0959 90.9598L86.886 90.3082C86.8228 90.1131 86.6106 89.9533 86.413 89.9533ZM91.382 89.9533H88.4429C88.2454 89.9533 88.1358 90.1131 88.1983 90.3082L88.4088 90.9598C88.4719 91.1555 88.6841 91.3144 88.8817 91.3144H91.8212C92.0184 91.3144 92.128 91.1555 92.0654 90.9598L91.8549 90.3082C91.7928 90.1131 91.5797 89.9533 91.382 89.9533ZM96.741 89.9533H93.8018C93.6043 89.9533 93.4943 90.1131 93.5573 90.3082L93.7674 90.9598C93.8304 91.1555 94.0427 91.3144 94.2402 91.3144H97.18C97.377 91.3144 97.4871 91.1555 97.4239 90.9598L97.214 90.3082C97.1508 90.1131 96.9386 89.9533 96.741 89.9533ZM101.701 89.9533H98.7621C98.5645 89.9533 98.4544 90.1131 98.5176 90.3082L98.7275 90.9598C98.7907 91.1555 99.003 91.3144 99.2005 91.3144H102.14C102.337 91.3144 102.447 91.1555 102.384 90.9598L102.174 90.3082C102.112 90.1131 101.899 89.9533 101.701 89.9533ZM80.873 87.9133H77.6119C77.4154 87.9133 77.2804 88.0736 77.3139 88.2679L77.4264 88.9194C77.4595 89.1143 77.6484 89.2745 77.8454 89.2745H81.107C81.3045 89.2745 81.4375 89.1153 81.405 88.9194L81.293 88.2679C81.2598 88.0727 81.0692 87.9133 80.873 87.9133ZM85.9148 87.9133H82.9751C82.778 87.9133 82.6684 88.0727 82.7311 88.2679L82.9415 88.9194C83.004 89.1153 83.2168 89.2745 83.4143 89.2745H86.3536C86.5511 89.2745 86.6607 89.1153 86.5982 88.9194L86.3876 88.2679C86.3246 88.0727 86.1123 87.9133 85.9148 87.9133ZM90.8925 87.9133H87.953C87.7554 87.9133 87.6453 88.0727 87.7083 88.2679L87.9182 88.9194C87.9814 89.1153 88.1942 89.2745 88.3912 89.2745H91.331C91.528 89.2745 91.6381 89.1153 91.5754 88.9194L91.365 88.2679C91.3023 88.0727 91.0897 87.9133 90.8925 87.9133ZM95.897 87.9133H92.9573C92.7598 87.9133 92.6496 88.0727 92.7128 88.2679L92.9227 88.9194C92.9859 89.1153 93.1987 89.2745 93.3957 89.2745H96.3355C96.5325 89.2745 96.6426 89.1153 96.5799 88.9194L96.3695 88.2679C96.3068 88.0727 96.0941 87.9133 95.897 87.9133ZM100.755 87.9133H97.8154C97.6179 87.9133 97.5083 88.0727 97.5708 88.2679L97.7809 88.9194C97.8439 89.1153 98.0566 89.2745 98.2537 89.2745H101.193C101.391 89.2745 101.501 89.1153 101.438 88.9194L101.228 88.2679C101.165 88.0727 100.952 87.9133 100.755 87.9133ZM80.4016 85.937H77.3319C77.1357 85.937 77.0009 86.0976 77.0341 86.2916L77.1464 86.9436C77.1801 87.1379 77.3683 87.2982 77.5659 87.2982H80.6354C80.8331 87.2982 80.9661 87.1388 80.9328 86.9436L80.8215 86.2916C80.7883 86.0967 80.5978 85.937 80.4016 85.937ZM85.2365 85.937H82.2968C82.0997 85.937 81.9896 86.0967 82.0528 86.2916L82.2627 86.9436C82.3259 87.1388 82.5382 87.2982 82.7357 87.2982H85.6749C85.8725 87.2982 85.9824 87.1388 85.9194 86.9436L85.7095 86.2916C85.6463 86.0967 85.434 85.937 85.2365 85.937ZM90.1673 85.937H87.2276C87.0305 85.937 86.9204 86.0967 86.9836 86.2916L87.1935 86.9436C87.2562 87.1388 87.469 87.2982 87.666 87.2982H90.6057C90.8033 87.2982 90.9132 87.1388 90.8502 86.9436L90.6403 86.2916C90.5771 86.0967 90.3648 85.937 90.1673 85.937ZM95.1067 85.937H92.1677C91.97 85.937 91.86 86.0967 91.923 86.2916L92.1331 86.9436C92.1961 87.1388 92.4084 87.2982 92.6059 87.2982H95.5457C95.7427 87.2982 95.8528 87.1388 95.7898 86.9436L95.5797 86.2916C95.5171 86.0967 95.3043 85.937 95.1067 85.937ZM99.8641 85.937H96.9243C96.7268 85.937 96.6172 86.0967 96.6799 86.2916L96.8898 86.9436C96.953 87.1388 97.1656 87.2982 97.3628 87.2982H100.302C100.5 87.2982 100.609 87.1388 100.547 86.9436L100.337 86.2916C100.274 86.0967 100.061 85.937 99.8641 85.937ZM79.8996 83.9154H76.9599C76.7629 83.9154 76.6289 84.0749 76.6624 84.27L76.7744 84.9221C76.8079 85.1172 76.9966 85.2766 77.1938 85.2766H80.1336C80.3311 85.2766 80.4646 85.1172 80.4311 84.9221L80.3196 84.27C80.2859 84.0749 80.0972 83.9154 79.8996 83.9154ZM84.6448 83.9154H81.7055C81.508 83.9154 81.398 84.0749 81.4611 84.27L81.671 84.9221C81.7341 85.1172 81.9464 85.2766 82.1439 85.2766H85.0837C85.2807 85.2766 85.3908 85.1172 85.3276 84.9221L85.1177 84.27C85.0551 84.0749 84.8423 83.9154 84.6448 83.9154ZM89.4753 83.9154H86.5355C86.338 83.9154 86.2279 84.0749 86.2911 84.27L86.501 84.9221C86.5642 85.1172 86.7768 85.2766 86.9739 85.2766H89.9135C90.1107 85.2766 90.2207 85.1172 90.1582 84.9221L89.9476 84.27C89.8851 84.0749 89.6723 83.9154 89.4753 83.9154ZM94.2687 83.9154H91.3291C91.1316 83.9154 91.0215 84.0749 91.0846 84.27L91.2945 84.9221C91.3576 85.1172 91.5703 85.2766 91.7675 85.2766H94.7071C94.9043 85.2766 95.0142 85.1172 94.9517 84.9221L94.7412 84.27C94.6786 84.0749 94.4659 83.9154 94.2687 83.9154ZM98.8685 83.9154H95.9287C95.7312 83.9154 95.6217 84.0749 95.6843 84.27L95.8943 84.9221C95.9573 85.1172 96.1701 85.2766 96.3671 85.2766H99.3069C99.5044 85.2766 99.614 85.1172 99.5513 84.9221L99.3414 84.27C99.2783 84.0749 99.0655 83.9154 98.8685 83.9154ZM75.4186 83.9154H72.479C72.4329 83.9149 72.3871 83.9237 72.3445 83.9415C72.3019 83.9593 72.2634 83.9856 72.2313 84.0188C72.1993 84.052 72.1743 84.0914 72.1581 84.1346C72.1418 84.1778 72.1346 84.2239 72.1368 84.27L72.1668 84.9221C72.1756 85.1172 72.344 85.2766 72.5417 85.2766H75.4813C75.5274 85.2772 75.5732 85.2683 75.6158 85.2505C75.6584 85.2328 75.6969 85.2065 75.7289 85.1732C75.761 85.14 75.7859 85.1006 75.8022 85.0574C75.8184 85.0142 75.8257 84.9682 75.8235 84.9221L75.7935 84.27C75.7844 84.0749 75.6163 83.9154 75.4186 83.9154ZM52.0072 89.9533H54.9464C55.144 89.9533 55.2536 90.1131 55.1904 90.3082L54.9805 90.9598C54.9173 91.1555 54.705 91.3144 54.5075 91.3144H51.5678C51.3707 91.3144 51.2608 91.1555 51.3238 90.9598L51.5342 90.3082C51.5964 90.1131 51.8092 89.9533 52.0072 89.9533ZM46.6481 89.9533H49.5874C49.7849 89.9533 49.895 90.1131 49.8318 90.3082L49.6219 90.9598C49.5587 91.1555 49.3465 91.3144 49.1489 91.3144H46.2092C46.0122 91.3144 45.9022 91.1555 45.9653 90.9598L46.1752 90.3082C46.2383 90.1131 46.4506 89.9533 46.6481 89.9533ZM41.6879 89.9533H44.6271C44.8246 89.9533 44.9347 90.1131 44.8716 90.3082L44.6617 90.9598C44.5985 91.1555 44.3862 91.3144 44.1887 91.3144H41.2489C41.0519 91.3144 40.9418 91.1555 41.005 90.9598L41.2149 90.3082C41.2776 90.1131 41.4903 89.9533 41.6879 89.9533ZM67.6592 87.9133H70.9345C71.1317 87.9133 71.2767 88.0731 71.2583 88.2679L71.1937 88.9194C71.1749 89.1148 70.9972 89.2745 70.8 89.2745H67.5247C67.3282 89.2745 67.1816 89.1153 67.2011 88.9194L67.2655 88.2679C67.2848 88.0727 67.4617 87.9133 67.6592 87.9133ZM62.5161 87.9133H65.4559C65.6529 87.9133 65.7869 88.0727 65.7533 88.2679L65.641 88.9194C65.6078 89.1153 65.4189 89.2745 65.2219 89.2745H62.2822C62.0846 89.2745 61.9511 89.1153 61.9843 88.9194L62.0962 88.2679C62.1299 88.0727 62.3186 87.9133 62.5161 87.9133ZM57.4744 87.9133H60.4141C60.6111 87.9133 60.7207 88.0727 60.658 88.2679L60.4476 88.9194C60.385 89.1153 60.1724 89.2745 59.9748 89.2745H57.0356C56.8381 89.2745 56.7284 89.1153 56.791 88.9194L57.0015 88.2679C57.064 88.0727 57.2768 87.9133 57.4744 87.9133ZM52.4966 87.9133H55.4364C55.6339 87.9133 55.7438 88.0727 55.6808 88.2679L55.4708 88.9194C55.4077 89.1153 55.1951 89.2745 54.9979 89.2745H52.0582C51.8612 89.2745 51.7511 89.1153 51.8137 88.9194L52.0241 88.2679C52.0868 88.0727 52.2996 87.9133 52.4966 87.9133ZM47.4921 87.9133H50.4319C50.6294 87.9133 50.7395 88.0727 50.6763 88.2679L50.4664 88.9194C50.4032 89.1153 50.1906 89.2745 49.9934 89.2745H47.0539C46.8567 89.2745 46.7466 89.1153 46.8092 88.9194L47.0197 88.2679C47.0823 88.0727 47.2951 87.9133 47.4921 87.9133ZM42.6342 87.9133H45.5738C45.7713 87.9133 45.8811 88.0727 45.8184 88.2679L45.6083 88.9194C45.5453 89.1153 45.3325 89.2745 45.1355 89.2745H42.1957C41.9982 89.2745 41.8886 89.1153 41.9513 88.9194L42.1612 88.2679C42.2242 88.0727 42.437 87.9133 42.6342 87.9133ZM67.835 85.937H70.9345C71.1321 85.937 71.2767 86.0973 71.2583 86.2916L71.1937 86.9436C71.1749 87.1384 70.9972 87.2982 70.8005 87.2982H67.7007C67.5035 87.2982 67.358 87.1388 67.377 86.9436L67.4413 86.2916C67.4608 86.0967 67.6375 85.937 67.835 85.937ZM62.9878 85.937H65.9273C66.1245 85.937 66.2585 86.0967 66.2248 86.2916L66.1125 86.9436C66.0793 87.1388 65.8906 87.2982 65.6934 87.2982H62.7538C62.5563 87.2982 62.4226 87.1388 62.4563 86.9436L62.5678 86.2916C62.6013 86.0967 62.7902 85.937 62.9878 85.937ZM58.1527 85.937H61.0924C61.2894 85.937 61.3995 86.0967 61.3364 86.2916L61.1265 86.9436C61.0633 87.1388 60.851 87.2982 60.6535 87.2982H57.7142C57.5167 87.2982 57.4066 87.1388 57.4698 86.9436L57.6797 86.2916C57.7429 86.0967 57.9551 85.937 58.1527 85.937ZM53.2219 85.937H56.1616C56.3586 85.937 56.4687 86.0967 56.4057 86.2916L56.1957 86.9436C56.133 87.1388 55.9202 87.2982 55.7232 87.2982H52.7836C52.5859 87.2982 52.476 87.1388 52.539 86.9436L52.7489 86.2916C52.8121 86.0967 53.0243 85.937 53.2219 85.937ZM48.2824 85.937H51.2215C51.419 85.937 51.5291 86.0967 51.4661 86.2916L51.256 86.9436C51.193 87.1388 50.9808 87.2982 50.7832 87.2982H47.8435C47.6465 87.2982 47.5363 87.1388 47.5994 86.9436L47.8094 86.2916C47.8721 86.0967 48.0847 85.937 48.2824 85.937ZM43.5251 85.937H46.4648C46.6624 85.937 46.772 86.0967 46.7093 86.2916L46.4994 86.9436C46.4364 87.1388 46.2236 87.2982 46.0264 87.2982H43.0868C42.8893 87.2982 42.7797 87.1388 42.8424 86.9436L43.0523 86.2916C43.1153 86.0967 43.3281 85.937 43.5251 85.937ZM67.995 83.9154H70.9345C71.1321 83.9154 71.2772 84.0749 71.2583 84.27L71.1937 84.9221C71.1744 85.1172 70.9977 85.2766 70.8 85.2766H67.861C67.6634 85.2766 67.5179 85.1172 67.5372 84.9221L67.6016 84.27C67.6206 84.0749 67.7978 83.9154 67.995 83.9154ZM63.4895 83.9154H66.4293C66.6263 83.9154 66.7603 84.0749 66.7268 84.27L66.6144 84.9221C66.5812 85.1172 66.3923 85.2766 66.1953 85.2766H63.2556C63.0581 85.2766 62.9246 85.1172 62.9583 84.9221L63.0696 84.27C63.1033 84.0749 63.292 83.9154 63.4895 83.9154ZM58.7444 83.9154H61.6836C61.8812 83.9154 61.9911 84.0749 61.9281 84.27L61.718 84.9221C61.655 85.1172 61.4427 85.2766 61.2452 85.2766H58.3056C58.1084 85.2766 57.9985 85.1172 58.0615 84.9221L58.2714 84.27C58.3341 84.0749 58.5469 83.9154 58.7444 83.9154ZM53.9139 83.9154H56.8536C57.0512 83.9154 57.1613 84.0749 57.0981 84.27L56.8882 84.9221C56.8252 85.1172 56.6124 85.2766 56.4154 85.2766H53.4756C53.2786 85.2766 53.1685 85.1172 53.2312 84.9221L53.4414 84.27C53.5041 84.0749 53.7169 83.9154 53.9139 83.9154ZM49.1203 83.9154H52.0601C52.2576 83.9154 52.3677 84.0749 52.3045 84.27L52.0946 84.9221C52.0316 85.1172 51.8188 85.2766 51.6218 85.2766H48.6821C48.485 85.2766 48.3749 85.1172 48.4376 84.9221L48.648 84.27C48.7105 84.0749 48.9233 83.9154 49.1203 83.9154ZM44.5207 83.9154H47.4605C47.658 83.9154 47.7676 84.0749 47.7049 84.27L47.495 84.9221C47.4318 85.1172 47.219 85.2766 47.022 85.2766H44.0823C43.8847 85.2766 43.7751 85.1172 43.8378 84.9221L44.0479 84.27C44.1109 84.0749 44.3237 83.9154 44.5207 83.9154ZM100.838 82.8868H42.5983C42.1161 82.8868 41.8768 83.3837 41.6281 83.8999L37.9424 91.4811C37.9213 91.5237 37.9101 91.5707 37.9097 91.6183C37.9082 91.7155 37.9594 91.819 38.0408 91.9158C38.1389 92.0318 38.279 92.1345 38.434 92.2095C38.6072 92.2934 38.7961 92.3432 38.9678 92.3432H104.422C104.593 92.3432 104.778 92.2947 104.946 92.2143C105.103 92.1392 105.246 92.0364 105.345 91.919C105.427 91.8219 105.479 91.7174 105.479 91.6169C105.479 91.5727 105.468 91.5261 105.446 91.4797L101.817 83.9154C101.567 83.3933 101.325 82.8868 100.838 82.8868ZM63.4158 94.394H78.3468C79.0436 94.394 79.5124 94.9705 79.6127 95.6595L80.3445 100.673C80.4448 101.361 79.7744 101.938 79.079 101.938H62.6842C61.9893 101.938 61.3184 101.362 61.4189 100.673L62.1505 95.6595C62.2508 94.9705 62.7196 94.394 63.4158 94.394ZM114.106 100.97L103.625 80.1507L39.6931 80.1424L29.1681 101.103C28.5546 102.324 29.5387 103.627 30.8418 103.581H112.596C113.958 103.657 114.767 102.284 114.106 100.97ZM42.0558 39.7134H101.334V77.7556H42.0558V39.7134Z" fill="black"/>
</g>
<defs>
<linearGradient id="paint0_linear_473_3116" x1="0.5" y1="71" x2="142.5" y2="71" gradientUnits="userSpaceOnUse">
<stop stop-color="#B0398D"/>
<stop offset="1" stop-color="#CF93B7"/>
</linearGradient>
<clipPath id="clip0_473_3116">
<rect width="86.7371" height="68.0644" fill="white" transform="translate(28.3145 37.3281)"/>
</clipPath>
</defs>
</svg>
