<svg width="25" height="25" viewBox="0 0 25 25" fill="none" xmlns="http://www.w3.org/2000/svg">
<path d="M18.8164 8.55078C18.8164 6.95948 18.1843 5.43336 17.059 4.30814C15.9338 3.18292 14.4077 2.55078 12.8164 2.55078C11.2251 2.55078 9.69898 3.18292 8.57377 4.30814C7.44855 5.43336 6.81641 6.95948 6.81641 8.55078C6.81641 15.5508 3.81641 17.5508 3.81641 17.5508H21.8164C21.8164 17.5508 18.8164 15.5508 18.8164 8.55078Z" stroke="#B0398D" stroke-width="2" stroke-linecap="round" stroke-linejoin="round"/>
<path d="M14.5498 21.5508C14.374 21.8539 14.1217 22.1054 13.8181 22.2803C13.5145 22.4552 13.1702 22.5472 12.8198 22.5472C12.4695 22.5472 12.1252 22.4552 11.8216 22.2803C11.518 22.1054 11.2657 21.8539 11.0898 21.5508" stroke="#B0398D" stroke-width="2" stroke-linecap="round" stroke-linejoin="round"/>
</svg>
