<svg width="233" height="191" viewBox="0 0 233 191" fill="none" xmlns="http://www.w3.org/2000/svg">
<circle opacity="0.1" cx="117.281" cy="120.107" r="70.2516" fill="#B0398D"/>
<circle cx="39.0968" cy="66.8517" r="4.53236" fill="#ADB3BC"/>
<circle cx="124.643" cy="17.5629" r="9.63127" fill="#ADB3BC"/>
<circle cx="211.326" cy="107.644" r="9.06472" fill="#B0398D"/>
<path d="M171.668 5.66602L174.027 12.372L180.733 14.7307L174.027 17.0895L171.668 23.7955L169.309 17.0895L162.604 14.7307L169.309 12.372L171.668 5.66602Z" fill="#FB46FF"/>
<path d="M31.9058 88.9821C31.9058 88.9821 30.0403 96.513 21.2049 96.8373C15.3146 97.0534 13.929 90.9491 7.04816 95.0813C3.98384 96.9215 1.70508 102.513 1.70508 102.513" stroke="#FB46FF" stroke-width="3.39927" stroke-linecap="round"/>
<path d="M35.1299 132.571L38.4024 141.196L47.0273 144.469L38.4024 147.741L35.1299 156.366L31.8573 147.741L23.2324 144.469L31.8573 141.196L35.1299 132.571Z" fill="#B0398D"/>
<circle cx="113.881" cy="3.39899" r="2.26618" fill="#FB46FF"/>
<path d="M42.862 4.26298C43.9759 13.9463 66.4785 23.5979 66.9799 15.6755C67.7745 3.12126 37.4263 12.9097 78.8299 29.3609" stroke="#B0398D" stroke-width="3.39927" stroke-linecap="round"/>
<path d="M209.061 151.618C214.685 150.82 226.95 152.165 231.008 163.93" stroke="#ADB3BC" stroke-width="3.39927" stroke-linecap="round"/>
<path d="M203.483 42.3412C203.483 42.3412 211.708 46.5254 215.155 42.7754C218.299 39.3547 214.663 34.0161 218.468 31.3484C221.563 29.1778 228.12 30.6075 228.12 30.6075" stroke="#B0398D" stroke-width="3.39927" stroke-linecap="round"/>
<rect x="199.994" y="83.8496" width="7.93163" height="7.93163" rx="2.26618" fill="#B0398D"/>
<path d="M108.607 71.9521C114.16 69.652 120.399 69.652 125.952 71.9521L145.199 79.9246C150.752 82.2246 155.164 86.6363 157.464 92.189L165.436 111.436C167.736 116.989 167.736 123.228 165.436 128.781L157.464 148.028C155.164 153.581 150.752 157.993 145.199 160.293L125.952 168.265C120.399 170.565 114.16 170.565 108.607 168.265L89.3599 160.293C83.8072 157.993 79.3955 153.581 77.0955 148.028L69.123 128.781C66.8229 123.228 66.8229 116.989 69.123 111.436L77.0955 92.189C79.3955 86.6363 83.8072 82.2246 89.3599 79.9246L108.607 71.9521Z" fill="#F5F5FF" stroke="#B0398D" stroke-width="9.06472"/>
<path fill-rule="evenodd" clip-rule="evenodd" d="M130.743 106.376C131.377 105.747 132.234 105.393 133.127 105.391C134.02 105.388 134.878 105.737 135.516 106.363C136.154 106.988 136.52 107.839 136.535 108.732C136.55 109.625 136.213 110.488 135.597 111.135L117.504 133.751C117.193 134.086 116.818 134.355 116.401 134.541C115.983 134.728 115.533 134.829 115.076 134.837C114.619 134.846 114.165 134.762 113.741 134.591C113.317 134.42 112.932 134.165 112.609 133.842L100.621 121.849C100.287 121.538 100.019 121.163 99.8333 120.746C99.6475 120.329 99.5476 119.879 99.5396 119.422C99.5315 118.966 99.6155 118.512 99.7865 118.089C99.9574 117.666 100.212 117.281 100.535 116.959C100.857 116.636 101.242 116.381 101.665 116.21C102.089 116.039 102.542 115.955 102.998 115.964C103.455 115.972 103.905 116.071 104.322 116.257C104.739 116.443 105.114 116.711 105.425 117.045L114.916 126.531L130.657 106.475C130.685 106.44 130.715 106.407 130.748 106.376H130.743Z" fill="#B0398D"/>
</svg>
