<svg width="48" height="35" viewBox="0 0 48 35" fill="none" xmlns="http://www.w3.org/2000/svg">
<path d="M41.8337 0.333008H5.9953C3.05655 0.333008 0.667969 2.68371 0.667969 5.57586V29.407C0.667969 32.2991 3.05655 34.6498 5.9953 34.6498H41.8337C44.7725 34.6498 47.1611 32.2991 47.1611 29.407V5.57586C47.1611 2.68371 44.7725 0.333008 41.8337 0.333008ZM15.1971 7.95897C17.8665 7.95897 20.0401 10.0981 20.0401 12.7252C20.0401 15.3523 17.8665 17.4914 15.1971 17.4914C12.5276 17.4914 10.354 15.3523 10.354 12.7252C10.354 10.0981 12.5276 7.95897 15.1971 7.95897ZM23.9145 25.594C23.9145 26.3833 23.2636 27.0239 22.4616 27.0239H7.93252C7.13051 27.0239 6.47961 26.3833 6.47961 25.594V24.6408C6.47961 21.7486 8.86819 19.3979 11.8069 19.3979H18.5872C21.5259 19.3979 23.9145 21.7486 23.9145 24.6408V25.594ZM39.8965 27.0239H29.2419C28.4398 27.0239 27.7889 26.3833 27.7889 25.594C27.7889 24.8047 28.4398 24.1641 29.2419 24.1641H39.8965C40.6985 24.1641 41.3494 24.8047 41.3494 25.594C41.3494 26.3833 40.6985 27.0239 39.8965 27.0239ZM39.8965 19.3979H29.2419C28.4398 19.3979 27.7889 18.7573 27.7889 17.9681C27.7889 17.1788 28.4398 16.5382 29.2419 16.5382H39.8965C40.6985 16.5382 41.3494 17.1788 41.3494 17.9681C41.3494 18.7573 40.6985 19.3979 39.8965 19.3979ZM39.8965 11.772H29.2419C28.4398 11.772 27.7889 11.1314 27.7889 10.3421C27.7889 9.5528 28.4398 8.91222 29.2419 8.91222H39.8965C40.6985 8.91222 41.3494 9.5528 41.3494 10.3421C41.3494 11.1314 40.6985 11.772 39.8965 11.772Z" fill="#B0398D"/>
</svg>
