<svg width="40" height="40" viewBox="0 0 40 40" fill="none" xmlns="http://www.w3.org/2000/svg">
<path d="M25.306 22.8294C25.306 25.7617 22.9322 28.1354 20 28.1354C17.0678 28.1354 14.694 25.7617 14.694 22.8294C14.694 19.8972 17.0678 17.5235 20 17.5235C22.9322 17.5235 25.306 19.8972 25.306 22.8294ZM36.1643 9.53168C38.2834 9.53168 40 11.2483 40 13.3674V23.4208V31.9465C40 34.2052 38.1684 36.0368 35.9096 36.0368H4.09035C1.83162 36.0368 0 34.2052 0 31.9465V23.4126V13.3674C0 11.2483 1.71663 9.53168 3.83573 9.53168H11.5072L11.8686 8.00396C12.4189 5.63846 14.5298 3.96289 16.961 3.96289H23.0472C25.4784 3.96289 27.5893 5.63846 28.1396 8.00396L28.4928 9.53168H36.1643ZM8 15.0676C8 14.0081 7.13758 13.1456 6.07803 13.1456C5.01027 13.1456 4.14784 14.0081 4.14784 15.0676C4.14784 16.1272 5.01027 16.9896 6.06982 16.9896C7.13758 16.9978 8 16.1354 8 15.0676ZM29.462 22.8294C29.462 17.6056 25.2238 13.3674 20 13.3674C14.7762 13.3674 10.538 17.6056 10.538 22.8294C10.538 28.0532 14.7762 32.2914 20 32.2914C25.2238 32.2914 29.462 28.0532 29.462 22.8294Z" fill="white"/>
</svg>
