<svg width="147" height="28" viewBox="0 0 147 28" fill="none" xmlns="http://www.w3.org/2000/svg">
<path d="M14.3136 0.0878906L17.4149 9.63283H27.451L19.3316 15.5319L22.433 25.0769L14.3136 19.1778L6.19415 25.0769L9.29549 15.5319L1.17608 9.63283H11.2122L14.3136 0.0878906Z" fill="#FFCF0D"/>
<path d="M43.9405 0.0878906L47.0419 9.63283H57.078L48.9586 15.5319L52.0599 25.0769L43.9405 19.1778L35.8211 25.0769L38.9224 15.5319L30.803 9.63283H40.8392L43.9405 0.0878906Z" fill="#FFCF0D"/>
<path d="M73.5675 0.0878906L76.6688 9.63283H86.7049L78.5855 15.5319L81.6869 25.0769L73.5675 19.1778L65.4481 25.0769L68.5494 15.5319L60.43 9.63283H70.4661L73.5675 0.0878906Z" fill="#FFCF0D"/>
<path d="M103.195 0.0878906L106.297 9.63283H116.333L108.213 15.5319L111.315 25.0769L103.195 19.1778L95.076 25.0769L98.1773 15.5319L90.0579 9.63283H100.094L103.195 0.0878906Z" fill="#FFCF0D"/>
<path d="M132.822 0.0878906L135.924 9.63283H145.96L137.84 15.5319L140.942 25.0769L132.822 19.1778L124.703 25.0769L127.804 15.5319L119.685 9.63283H129.721L132.822 0.0878906Z" fill="#FFCF0D"/>
</svg>
