<svg width="215" height="41" viewBox="0 0 215 41" fill="none" xmlns="http://www.w3.org/2000/svg">
<path d="M20.323 0.175781L24.8858 14.2186H39.6513L27.7058 22.8976L32.2686 36.9405L20.323 28.2615L8.37745 36.9405L12.9402 22.8976L0.994678 14.2186H15.7602L20.323 0.175781Z" fill="#C4710D"/>
<path d="M63.9129 0.175781L68.4757 14.2186H83.2412L71.2956 22.8976L75.8584 36.9405L63.9129 28.2615L51.9673 36.9405L56.5301 22.8976L44.5845 14.2186H59.3501L63.9129 0.175781Z" fill="#C4710D"/>
<path d="M107.499 0.175781L112.062 14.2186H126.827L114.882 22.8976L119.444 36.9405L107.499 28.2615L95.5532 36.9405L100.116 22.8976L88.1705 14.2186H102.936L107.499 0.175781Z" fill="#C4710D"/>
<path d="M151.089 0.175781L155.651 14.2186H170.417L158.471 22.8976L163.034 36.9405L151.089 28.2615L139.143 36.9405L143.706 22.8976L131.76 14.2186H146.526L151.089 0.175781Z" fill="#C4710D"/>
<path d="M194.678 2.55629L198.542 14.446L198.707 14.9543H199.241H211.743L201.629 22.3025L201.196 22.6166L201.362 23.1249L205.225 35.0146L195.111 27.6664L194.678 27.3522L194.246 27.6664L184.132 35.0146L187.995 23.1249L188.16 22.6166L187.728 22.3025L177.614 14.9543H190.116H190.65L190.815 14.446L194.678 2.55629Z" stroke="black" stroke-opacity="0.47" stroke-width="1.47124"/>
</svg>
