<svg width="40" height="40" viewBox="0 0 40 40" fill="none" xmlns="http://www.w3.org/2000/svg">
<g clip-path="url(#clip0_1656_21156)">
<path fill-rule="evenodd" clip-rule="evenodd" d="M20.1995 13.0231C16.016 13.0231 12.6247 16.4145 12.6247 20.5979C12.6247 24.7814 16.016 28.1727 20.1995 28.1727C24.3829 28.1727 27.7743 24.7814 27.7743 20.5979C27.77 16.4163 24.3811 13.0275 20.1995 13.0231ZM20.1995 25.6478C17.4105 25.6478 15.1496 23.3869 15.1496 20.5979C15.1496 17.809 17.4105 15.5481 20.1995 15.5481C22.9885 15.5481 25.2494 17.809 25.2494 20.5979C25.2494 23.3869 22.9885 25.6478 20.1995 25.6478ZM34.0867 20.9388C34.093 20.7116 34.093 20.4843 34.0867 20.2571L36.4412 17.3155C36.6915 17.0023 36.7782 16.5888 36.6747 16.2014C36.2887 14.7505 35.7113 13.3574 34.9578 12.0589C34.7577 11.7144 34.4067 11.4845 34.0109 11.4387L30.2677 11.0221C30.112 10.858 29.9542 10.7002 29.7943 10.5487L29.3524 6.796C29.3063 6.3999 29.0758 6.04885 28.7306 5.84915C27.4316 5.09695 26.0387 4.52014 24.5882 4.13377C24.2005 4.03071 23.787 4.11798 23.474 4.3689L20.5404 6.71078C20.3131 6.71078 20.0859 6.71078 19.8586 6.71078L16.9171 4.36101C16.6039 4.11064 16.1903 4.02396 15.803 4.12745C14.3523 4.51413 12.9593 5.09148 11.6605 5.84441C11.3159 6.04448 11.086 6.39546 11.0403 6.79126L10.6237 10.5408C10.4596 10.6976 10.3017 10.8554 10.1502 11.0142L6.39756 11.445C6.00146 11.4911 5.65041 11.7216 5.45071 12.0668C4.69851 13.3658 4.1217 14.7588 3.73533 16.2093C3.63227 16.5969 3.71955 17.0105 3.97046 17.3234L6.31234 20.2571C6.31234 20.4843 6.31234 20.7116 6.31234 20.9388L3.96257 23.8804C3.71221 24.1936 3.62552 24.6071 3.72902 24.9945C4.115 26.4454 4.69239 27.8384 5.44597 29.137C5.64604 29.4815 5.99703 29.7114 6.39283 29.7571L10.136 30.1738C10.2928 30.3379 10.4506 30.4957 10.6095 30.6472L11.0466 34.3999C11.0927 34.796 11.3232 35.147 11.6684 35.3467C12.9674 36.0989 14.3603 36.6757 15.8108 37.0621C16.1985 37.1652 16.612 37.0779 16.925 36.827L19.8586 34.4851C20.0859 34.4914 20.3131 34.4914 20.5404 34.4851L23.4819 36.8396C23.7951 37.09 24.2087 37.1766 24.596 37.0732C26.0469 36.6872 27.44 36.1098 28.7385 35.3562C29.0831 35.1561 29.313 34.8051 29.3587 34.4093L29.7753 30.6661C29.9394 30.5104 30.0972 30.3526 30.2487 30.1927L34.0014 29.7508C34.3975 29.7047 34.7486 29.4742 34.9483 29.1291C35.7005 27.83 36.2773 26.4371 36.6637 24.9866C36.7667 24.5989 36.6794 24.1854 36.4285 23.8725L34.0867 20.9388ZM31.5459 19.913C31.5728 20.3692 31.5728 20.8266 31.5459 21.2828C31.5271 21.5952 31.625 21.9033 31.8205 22.1476L34.0598 24.9456C33.8029 25.7622 33.4739 26.5543 33.0767 27.3127L29.5102 27.7167C29.1996 27.7512 28.9128 27.8996 28.7054 28.1333C28.4016 28.4749 28.0781 28.7985 27.7364 29.1022C27.5027 29.3097 27.3543 29.5965 27.3198 29.9071L26.9237 33.4704C26.1654 33.8678 25.3733 34.1968 24.5566 34.4535L21.7571 32.2142C21.533 32.0352 21.2548 31.9378 20.968 31.9381H20.8923C20.4361 31.9649 19.9787 31.9649 19.5225 31.9381C19.2102 31.9193 18.902 32.0171 18.6577 32.2126L15.8519 34.4535C15.0353 34.1966 14.2431 33.8676 13.4847 33.4704L13.0808 29.9086C13.0463 29.598 12.8978 29.3113 12.6641 29.1038C12.3225 28.8001 11.999 28.4765 11.6952 28.1349C11.4877 27.9012 11.201 27.7527 10.8904 27.7183L7.32705 27.3206C6.92968 26.5623 6.60066 25.7701 6.3439 24.9535L8.58321 22.1539C8.77874 21.9097 8.8766 21.6015 8.85779 21.2891C8.83097 20.8329 8.83097 20.3756 8.85779 19.9194C8.8766 19.607 8.77874 19.2988 8.58321 19.0546L6.3439 16.2503C6.60086 15.4337 6.92987 14.6415 7.32705 13.8832L10.8888 13.4792C11.1994 13.4447 11.4861 13.2963 11.6936 13.0626C11.9974 12.7209 12.3209 12.3974 12.6626 12.0936C12.8972 11.886 13.0462 11.5986 13.0808 11.2872L13.4769 7.72549C14.2351 7.32811 15.0273 6.9991 15.844 6.74234L18.6435 8.98165C18.8878 9.17718 19.196 9.27503 19.5083 9.25623C19.9645 9.22941 20.4219 9.22941 20.8781 9.25623C21.1904 9.27503 21.4986 9.17718 21.7429 8.98165L24.5471 6.74234C25.3637 6.99929 26.1559 7.3283 26.9143 7.72549L27.3182 11.2872C27.3527 11.5978 27.5012 11.8846 27.7349 12.0921C28.0765 12.3958 28.4 12.7194 28.7038 13.061C28.9113 13.2947 29.198 13.4431 29.5086 13.4776L33.0719 13.8737C33.4693 14.632 33.7983 15.4242 34.0551 16.2408L31.8158 19.0404C31.6184 19.2867 31.5204 19.5981 31.5412 19.913H31.5459Z" fill="black"/>
</g>
<defs>
<clipPath id="clip0_1656_21156">
<rect width="40" height="40" fill="white"/>
</clipPath>
</defs>
</svg>
