<svg width="150" height="100" viewBox="0 0 150 100" fill="none" xmlns="http://www.w3.org/2000/svg">
<path d="M21.0832 29.7589V30.8282C21.0832 32.5162 20.7537 33.9285 20.0947 35.0516C19.4356 36.1814 18.6017 37.0826 17.5862 37.7551C16.5707 38.4343 15.4342 38.9118 14.1766 39.1942C12.919 39.4767 11.6882 39.6179 10.4845 39.6179C9.20668 39.6179 7.93563 39.4767 6.67804 39.1942C5.42044 38.9118 4.29735 38.4343 3.32221 37.7551C2.34707 37.0758 1.54678 36.1747 0.928069 35.0516C0.309359 33.9218 0 32.5162 0 30.8282V20.7338H3.60467V30.8282C3.60467 31.8437 3.79297 32.6776 4.16958 33.3367C4.54619 33.9957 5.05056 34.5203 5.68944 34.9171C6.32833 35.3139 7.06138 35.5963 7.88857 35.7644C8.71576 35.9326 9.57656 36.02 10.4845 36.02C12.5154 36.02 14.1833 35.6232 15.5014 34.8364C16.8128 34.0495 17.4719 32.7112 17.4719 30.8349V13.4169H21.0765V26.1543H25.3604C26.3759 26.1543 27.0148 25.8852 27.2771 25.3338C27.5394 24.7891 27.6738 23.9148 27.6738 22.711V13.4102H31.2785V22.8791C31.2785 23.7467 31.2247 24.5133 31.1104 25.1926C31.5946 25.4952 32.099 25.7306 32.6034 25.8987C33.1078 26.0668 33.6256 26.1543 34.1501 26.1543H35.6162C36.5914 26.1543 37.2235 25.8852 37.506 25.3338C37.7884 24.7891 37.9297 23.9148 37.9297 22.711V13.4102H41.5343V22.8791C41.5343 23.7467 41.4805 24.5133 41.3662 25.1926C41.8504 25.4952 42.3548 25.7306 42.8592 25.8987C43.3636 26.0668 43.8814 26.1543 44.4059 26.1543H46.5445V29.7589H44.6817C43.7805 29.7589 42.9332 29.6379 42.1463 29.3958C41.3595 29.1537 40.6399 28.8241 40.0077 28.4072C39.5168 28.9317 38.925 29.2882 38.2323 29.4765C37.5329 29.6648 36.7595 29.7589 35.8919 29.7589H34.4259C33.5247 29.7589 32.6773 29.6379 31.8905 29.3958C31.1037 29.1537 30.3841 28.8241 29.7452 28.4072C29.2543 28.9317 28.6759 29.2882 27.9967 29.4765C27.3174 29.6648 26.5306 29.7589 25.6294 29.7589H21.0832Z" fill="#BF2B91"/>
<path d="M53.9155 29.7589H44.9375V26.1543H53.9155V29.7589Z" fill="#BF2B91"/>
<path d="M64.7961 29.7589H52.8994V26.1543H64.7961V29.7589Z" fill="#BF2B91"/>
<path d="M75.678 29.7589H63.7812V26.1543H75.678V29.7589Z" fill="#BF2B91"/>
<path d="M86.552 29.7589H74.6553V26.1543H86.552V29.7589Z" fill="#BF2B91"/>
<path d="M97.4338 29.7589H85.5371V26.1543H97.4338V29.7589Z" fill="#BF2B91"/>
<path d="M114.623 25.5291C115.04 25.7174 115.45 25.8653 115.86 25.9796C116.271 26.094 116.708 26.1478 117.158 26.1478H118.846V29.7524H117.38C116.479 29.7524 115.632 29.6314 114.845 29.3893C114.058 29.1472 113.338 28.8176 112.706 28.4007C112.067 28.9252 111.307 29.2817 110.426 29.47C109.545 29.6583 108.557 29.7524 107.467 29.7524H96.418V26.1478H99.915V21.9782C99.915 18.9317 100.608 16.7057 102 15.3002C103.392 13.8946 105.214 13.1885 107.467 13.1885C109.761 13.1885 111.603 13.9148 112.989 15.3607C114.374 16.8066 115.073 19.0192 115.073 21.9849C115.08 23.3367 114.925 24.5203 114.623 25.5291ZM107.467 26.1545C108.066 26.1545 108.611 26.1074 109.102 26.0133C109.592 25.9191 110.003 25.7308 110.339 25.4484C110.675 25.1659 110.937 24.7422 111.126 24.1773C111.314 23.6124 111.408 22.8794 111.408 21.9782C111.408 20.0212 111.052 18.6425 110.339 17.8355C109.626 17.0285 108.664 16.625 107.467 16.625C106.264 16.625 105.315 17.042 104.623 17.8624C103.93 18.6896 103.58 20.0615 103.58 21.9782V26.1478H107.467V26.1545Z" fill="#BF2B91"/>
<path d="M139.768 29.7586C138.867 29.7586 138.02 29.6376 137.233 29.3955C136.446 29.1534 135.727 28.8239 135.088 28.4069C134.597 28.9315 134.019 29.2879 133.339 29.4762C132.66 29.6645 131.873 29.7586 130.972 29.7586H117.838V26.154H122.801V13.4166H126.406V26.154H130.69C131.705 26.154 132.344 25.885 132.606 25.3335C132.869 24.7888 133.003 23.9145 133.003 22.7107V13.4099H136.608V22.8788C136.608 23.7464 136.554 24.5131 136.44 25.1923C136.924 25.4949 137.428 25.7303 137.933 25.8984C138.437 26.0665 138.955 26.154 139.479 26.154H140.885C141.9 26.154 142.546 25.885 142.828 25.3335C143.111 24.7821 143.252 23.9145 143.252 22.7107V13.4099H146.857V22.9394C146.857 24.2575 146.736 25.3537 146.494 26.2347C146.251 27.1157 145.888 27.8218 145.424 28.3464C144.954 28.8709 144.362 29.2408 143.649 29.4425C142.936 29.651 142.109 29.7519 141.167 29.7519H139.768V29.7586ZM131.739 9.01837C131.107 9.01837 130.589 8.78972 130.178 8.33914C129.768 7.88856 129.566 7.364 129.566 6.75874C129.566 6.15348 129.768 5.64237 130.178 5.21197C130.589 4.78156 131.107 4.56635 131.739 4.56635C132.331 4.56635 132.842 4.78156 133.265 5.21197C133.689 5.64237 133.904 6.16021 133.904 6.75874C133.904 7.35728 133.689 7.88856 133.265 8.33914C132.842 8.78972 132.331 9.01837 131.739 9.01837ZM134.557 4.45202C133.911 4.45202 133.38 4.22337 132.956 3.77279C132.539 3.32221 132.331 2.79764 132.331 2.19238C132.331 1.59385 132.539 1.07601 132.956 0.645605C133.373 0.215198 133.904 0 134.557 0C135.169 0 135.686 0.215198 136.123 0.645605C136.561 1.07601 136.783 1.59385 136.783 2.19238C136.783 2.79764 136.567 3.32221 136.123 3.77279C135.686 4.22337 135.162 4.45202 134.557 4.45202ZM137.341 9.01837C136.702 9.01837 136.177 8.78972 135.76 8.33914C135.343 7.88856 135.142 7.364 135.142 6.75874C135.142 6.15348 135.35 5.64237 135.76 5.21197C136.171 4.78156 136.695 4.56635 137.341 4.56635C137.939 4.56635 138.45 4.78156 138.861 5.21197C139.271 5.64237 139.479 6.16021 139.479 6.75874C139.479 7.35728 139.271 7.88856 138.861 8.33914C138.45 8.78972 137.946 9.01837 137.341 9.01837Z" fill="#BF2B91"/>
<path d="M5.96475 69.6651C5.02324 69.6651 4.2095 69.5642 3.51009 69.3557C2.81068 69.1472 2.23231 68.7841 1.76155 68.2595C1.2908 67.7349 0.934368 67.0288 0.692264 66.1478C0.450159 65.2668 0.329102 64.1639 0.329102 62.8525V56.3157H3.94051V62.6306C3.94051 63.8344 4.06828 64.7086 4.33729 65.2534C4.60629 65.7981 5.23846 66.0738 6.25395 66.0738H22.8851C23.9006 66.0738 24.5395 65.8048 24.8018 65.2534C25.0641 64.7086 25.1986 63.8344 25.1986 62.6306V53.666H28.8033V62.7987C28.8033 63.6663 28.7495 64.4329 28.6351 65.1122C29.1261 65.4148 29.6304 65.6502 30.155 65.8183C30.6796 65.9864 31.2041 66.0738 31.7354 66.0738H33.8202V69.6785H31.9573C31.0562 69.6785 30.2088 69.5575 29.422 69.3154C28.6351 69.0732 27.9155 68.7437 27.2834 68.3268C26.7924 68.8513 26.2141 69.2077 25.5348 69.3961C24.8556 69.5844 24.0688 69.6785 23.1676 69.6785H5.96475V69.6651ZM15.1849 78.5153C14.5527 78.5153 14.0349 78.2867 13.6247 77.8361C13.2144 77.3855 13.0127 76.8609 13.0127 76.2557C13.0127 75.6504 13.2144 75.1393 13.6247 74.7089C14.0349 74.2785 14.5527 74.0633 15.1849 74.0633C15.7767 74.0633 16.2878 74.2785 16.7115 74.7089C17.1352 75.1393 17.3504 75.6571 17.3504 76.2557C17.3504 76.8542 17.1352 77.3855 16.7115 77.8361C16.2878 78.2867 15.7767 78.5153 15.1849 78.5153Z" fill="#BF2B91"/>
<path d="M39.8795 69.6652H33.8135V66.0605H39.8795V69.6652Z" fill="#BF2B91"/>
<path d="M50.761 69.6652H38.8643V66.0605H50.761V69.6652Z" fill="#BF2B91"/>
<path d="M61.636 69.6652H49.7393V66.0605H61.636V69.6652Z" fill="#BF2B91"/>
<path d="M72.5168 69.6652H60.6201V66.0605H72.5168V69.6652Z" fill="#BF2B91"/>
<path d="M83.3987 69.6652H71.502V66.0605H83.3987V69.6652Z" fill="#BF2B91"/>
<path d="M94.2795 69.6652H82.3828V66.0605H94.2795V69.6652Z" fill="#BF2B91"/>
<path d="M93.3112 77.8901C92.901 77.4395 92.6992 76.9149 92.6992 76.3097C92.6992 75.7044 92.901 75.1866 93.3112 74.7629C93.7214 74.3325 94.2393 74.1173 94.8714 74.1173C95.4632 74.1173 95.9744 74.3325 96.4048 74.7629C96.8284 75.1933 97.0437 75.7112 97.0437 76.3097C97.0437 76.9082 96.8284 77.4395 96.4048 77.8901C95.9811 78.3407 95.47 78.5693 94.8714 78.5693C94.2393 78.5693 93.7214 78.3407 93.3112 77.8901ZM93.2641 69.6653H98.8998C99.8413 69.6653 100.668 69.5644 101.381 69.3559C102.094 69.1474 102.686 68.7843 103.157 68.2597C103.628 67.7352 103.984 67.029 104.226 66.148C104.468 65.2671 104.589 64.1641 104.589 62.8527V53.3232H100.985V62.6241C100.985 63.8279 100.843 64.7021 100.561 65.2469C100.278 65.7916 99.6328 66.0673 98.6173 66.0673H93.2641V69.6653ZM98.8998 77.8901C98.4828 77.4395 98.2811 76.9149 98.2811 76.3097C98.2811 75.7044 98.4828 75.1866 98.8998 74.7629C99.31 74.3325 99.8413 74.1173 100.48 74.1173C101.079 74.1173 101.59 74.3325 102 74.7629C102.417 75.1933 102.619 75.7112 102.619 76.3097C102.619 76.9082 102.41 77.4395 102 77.8901C101.59 78.3407 101.079 78.5693 100.48 78.5693C99.8413 78.5693 99.31 78.3407 98.8998 77.8901Z" fill="#BF2B91"/>
<path d="M104.871 75.9733C105.584 75.9733 106.304 75.8859 107.016 75.7178C107.729 75.5496 108.368 75.2403 108.933 74.7897C109.498 74.3391 109.949 73.7002 110.285 72.8731C110.621 72.0459 110.789 70.9564 110.789 69.6046V53.3164H114.394V69.6046C114.394 71.5213 114.132 73.1084 113.607 74.366C113.082 75.6236 112.376 76.6324 111.495 77.3789C110.614 78.1321 109.599 78.6566 108.449 78.9593C107.306 79.2619 106.109 79.43 104.871 79.4637V75.9733Z" fill="#BF2B91"/>
<path d="M132.498 68.3675C132.007 68.8584 131.416 69.1947 130.723 69.383C130.024 69.5713 129.23 69.6654 128.329 69.6654H118.295V66.0608H128.046C129.021 66.0608 129.654 65.8052 129.936 65.3008C130.219 64.7964 130.36 63.9423 130.36 62.7385C130.36 60.6739 129.896 59.1137 128.981 58.0579C128.06 57.002 126.755 56.4775 125.067 56.4775H120.218V53.0947H125.007C126.587 53.0947 127.939 53.3301 129.062 53.8009C130.192 54.2716 131.12 54.9172 131.853 55.7444C132.586 56.5716 133.124 57.5669 133.46 58.7304C133.796 59.8938 133.964 61.1514 133.964 62.5032V62.9538C133.964 63.364 133.964 63.754 133.964 64.1105C133.964 64.4669 133.924 64.7964 133.85 65.0991C134.341 65.4017 134.845 65.6371 135.37 65.8052C135.895 65.9733 136.426 66.0608 136.95 66.0608H138.302V69.6654H137.172C136.271 69.6654 135.424 69.5511 134.637 69.3291C133.85 69.1005 133.131 68.7777 132.498 68.3675Z" fill="#BF2B91"/>
<path d="M137.286 66.0544H140.615C141.631 66.0544 142.276 65.7854 142.559 65.2339C142.841 64.6892 142.982 63.8149 142.982 62.6111V53.3103H146.587V62.8398C146.587 64.1579 146.466 65.2541 146.224 66.1351C145.982 67.0161 145.619 67.7222 145.155 68.2468C144.684 68.7714 144.092 69.1412 143.379 69.343C142.666 69.5515 141.839 69.6523 140.898 69.6523H137.293V66.0544H137.286ZM141.994 48.9188C141.362 48.9188 140.844 48.6902 140.44 48.2396C140.03 47.789 139.828 47.2644 139.828 46.6592C139.828 46.0539 140.03 45.5428 140.44 45.1124C140.85 44.682 141.368 44.4668 141.994 44.4668C142.592 44.4668 143.097 44.682 143.527 45.1124C143.951 45.5428 144.166 46.0606 144.166 46.6592C144.166 47.2577 143.951 47.789 143.527 48.2396C143.097 48.6902 142.586 48.9188 141.994 48.9188ZM147.602 48.9188C146.964 48.9188 146.439 48.6902 146.022 48.2396C145.612 47.789 145.403 47.2644 145.403 46.6592C145.403 46.0539 145.612 45.5428 146.022 45.1124C146.439 44.682 146.964 44.4668 147.602 44.4668C148.201 44.4668 148.712 44.682 149.122 45.1124C149.533 45.5428 149.741 46.0606 149.741 46.6592C149.741 47.2577 149.533 47.789 149.122 48.2396C148.712 48.6902 148.201 48.9188 147.602 48.9188Z" fill="#BF2B91"/>
<path d="M2.25315 96.5256C2.60285 97.9446 3.6587 98.7583 5.57536 98.7583C7.67359 98.7583 8.48732 97.8302 8.48732 96.687C8.48732 95.4899 7.87534 94.777 5.27945 94.1987C2.54233 93.5867 1.47303 92.7595 1.47303 91.1589C1.47303 89.6054 2.72391 88.2402 5.41396 88.2402C8.21833 88.2402 9.3885 89.7601 9.5499 91.1656H8.25867C8.00312 90.056 7.223 89.2154 5.35341 89.2154C3.70576 89.2154 2.79115 89.9013 2.79115 91.0715C2.79115 92.2215 3.55109 92.6721 5.76366 93.163C9.24727 93.9431 9.80546 95.194 9.80546 96.5794C9.80546 98.2943 8.42007 99.7133 5.50137 99.7133C2.42126 99.7133 1.19729 98.1261 0.961914 96.5256H2.25315Z" fill="#BF2B91"/>
<path d="M12.4756 88.3945H13.7332V93.1761H20.6735V88.3945H21.9311V99.5851H20.6735V94.1916H13.7332V99.5851H12.4756V88.3945Z" fill="#BF2B91"/>
<path d="M26.8605 95.9468L25.4079 99.5851H24.1436L28.5956 88.3945H30.1222L34.7693 99.5851H33.4175L31.9245 95.9468H26.8605ZM31.5546 94.9313C30.2701 91.7773 29.5976 90.1969 29.3421 89.4033H29.3219C29.0193 90.2977 28.266 92.2346 27.2304 94.9313H31.5546Z" fill="#BF2B91"/>
<path d="M47.547 94.6086C47.547 92.47 47.5672 90.365 47.621 89.2217H47.5605C47.0561 90.8627 44.783 96.0612 43.29 99.5851H42.1199C40.99 96.7942 38.643 90.9972 38.0848 89.2016H38.0377C38.1319 90.4861 38.1655 93.0349 38.1655 94.9583V99.5851H36.9482V88.3945H38.8246C40.3781 92.0664 42.3149 96.8413 42.7588 98.1796H42.7924C43.0748 97.2448 45.3345 91.9656 46.935 88.3945H48.771V99.5851H47.5336V94.6086H47.547Z" fill="#BF2B91"/>
<path d="M52.6447 96.5256C52.9944 97.9446 54.0503 98.7583 55.9669 98.7583C58.0652 98.7583 58.8789 97.8302 58.8789 96.687C58.8789 95.4899 58.2669 94.777 55.671 94.1987C52.9339 93.5867 51.8646 92.7595 51.8646 91.1589C51.8646 89.6054 53.1155 88.2402 55.8055 88.2402C58.6099 88.2402 59.7801 89.7601 59.9415 91.1656H58.6503C58.3947 90.056 57.6146 89.2154 55.745 89.2154C54.0974 89.2154 53.1827 89.9013 53.1827 91.0715C53.1827 92.2215 53.9427 92.6721 56.1552 93.163C59.6388 93.9431 60.197 95.194 60.197 96.5794C60.197 98.2943 58.8117 99.7133 55.893 99.7133C52.8129 99.7133 51.5889 98.1261 51.3535 96.5256H52.6447Z" fill="#BF2B91"/>
<path d="M70.0288 89.4033H65.9668V88.3945H75.3685V89.4033H71.2998V99.5784H70.0288V89.4033Z" fill="#BF2B91"/>
<path d="M78.5427 94.4874V99.5783H77.2852V88.3877H81.8717C84.3398 88.3877 85.6512 89.5982 85.6512 91.3535C85.6512 92.7926 84.7231 93.6938 83.4386 93.983C84.5886 94.2453 85.4427 94.9648 85.4427 96.8815V97.3321C85.4427 98.1122 85.3889 99.1277 85.6041 99.5783H84.36C84.1313 99.1008 84.1717 98.2131 84.1717 97.211V96.942C84.1717 95.2137 83.6202 94.4806 81.3337 94.4806H78.5427V94.4874ZM78.5427 93.4853H81.3808C83.4185 93.4853 84.3398 92.7926 84.3398 91.414C84.3398 90.1228 83.4185 89.3897 81.6094 89.3897H78.5427V93.4853Z" fill="#BF2B91"/>
<path d="M90.0294 95.9468L88.5768 99.5851H87.3125L91.7645 88.3945H93.2911L97.9382 99.5851H96.5864L95.0934 95.9468H90.0294ZM94.7236 94.9313C93.4391 91.7773 92.7666 90.1969 92.511 89.4033H92.4908C92.1882 90.2977 91.435 92.2346 90.3993 94.9313H94.7236Z" fill="#BF2B91"/>
<path d="M101.388 88.3945V99.5851H100.131V88.3945H101.388Z" fill="#BF2B91"/>
<path d="M104.865 99.5851V88.3945H106.614C108.463 91.051 112.66 96.9892 113.393 98.2065H113.413C113.299 96.6731 113.319 94.9717 113.319 93.1492V88.3945H114.543V99.5851H112.915C111.18 97.0699 106.869 90.7954 106.035 89.5513H106.015C106.103 90.9299 106.096 92.6852 106.096 94.7094V99.5851H104.865Z" fill="#BF2B91"/>
<path d="M119.284 88.3945V99.5851H118.026V88.3945H119.284Z" fill="#BF2B91"/>
<path d="M122.768 99.5851V88.3945H124.516C126.365 91.051 130.562 96.9892 131.295 98.2065H131.315C131.201 96.6731 131.221 94.9717 131.221 93.1492V88.3945H132.445V99.5851H130.818C129.082 97.0699 124.772 90.7954 123.938 89.5513H123.918C124.005 90.9299 123.998 92.6852 123.998 94.7094V99.5851H122.768Z" fill="#BF2B91"/>
<path d="M145.633 99.5854H144.631C144.557 99.4173 144.517 98.8793 144.496 97.9176C144.012 98.6977 143.004 99.7199 140.596 99.7199C137.059 99.7199 135.216 97.2719 135.216 94.091C135.216 90.7486 137.186 88.2334 140.838 88.2334C143.582 88.2334 145.357 89.5582 145.727 91.596H144.47C143.992 90.1635 142.882 89.2287 140.798 89.2287C137.818 89.2287 136.541 91.3606 136.541 94.0304C136.541 96.4717 137.798 98.7179 140.704 98.7179C143.636 98.7179 144.416 96.9626 144.416 94.75V94.629H140.677V93.6202H145.64V99.5854H145.633Z" fill="#BF2B91"/>
</svg>
