<svg width="62" height="62" viewBox="0 0 62 62" fill="none" xmlns="http://www.w3.org/2000/svg">
<circle cx="30.7203" cy="30.7203" r="30.4131" fill="#BE2890" fill-opacity="0.12" stroke="black" stroke-width="0.614407"/>
<g clip-path="url(#clip0_1122_2354)">
<path d="M30.7223 18.6241C34.6622 18.6241 35.1288 18.6414 36.6782 18.7105C38.1182 18.7739 38.8959 19.0158 39.4143 19.2174C40.0997 19.4824 40.5951 19.805 41.1077 20.3176C41.6261 20.836 41.9429 21.3256 42.2079 22.0111C42.4095 22.5295 42.6514 23.3128 42.7148 24.7471C42.7839 26.3023 42.8012 26.7689 42.8012 30.703C42.8012 34.6429 42.7839 35.1094 42.7148 36.6589C42.6514 38.0989 42.4095 38.8765 42.2079 39.3949C41.9429 40.0804 41.6204 40.5757 41.1077 41.0884C40.5893 41.6068 40.0997 41.9236 39.4143 42.1886C38.8959 42.3902 38.1125 42.6321 36.6782 42.6954C35.123 42.7646 34.6565 42.7818 30.7223 42.7818C26.7824 42.7818 26.3159 42.7646 24.7664 42.6954C23.3264 42.6321 22.5488 42.3902 22.0304 42.1886C21.3449 41.9236 20.8496 41.601 20.3369 41.0884C19.8185 40.57 19.5017 40.0804 19.2368 39.3949C19.0352 38.8765 18.7932 38.0932 18.7299 36.6589C18.6608 35.1037 18.6435 34.6371 18.6435 30.703C18.6435 26.7631 18.6608 26.2965 18.7299 24.7471C18.7932 23.3071 19.0352 22.5295 19.2368 22.0111C19.5017 21.3256 19.8243 20.8302 20.3369 20.3176C20.8553 19.7992 21.3449 19.4824 22.0304 19.2174C22.5488 19.0158 23.3322 18.7739 24.7664 18.7105C26.3159 18.6414 26.7824 18.6241 30.7223 18.6241ZM30.7223 15.9688C26.7191 15.9688 26.218 15.986 24.6455 16.0552C23.0787 16.1243 22.0016 16.3777 21.0685 16.7406C20.095 17.1208 19.2713 17.6219 18.4534 18.4456C17.6297 19.2635 17.1286 20.0872 16.7484 21.0549C16.3855 21.9938 16.1321 23.0651 16.063 24.6319C15.9938 26.2101 15.9766 26.7113 15.9766 30.7145C15.9766 34.7178 15.9938 35.2189 16.063 36.7914C16.1321 38.3581 16.3855 39.4353 16.7484 40.3684C17.1286 41.3418 17.6297 42.1655 18.4534 42.9834C19.2713 43.8014 20.095 44.3083 21.0627 44.6827C22.0016 45.0456 23.073 45.299 24.6397 45.3681C26.2122 45.4372 26.7133 45.4545 30.7166 45.4545C34.7198 45.4545 35.2209 45.4372 36.7934 45.3681C38.3602 45.299 39.4373 45.0456 40.3704 44.6827C41.3381 44.3083 42.1618 43.8014 42.9797 42.9834C43.7977 42.1655 44.3046 41.3418 44.679 40.3741C45.0418 39.4353 45.2953 38.3639 45.3644 36.7971C45.4335 35.2246 45.4508 34.7235 45.4508 30.7203C45.4508 26.717 45.4335 26.2159 45.3644 24.6434C45.2953 23.0767 45.0418 21.9995 44.679 21.0664C44.3161 20.0872 43.815 19.2635 42.9913 18.4456C42.1733 17.6276 41.3496 17.1208 40.382 16.7464C39.4431 16.3835 38.3717 16.13 36.805 16.0609C35.2267 15.986 34.7256 15.9688 30.7223 15.9688Z" fill="black"/>
<path d="M30.7229 23.1396C26.5411 23.1396 23.1484 26.5323 23.1484 30.7141C23.1484 34.8959 26.5411 38.2886 30.7229 38.2886C34.9047 38.2886 38.2974 34.8959 38.2974 30.7141C38.2974 26.5323 34.9047 23.1396 30.7229 23.1396ZM30.7229 35.6275C28.0099 35.6275 25.8096 33.4271 25.8096 30.7141C25.8096 28.0011 28.0099 25.8008 30.7229 25.8008C33.4359 25.8008 35.6363 28.0011 35.6363 30.7141C35.6363 33.4271 33.4359 35.6275 30.7229 35.6275Z" fill="black"/>
<path d="M40.3648 22.8406C40.3648 23.8198 39.5699 24.6089 38.5965 24.6089C37.6173 24.6089 36.8281 23.8141 36.8281 22.8406C36.8281 21.8614 37.623 21.0723 38.5965 21.0723C39.5699 21.0723 40.3648 21.8672 40.3648 22.8406Z" fill="black"/>
</g>
<defs>
<clipPath id="clip0_1122_2354">
<rect width="29.4915" height="29.4915" fill="white" transform="translate(15.9766 15.9688)"/>
</clipPath>
</defs>
</svg>
