<svg width="62" height="62" viewBox="0 0 62 62" fill="none" xmlns="http://www.w3.org/2000/svg">
<circle cx="30.9078" cy="30.7203" r="30.4131" fill="#BE2890" fill-opacity="0.12" stroke="black" stroke-width="0.614407"/>
<g clip-path="url(#clip0_1122_2357)">
<path d="M38.0569 32.5395C38.0008 32.5125 35.9021 31.4791 35.5292 31.3449C35.377 31.2902 35.2139 31.2369 35.0404 31.2369C34.757 31.2369 34.519 31.3781 34.3335 31.6555C34.1239 31.9671 33.4893 32.7089 33.2932 32.9305C33.2676 32.9598 33.2326 32.9947 33.2117 32.9947C33.1929 32.9947 32.8681 32.861 32.7698 32.8183C30.5186 31.8404 28.8098 29.4887 28.5754 29.0922C28.542 29.0351 28.5406 29.0093 28.5403 29.0093C28.5485 28.9791 28.6242 28.9032 28.6633 28.864C28.7776 28.7509 28.9014 28.6018 29.0213 28.4576C29.078 28.3893 29.1348 28.3209 29.1906 28.2564C29.3645 28.0542 29.4419 27.8971 29.5316 27.7153L29.5786 27.6208C29.7977 27.1855 29.6106 26.8182 29.5501 26.6996C29.5005 26.6003 28.6143 24.4617 28.5201 24.237C28.2936 23.6948 27.9942 23.4424 27.5782 23.4424C27.5396 23.4424 27.5782 23.4424 27.4163 23.4492C27.2192 23.4575 26.1458 23.5988 25.6712 23.898C25.1679 24.2153 24.3164 25.2268 24.3164 27.0056C24.3164 28.6065 25.3324 30.1181 25.7685 30.693C25.7794 30.7075 25.7993 30.7369 25.8282 30.7792C27.4987 33.2188 29.5811 35.0267 31.6922 35.87C33.7245 36.6819 34.6869 36.7757 35.2341 36.7757H35.2342C35.4641 36.7757 35.6481 36.7577 35.8105 36.7417L35.9135 36.7319C36.6155 36.6696 38.1584 35.8701 38.5094 34.8948C38.7859 34.1267 38.8588 33.2874 38.6748 32.9828C38.5488 32.7756 38.3317 32.6714 38.0569 32.5395Z" fill="black"/>
<path d="M31.4028 15.9941C23.6064 15.9941 17.2636 22.2893 17.2636 30.027C17.2636 32.5297 17.9334 34.9795 19.2022 37.1235L16.7737 44.287C16.7285 44.4206 16.7621 44.5683 16.8609 44.6688C16.9322 44.7416 17.0289 44.7809 17.1277 44.7809C17.1656 44.7809 17.2037 44.7752 17.2409 44.7633L24.7105 42.3897C26.7546 43.4819 29.0648 44.0583 31.4029 44.0583C39.1985 44.0584 45.5406 37.7639 45.5406 30.027C45.5406 22.2893 39.1985 15.9941 31.4028 15.9941ZM31.4028 41.1353C29.2028 41.1353 27.0719 40.5 25.2402 39.2981C25.1786 39.2576 25.1071 39.2368 25.0351 39.2368C24.9971 39.2368 24.959 39.2426 24.9218 39.2544L21.18 40.4438L22.388 36.8802C22.427 36.7648 22.4075 36.6376 22.3355 36.5393C20.9407 34.6334 20.2033 32.3816 20.2033 30.027C20.2033 23.9012 25.2274 18.9173 31.4027 18.9173C37.5773 18.9173 42.6008 23.9012 42.6008 30.027C42.6008 36.1522 37.5775 41.1353 31.4028 41.1353Z" fill="black"/>
</g>
<defs>
<clipPath id="clip0_1122_2357">
<rect width="28.7868" height="28.7868" fill="white" transform="translate(16.7578 15.9941)"/>
</clipPath>
</defs>
</svg>
