<svg width="62" height="62" viewBox="0 0 62 62" fill="none" xmlns="http://www.w3.org/2000/svg">
<circle cx="31.0914" cy="30.7203" r="30.4131" fill="#BE2890" fill-opacity="0.12" stroke="black" stroke-width="0.614407"/>
<g clip-path="url(#clip0_1122_2363)">
<path d="M31.0934 15.9688C22.9496 15.9688 16.3477 22.5707 16.3477 30.7145C16.3477 37.6297 21.1088 43.4324 27.5314 45.0262V35.2208H24.4909V30.7145H27.5314V28.7728C27.5314 23.7539 29.8029 21.4276 34.7303 21.4276C35.6646 21.4276 37.2766 21.6111 37.936 21.7939V25.8785C37.588 25.8419 36.9835 25.8236 36.2326 25.8236C33.8149 25.8236 32.8806 26.7396 32.8806 29.1208V30.7145H37.6972L36.8696 35.2208H32.8806V45.3523C40.1821 44.4705 45.8398 38.2537 45.8398 30.7145C45.8392 22.5707 39.2372 15.9688 31.0934 15.9688Z" fill="black"/>
</g>
<defs>
<clipPath id="clip0_1122_2363">
<rect width="29.4915" height="29.4915" fill="white" transform="translate(16.3477 15.9688)"/>
</clipPath>
</defs>
</svg>
