<svg width="59" height="58" viewBox="0 0 59 58" fill="none" xmlns="http://www.w3.org/2000/svg">
<circle cx="29.2286" cy="29.0069" r="28.5254" fill="#BE2890" fill-opacity="0.12" stroke="white" stroke-width="0.576271"/>
<g clip-path="url(#clip0_435_686)">
<path d="M29.2289 15.1758C21.5906 15.1758 15.3984 21.368 15.3984 29.0063C15.3984 35.4922 19.864 40.9348 25.888 42.4296V33.2329H23.0362V29.0063H25.888V27.1851C25.888 22.4777 28.0185 20.2958 32.6401 20.2958C33.5164 20.2958 35.0284 20.4679 35.6469 20.6394V24.4704C35.3205 24.4361 34.7534 24.419 34.0492 24.419C31.7815 24.419 30.9052 25.2781 30.9052 27.5115V29.0063H35.4228L34.6466 33.2329H30.9052V42.7356C37.7535 41.9085 43.06 36.0776 43.06 29.0063C43.0595 21.368 36.8673 15.1758 29.2289 15.1758Z" fill="white"/>
</g>
<defs>
<clipPath id="clip0_435_686">
<rect width="27.661" height="27.661" fill="white" transform="translate(15.3984 15.1758)"/>
</clipPath>
</defs>
</svg>
