<svg width="59" height="58" viewBox="0 0 59 58" fill="none" xmlns="http://www.w3.org/2000/svg">
<circle cx="29.3136" cy="29.0069" r="28.5254" fill="#BE2890" fill-opacity="0.12" stroke="white" stroke-width="0.576271"/>
<g clip-path="url(#clip0_435_679)">
<path d="M29.3139 17.6664C33.0092 17.6664 33.4469 17.6826 34.9001 17.7474C36.2508 17.8068 36.9801 18.0337 37.4663 18.2228C38.1092 18.4713 38.5739 18.7739 39.0547 19.2547C39.5409 19.7409 39.8381 20.2001 40.0866 20.843C40.2757 21.3293 40.5026 22.064 40.562 23.4093C40.6268 24.8679 40.643 25.3055 40.643 28.9955C40.643 32.6908 40.6268 33.1284 40.562 34.5817C40.5026 35.9324 40.2757 36.6617 40.0866 37.1479C39.8381 37.7908 39.5355 38.2554 39.0547 38.7363C38.5685 39.2225 38.1092 39.5196 37.4663 39.7682C36.9801 39.9572 36.2454 40.1841 34.9001 40.2436C33.4415 40.3084 33.0038 40.3246 29.3139 40.3246C25.6186 40.3246 25.181 40.3084 23.7277 40.2436C22.377 40.1841 21.6477 39.9572 21.1615 39.7682C20.5186 39.5196 20.0539 39.2171 19.5731 38.7363C19.0869 38.25 18.7898 37.7908 18.5412 37.1479C18.3521 36.6617 18.1252 35.9269 18.0658 34.5817C18.001 33.123 17.9848 32.6854 17.9848 28.9955C17.9848 25.3001 18.001 24.8625 18.0658 23.4093C18.1252 22.0586 18.3521 21.3293 18.5412 20.843C18.7898 20.2001 19.0923 19.7355 19.5731 19.2547C20.0594 18.7685 20.5186 18.4713 21.1615 18.2228C21.6477 18.0337 22.3824 17.8068 23.7277 17.7474C25.181 17.6826 25.6186 17.6664 29.3139 17.6664ZM29.3139 15.1758C25.5591 15.1758 25.0891 15.192 23.6142 15.2568C22.1447 15.3216 21.1345 15.5594 20.2592 15.8997C19.3462 16.2563 18.5737 16.7263 17.8065 17.4989C17.0339 18.266 16.5639 19.0386 16.2073 19.9462C15.867 20.8268 15.6293 21.8317 15.5644 23.3012C15.4996 24.7815 15.4834 25.2515 15.4834 29.0063C15.4834 32.7611 15.4996 33.2311 15.5644 34.706C15.6293 36.1755 15.867 37.1857 16.2073 38.061C16.5639 38.974 17.0339 39.7465 17.8065 40.5137C18.5737 41.2809 19.3462 41.7563 20.2538 42.1075C21.1345 42.4478 22.1393 42.6855 23.6088 42.7504C25.0837 42.8152 25.5537 42.8314 29.3085 42.8314C33.0633 42.8314 33.5333 42.8152 35.0082 42.7504C36.4777 42.6855 37.488 42.4478 38.3632 42.1075C39.2708 41.7563 40.0434 41.2809 40.8105 40.5137C41.5777 39.7465 42.0531 38.974 42.4043 38.0664C42.7446 37.1857 42.9823 36.1809 43.0472 34.7114C43.112 33.2365 43.1282 32.7665 43.1282 29.0117C43.1282 25.2569 43.112 24.7869 43.0472 23.312C42.9823 21.8425 42.7446 20.8322 42.4043 19.957C42.0639 19.0386 41.5939 18.266 40.8213 17.4989C40.0542 16.7317 39.2816 16.2563 38.374 15.9051C37.4934 15.5648 36.4885 15.3271 35.019 15.2622C33.5387 15.192 33.0687 15.1758 29.3139 15.1758Z" fill="white"/>
<path d="M29.3143 21.9023C25.3921 21.9023 22.21 25.0844 22.21 29.0067C22.21 32.9289 25.3921 36.111 29.3143 36.111C33.2365 36.111 36.4186 32.9289 36.4186 29.0067C36.4186 25.0844 33.2365 21.9023 29.3143 21.9023ZM29.3143 33.6151C26.7697 33.6151 24.7059 31.5513 24.7059 29.0067C24.7059 26.4621 26.7697 24.3983 29.3143 24.3983C31.8589 24.3983 33.9227 26.4621 33.9227 29.0067C33.9227 31.5513 31.8589 33.6151 29.3143 33.6151Z" fill="white"/>
<path d="M38.3582 21.6215C38.3582 22.5399 37.6126 23.2801 36.6996 23.2801C35.7812 23.2801 35.041 22.5345 35.041 21.6215C35.041 20.703 35.7866 19.9629 36.6996 19.9629C37.6126 19.9629 38.3582 20.7084 38.3582 21.6215Z" fill="white"/>
</g>
<defs>
<clipPath id="clip0_435_679">
<rect width="27.661" height="27.661" fill="white" transform="translate(15.4834 15.1758)"/>
</clipPath>
</defs>
</svg>
