<svg width="59" height="58" viewBox="0 0 59 58" fill="none" xmlns="http://www.w3.org/2000/svg">
<circle cx="29.7716" cy="29.0069" r="28.5254" fill="#BE2890" fill-opacity="0.12" stroke="white" stroke-width="0.576271"/>
<g clip-path="url(#clip0_435_682)">
<path d="M43.3269 23.4732C43.3269 23.4732 43.0568 21.5661 42.2248 20.7287C41.1713 19.6266 39.9935 19.6212 39.4533 19.5563C35.5851 19.2754 29.7773 19.2754 29.7773 19.2754H29.7665C29.7665 19.2754 23.9588 19.2754 20.0906 19.5563C19.5503 19.6212 18.3726 19.6266 17.3191 20.7287C16.4871 21.5661 16.2223 23.4732 16.2223 23.4732C16.2223 23.4732 15.9414 25.7152 15.9414 27.9519V30.0481C15.9414 32.2847 16.2169 34.5268 16.2169 34.5268C16.2169 34.5268 16.4871 36.4339 17.3137 37.2713C18.3671 38.3734 19.7502 38.3356 20.3661 38.4544C22.5811 38.6651 29.7719 38.7299 29.7719 38.7299C29.7719 38.7299 35.5851 38.7191 39.4533 38.4436C39.9935 38.3788 41.1713 38.3734 42.2248 37.2713C43.0568 36.4339 43.3269 34.5268 43.3269 34.5268C43.3269 34.5268 43.6024 32.2901 43.6024 30.0481V27.9519C43.6024 25.7152 43.3269 23.4732 43.3269 23.4732ZM26.914 32.5927V24.8184L34.3857 28.719L26.914 32.5927Z" fill="white"/>
</g>
<defs>
<clipPath id="clip0_435_682">
<rect width="27.661" height="27.661" fill="white" transform="translate(15.9414 15.1758)"/>
</clipPath>
</defs>
</svg>
