<svg width="147" height="28" viewBox="0 0 147 28" fill="none" xmlns="http://www.w3.org/2000/svg">
<path d="M13.8136 0.186523L16.9149 9.73146H26.951L18.8316 15.6306L21.933 25.1755L13.8136 19.2764L5.69415 25.1755L8.79549 15.6306L0.676084 9.73146H10.7122L13.8136 0.186523Z" fill="#FFCF0D"/>
<path d="M43.4405 0.186523L46.5419 9.73146H56.578L48.4586 15.6306L51.5599 25.1755L43.4405 19.2764L35.3211 25.1755L38.4224 15.6306L30.303 9.73146H40.3392L43.4405 0.186523Z" fill="#FFCF0D"/>
<path d="M73.0675 0.186523L76.1688 9.73146H86.2049L78.0855 15.6306L81.1869 25.1755L73.0675 19.2764L64.9481 25.1755L68.0494 15.6306L59.93 9.73146H69.9661L73.0675 0.186523Z" fill="#FFCF0D"/>
<path d="M102.695 0.186523L105.797 9.73146H115.833L107.713 15.6306L110.815 25.1755L102.695 19.2764L94.576 25.1755L97.6773 15.6306L89.5579 9.73146H99.5941L102.695 0.186523Z" fill="#FFCF0D"/>
<path d="M132.322 1.80456L134.948 9.88597L135.06 10.2315H135.424H143.921L137.047 15.226L136.753 15.4396L136.865 15.7851L139.491 23.8665L132.616 18.8719L132.322 18.6584L132.028 18.8719L125.154 23.8665L127.78 15.7851L127.892 15.4396L127.598 15.226L120.724 10.2315H129.221H129.584L129.697 9.88597L132.322 1.80456Z" stroke="black" stroke-opacity="0.47"/>
</svg>
