<svg width="48" height="47" viewBox="0 0 48 47" fill="none" xmlns="http://www.w3.org/2000/svg">
<path d="M8.89653 6.71053H35.7535V25.175H39.1106V3.35352H5.53906V43.639H23.9976V40.282H8.89653V6.71053Z" fill="#9D9D9D"/>
<path d="M12.2539 10.0674H32.3969V13.4244H12.2539V10.0674ZM12.2539 16.7819H29.0394V20.1389H12.2539V16.7819ZM12.2539 23.4959H22.3254V26.8529H12.2539V23.4959ZM34.0749 26.8534C29.4397 26.8534 25.682 30.6111 25.682 35.2463C25.682 39.8816 29.4397 43.6393 34.0749 43.6393C38.7102 43.6393 42.4679 39.8816 42.4679 35.2463C42.4679 30.6111 38.7107 26.8534 34.0749 26.8534ZM34.0749 40.2819C31.2981 40.2819 29.0394 38.0227 29.0394 35.2463C29.0394 32.4695 31.2985 30.2108 34.0749 30.2108C36.8518 30.2108 39.1105 32.4699 39.1105 35.2463C39.1109 38.0227 36.8518 40.2819 34.0749 40.2819Z" fill="#9D9D9D"/>
<path d="M35.3344 31.7656H32.8164V35.7712L36.0013 38.9272L37.7734 37.139L35.3344 34.7219V31.7656Z" fill="#9D9D9D"/>
</svg>
