<svg width="37" height="48" viewBox="0 0 37 48" fill="none" xmlns="http://www.w3.org/2000/svg">
<path d="M33.2179 3.44325H25.8597C25.8515 3.44325 25.8436 3.44417 25.8356 3.44444C25.173 2.55154 24.1113 1.97162 22.9165 1.97162H21.0145C20.5067 1.07495 19.5501 0.5 18.5017 0.5C17.4532 0.5 16.4967 1.07495 15.9889 1.97162H14.0868C12.892 1.97162 11.8303 2.55154 11.1678 3.44444C11.1596 3.44417 11.1517 3.44325 11.1435 3.44325H3.78542C1.78217 3.44325 0.152344 5.07307 0.152344 7.07632V43.8669C0.152344 45.8702 1.78217 47.5 3.78542 47.5H33.2179C35.2211 47.5 36.851 45.8702 36.851 43.8669V7.07632C36.851 5.07307 35.2211 3.44325 33.2179 3.44325ZM11.8334 5.6047C11.8334 4.36219 12.8443 3.35127 14.0868 3.35127H16.4294C16.7214 3.35127 16.9817 3.1675 17.0794 2.89249C17.2947 2.28674 17.8663 1.87965 18.5017 1.87965C19.137 1.87965 19.7086 2.28674 19.9239 2.89249C20.0217 3.1675 20.282 3.35127 20.5739 3.35127H22.9165C24.159 3.35127 25.17 4.36219 25.17 5.6047V7.85812H11.8334V5.6047ZM35.4713 43.8669C35.4713 45.1094 34.4604 46.1204 33.2179 46.1204H3.78542C2.54291 46.1204 1.53199 45.1094 1.53199 43.8669V7.07632C1.53199 5.83381 2.54291 4.8229 3.78542 4.8229H10.5393C10.4838 5.07491 10.4537 5.33631 10.4537 5.6047V8.54795C10.4537 8.92891 10.7626 9.23777 11.1435 9.23777H25.8598C26.2407 9.23777 26.5496 8.92891 26.5496 8.54795V5.6047C26.5496 5.33631 26.5194 5.07491 26.464 4.8229H33.2179C34.4604 4.8229 35.4713 5.83381 35.4713 7.07632V43.8669Z" fill="#B0398D"/>
<path d="M33.22 6.38672H28.8051C28.4241 6.38672 28.1153 6.69558 28.1153 7.07654C28.1153 7.45751 28.4241 7.76637 28.8051 7.76637H32.5301V33.6118H25.126C23.9342 33.6118 22.9646 34.5814 22.9646 35.7732V40.188C22.9646 40.5691 23.2734 40.8778 23.6544 40.8778C24.0354 40.8778 24.3442 40.5691 24.3442 40.188V35.7732C24.3442 35.3421 24.6949 34.9914 25.126 34.9914H31.5546L23.3687 43.1773H4.4773V7.76637H8.20235C8.58332 7.76637 8.89218 7.45751 8.89218 7.07654C8.89218 6.69558 8.58332 6.38672 8.20235 6.38672H3.78748C3.40651 6.38672 3.09766 6.69558 3.09766 7.07654V43.8671C3.09766 44.2481 3.40651 44.557 3.78748 44.557H23.6545C23.6553 44.557 23.6561 44.5569 23.6568 44.5569C23.6787 44.5568 23.7005 44.5557 23.7223 44.5536C23.7333 44.5525 23.744 44.5504 23.7548 44.5489C23.7662 44.5472 23.7776 44.5459 23.7889 44.5436C23.8013 44.5412 23.8133 44.5378 23.8254 44.5347C23.835 44.5322 23.8446 44.5302 23.8542 44.5274C23.8664 44.5237 23.8782 44.5192 23.8901 44.5148C23.8993 44.5114 23.9087 44.5084 23.9178 44.5046C23.9294 44.4999 23.9405 44.4942 23.9518 44.4889C23.9609 44.4846 23.97 44.4806 23.9789 44.4758C23.9903 44.4698 24.0012 44.4629 24.0122 44.4562C24.0204 44.4512 24.0288 44.4466 24.0368 44.4413C24.0501 44.4324 24.0627 44.4227 24.0753 44.4129C24.0804 44.409 24.0859 44.4054 24.0909 44.4013C24.1093 44.3862 24.127 44.3703 24.1437 44.3533L33.7077 34.7893C33.7088 34.7882 33.7096 34.7869 33.7108 34.7858C33.7309 34.7653 33.7493 34.7434 33.7668 34.7206C33.7715 34.7144 33.7763 34.7081 33.7809 34.7018C33.7981 34.6778 33.8141 34.6529 33.8281 34.6268C33.8296 34.6241 33.8308 34.6211 33.8322 34.6184C33.8448 34.594 33.8557 34.5687 33.8655 34.5428C33.8677 34.5368 33.87 34.5308 33.8721 34.5246C33.8818 34.4961 33.8902 34.4671 33.8962 34.4371C33.8965 34.4355 33.8966 34.4339 33.8969 34.4324C33.9022 34.4052 33.9054 34.3772 33.9073 34.3489C33.9079 34.3407 33.9082 34.3326 33.9085 34.3243C33.9088 34.3167 33.9097 34.3091 33.9097 34.3014V7.07654C33.9098 6.69558 33.6009 6.38672 33.22 6.38672Z" fill="#B0398D"/>
<path d="M18.5023 3.44336C18.3211 3.44336 18.1427 3.51694 18.0148 3.64571C17.8861 3.77356 17.8125 3.95199 17.8125 4.13318C17.8125 4.3153 17.8861 4.49281 18.0148 4.62066C18.1427 4.74943 18.3211 4.82301 18.5023 4.82301C18.6835 4.82301 18.862 4.74943 18.9898 4.62066C19.1186 4.49281 19.1921 4.31438 19.1921 4.13318C19.1921 3.95199 19.1186 3.77356 18.9898 3.64571C18.862 3.51694 18.6835 3.44336 18.5023 3.44336Z" fill="#B0398D"/>
<path d="M21.4437 14.3884H28.8019C29.1828 14.3884 29.4917 14.0796 29.4917 13.6986C29.4917 13.3176 29.1828 13.0088 28.8019 13.0088H21.4437C21.0628 13.0088 20.7539 13.3176 20.7539 13.6986C20.7539 14.0796 21.0628 14.3884 21.4437 14.3884Z" fill="#B0398D"/>
<path d="M19.2406 17.3318H28.8062C29.1871 17.3318 29.496 17.0229 29.496 16.642C29.496 16.261 29.1871 15.9521 28.8062 15.9521H19.2406C18.8596 15.9521 18.5508 16.261 18.5508 16.642C18.5508 17.0229 18.8596 17.3318 19.2406 17.3318Z" fill="#B0398D"/>
<path d="M28.8019 18.8955H21.4437C21.0628 18.8955 20.7539 19.2044 20.7539 19.5853C20.7539 19.9663 21.0628 20.2752 21.4437 20.2752H28.8019C29.1828 20.2752 29.4917 19.9663 29.4917 19.5853C29.4917 19.2044 29.1828 18.8955 28.8019 18.8955Z" fill="#B0398D"/>
<path d="M28.8043 21.8389H8.20154C7.82058 21.8389 7.51172 22.1477 7.51172 22.5287C7.51172 22.9097 7.82058 23.2185 8.20154 23.2185H28.8043C29.1852 23.2185 29.4941 22.9097 29.4941 22.5287C29.4941 22.1477 29.1852 21.8389 28.8043 21.8389Z" fill="#B0398D"/>
<path d="M28.8043 24.7822H8.20154C7.82058 24.7822 7.51172 25.0911 7.51172 25.4721C7.51172 25.853 7.82058 26.1619 8.20154 26.1619H28.8043C29.1852 26.1619 29.4941 25.853 29.4941 25.4721C29.4941 25.0911 29.1852 24.7822 28.8043 24.7822Z" fill="#B0398D"/>
<path d="M28.8043 27.7246H8.20154C7.82058 27.7246 7.51172 28.0335 7.51172 28.4144C7.51172 28.7954 7.82058 29.1043 8.20154 29.1043H28.8043C29.1852 29.1043 29.4941 28.7954 29.4941 28.4144C29.4941 28.0335 29.1852 27.7246 28.8043 27.7246Z" fill="#B0398D"/>
<path d="M29.4941 31.3588C29.4941 30.9778 29.1852 30.6689 28.8043 30.6689H8.20154C7.82058 30.6689 7.51172 30.9778 7.51172 31.3588C7.51172 31.7397 7.82058 32.0486 8.20154 32.0486H28.8043C29.1852 32.0486 29.4941 31.7397 29.4941 31.3588Z" fill="#B0398D"/>
<path d="M20.7091 33.6113H14.8226C14.4417 33.6113 14.1328 33.9202 14.1328 34.3012C14.1328 34.6821 14.4417 34.991 14.8226 34.991H20.7091C21.0901 34.991 21.399 34.6821 21.399 34.3012C21.399 33.9202 21.0901 33.6113 20.7091 33.6113Z" fill="#B0398D"/>
<path d="M20.7112 36.5547H17.7679C17.387 36.5547 17.0781 36.8635 17.0781 37.2445C17.0781 37.6255 17.387 37.9343 17.7679 37.9343H20.7112C21.0922 37.9343 21.401 37.6255 21.401 37.2445C21.401 36.8635 21.0922 36.5547 20.7112 36.5547Z" fill="#B0398D"/>
</svg>
