<svg width="29" height="28" viewBox="0 0 29 28" fill="none" xmlns="http://www.w3.org/2000/svg">
<path d="M14.2526 15.1654C14.8969 15.1654 15.4193 14.643 15.4193 13.9987C15.4193 13.3544 14.8969 12.832 14.2526 12.832C13.6083 12.832 13.0859 13.3544 13.0859 13.9987C13.0859 14.643 13.6083 15.1654 14.2526 15.1654Z" stroke="black" stroke-width="2" stroke-linecap="round" stroke-linejoin="round"/>
<path d="M14.2526 7.0013C14.8969 7.0013 15.4193 6.47897 15.4193 5.83464C15.4193 5.1903 14.8969 4.66797 14.2526 4.66797C13.6083 4.66797 13.0859 5.1903 13.0859 5.83464C13.0859 6.47897 13.6083 7.0013 14.2526 7.0013Z" stroke="black" stroke-width="2" stroke-linecap="round" stroke-linejoin="round"/>
<path d="M14.2526 23.3333C14.8969 23.3333 15.4193 22.811 15.4193 22.1667C15.4193 21.5223 14.8969 21 14.2526 21C13.6083 21 13.0859 21.5223 13.0859 22.1667C13.0859 22.811 13.6083 23.3333 14.2526 23.3333Z" stroke="black" stroke-width="2" stroke-linecap="round" stroke-linejoin="round"/>
</svg>
