<svg width="23" height="24" viewBox="0 0 23 24" fill="none" xmlns="http://www.w3.org/2000/svg">
<path d="M2.76562 6.4668H4.61007H19.3656" stroke="#B0398D" stroke-width="1.38333" stroke-linecap="round" stroke-linejoin="round"/>
<path d="M17.5205 6.46721V19.3783C17.5205 19.8675 17.3262 20.3366 16.9803 20.6825C16.6344 21.0284 16.1652 21.2228 15.676 21.2228H6.45382C5.96464 21.2228 5.4955 21.0284 5.1496 20.6825C4.8037 20.3366 4.60938 19.8675 4.60938 19.3783V6.46721M7.37604 6.46721V4.62276C7.37604 4.13359 7.57037 3.66445 7.91627 3.31855C8.26217 2.97265 8.73131 2.77832 9.22049 2.77832H12.9094C13.3986 2.77832 13.8677 2.97265 14.2136 3.31855C14.5595 3.66445 14.7538 4.13359 14.7538 4.62276V6.46721" stroke="#B0398D" stroke-width="1.38333" stroke-linecap="round" stroke-linejoin="round"/>
<path d="M9.22266 11.0781V16.6115" stroke="#B0398D" stroke-width="1.38333" stroke-linecap="round" stroke-linejoin="round"/>
<path d="M12.9102 11.0781V16.6115" stroke="#B0398D" stroke-width="1.38333" stroke-linecap="round" stroke-linejoin="round"/>
</svg>
