<svg width="25" height="24" viewBox="0 0 25 24" fill="none" xmlns="http://www.w3.org/2000/svg">
<g clip-path="url(#clip0_491_4457)">
<path d="M12.1353 1.18138e-05C14.9126 -0.000782071 17.6043 0.961506 19.7516 2.72289C21.8989 4.48428 23.3691 6.93578 23.9115 9.65963C24.4539 12.3835 24.035 15.2111 22.7261 17.6607C21.4173 20.1103 19.2996 22.0303 16.7338 23.0935C14.168 24.1567 11.313 24.2972 8.65517 23.4913C5.99736 22.6853 3.70126 20.9826 2.15814 18.6734C0.615026 16.3642 -0.0796214 13.5914 0.192573 10.8275C0.464768 8.06351 1.68696 5.47945 3.65088 3.51564C4.76353 2.39929 6.08593 1.51397 7.54202 0.910616C8.9981 0.307266 10.5591 -0.00220387 12.1353 1.18138e-05ZM6.9712 10.5645H8.85401C8.95761 10.5645 9.05697 10.6056 9.13022 10.6789C9.20348 10.7521 9.24463 10.8515 9.24463 10.9551V16.1133C9.24463 16.2169 9.20348 16.3162 9.13022 16.3895C9.05697 16.4628 8.95761 16.5039 8.85401 16.5039H6.9712C6.8676 16.5039 6.76824 16.4628 6.69498 16.3895C6.62173 16.3162 6.58057 16.2169 6.58057 16.1133V10.9531C6.58057 10.8495 6.62173 10.7502 6.69498 10.6769C6.76824 10.6037 6.8676 10.5625 6.9712 10.5625V10.5645ZM11.9126 6.69532C12.1177 5.66407 13.8071 6.61329 13.9263 8.28321C13.952 8.87742 13.9035 9.47252 13.7817 10.0547H16.2075C17.2153 10.0938 18.0962 10.8164 17.4751 12.0078C17.6157 12.5254 17.6372 13.1309 17.2524 13.375C17.3013 14.1895 17.0747 14.6953 16.6528 15.0938C16.6457 15.462 16.5398 15.8215 16.3462 16.1348C16.0161 16.6016 15.7603 16.4844 15.2388 16.4844H11.1372C10.4888 16.4844 10.1333 16.3067 9.70948 15.7734V11.2129C10.9302 10.8828 11.5806 9.2129 11.9067 8.11525V6.69532H11.9126ZM19.1392 4.99611C17.5188 3.37522 15.3865 2.36635 13.1056 2.14138C10.8248 1.91642 8.5365 2.48929 6.63069 3.76239C4.72487 5.03548 3.31946 6.93001 2.65392 9.12317C1.98838 11.3163 2.1039 13.6724 2.98079 15.79C3.85768 17.9075 5.44169 19.6555 7.46291 20.736C9.48412 21.8165 11.8175 22.1628 14.0654 21.7158C16.3133 21.2688 18.3367 20.0562 19.7907 18.2845C21.2447 16.5129 22.0395 14.2919 22.0396 12C22.041 10.6991 21.7855 9.41076 21.2878 8.20885C20.79 7.00693 20.0599 5.91514 19.1392 4.99611Z" fill="black"/>
</g>
<defs>
<clipPath id="clip0_491_4457">
<rect width="24" height="24" fill="white" transform="translate(0.135742)"/>
</clipPath>
</defs>
</svg>
