<svg width="23" height="18" viewBox="0 0 23 18" fill="none" xmlns="http://www.w3.org/2000/svg">
<path d="M12.1368 10.3445H12.1333C11.8448 10.1861 11.5353 10.0524 11.2045 9.95385L9.69537 9.5C9.39637 9.7323 9.0692 9.92223 8.7172 10.0629C8.21756 10.2671 7.69697 10.3689 7.16574 10.3689C6.63451 10.3689 6.11389 10.2668 5.61428 10.0629C5.26251 9.92223 4.93538 9.7323 4.63611 9.5L3.12698 9.95385C2.79636 10.0524 2.4832 10.1827 2.19464 10.341C0.734552 11.1361 -0.134315 12.6067 0.0170146 14.1687L0.2 16.0402C0.235113 16.058 0.273953 16.0718 0.312523 16.0896C2.14905 16.8952 4.54474 17.3806 7.16574 17.3806C9.78671 17.3806 12.1826 16.8952 14.0189 16.0896C14.0577 16.0718 14.0963 16.058 14.1314 16.0402L14.3144 14.1687C14.4658 12.6067 13.5934 11.1396 12.1368 10.3445Z" fill="black"/>
<path d="M3.91984 6.06605C4.00074 7.46615 4.85914 8.61663 6.01304 9.08465C6.37552 9.23252 6.7624 9.31342 7.16697 9.31342C7.57151 9.31342 7.95867 9.23252 8.32088 9.08465C9.47481 8.61659 10.3332 7.46638 10.4141 6.06605L10.5055 4.5006C10.509 4.42319 10.5125 4.34923 10.5125 4.27182C10.5125 2.29115 9.06302 0.620117 7.16674 0.620117C5.20003 0.620117 3.70849 2.42133 3.828 4.50056L3.91984 6.06605Z" fill="black"/>
<path d="M20.2725 9.8307L19.1153 9.48242C18.8267 9.71818 18.5064 9.90814 18.1583 10.0523C17.7115 10.2353 17.2365 10.3303 16.7548 10.3303C16.2727 10.3303 15.7977 10.2353 15.3473 10.0488C14.999 9.90465 14.6753 9.71469 14.3868 9.48242L13.2715 9.82026C14.7244 10.8793 15.5339 12.561 15.3682 14.2706L15.1748 16.23C15.6883 16.276 16.216 16.3005 16.7544 16.3005C19.0835 16.3005 21.208 15.8611 22.823 15.1326L22.9848 13.5036C23.1433 11.8749 22.0244 10.3585 20.2725 9.8307Z" fill="black"/>
<path d="M13.9243 6.44256C13.9947 7.66343 14.7441 8.66593 15.7466 9.074C16.0632 9.20421 16.4012 9.27444 16.753 9.27444C17.1048 9.27444 17.4425 9.20398 17.7591 9.074C18.7618 8.66597 19.5114 7.66319 19.5849 6.44256L19.6624 5.08103C19.6658 5.0143 19.6695 4.94733 19.6695 4.88059C19.6695 3.15313 18.4029 1.7002 16.753 1.7002C15.0396 1.7002 13.7413 3.26589 13.8468 5.081L13.9243 6.44256Z" fill="black"/>
</svg>
