<svg width="23" height="16" viewBox="0 0 23 16" fill="none" xmlns="http://www.w3.org/2000/svg">
<path d="M5.90102 8.20753C7.38545 8.20753 8.59324 6.63211 8.59324 5.1473C8.59324 3.66286 7.38545 2.45508 5.90102 2.45508C4.41658 2.45508 3.20898 3.66286 3.20898 5.1473C3.20898 6.63211 4.41658 8.20753 5.90102 8.20753Z" fill="black"/>
<path d="M9.58758 9.22866C9.62915 9.1805 9.67181 9.13399 9.71503 9.08694C9.21937 8.6495 8.60432 8.34444 7.92225 8.23438C7.39982 8.63208 6.74854 8.86902 6.04284 8.86902H5.75939C5.05369 8.86902 4.40222 8.63208 3.87998 8.23438C2.17491 8.50995 0.873047 9.98816 0.873047 11.7709C0.873047 12.7499 3.12431 13.5444 5.90133 13.5444C6.77531 13.5444 7.59689 13.4655 8.313 13.3271C8.27144 13.174 8.24727 13.0151 8.24727 12.8484C8.24708 11.5204 8.72314 10.2348 9.58761 9.22861L9.58758 9.22866Z" fill="black"/>
<path d="M14.4521 7.98806C14.8293 8.16586 15.2369 8.26712 15.6624 8.26712C16.0885 8.26712 16.4963 8.16549 16.8739 7.98752C18.1867 7.36788 19.1235 5.81514 19.1235 4.33272C19.1235 2.42402 17.5709 0.871094 15.6622 0.871094C13.7537 0.871094 12.2012 2.4242 12.2012 4.33272C12.2012 5.81552 13.1385 7.36884 14.4521 7.98806Z" fill="black"/>
<path d="M18.2607 8.30275C17.9437 8.5439 17.5888 8.73744 17.2078 8.8764C16.7817 9.03186 16.3234 9.11865 15.8444 9.11865H15.48C15.0018 9.11865 14.5435 9.03204 14.1179 8.87714C13.7365 8.73835 13.3809 8.54462 13.0634 8.30273C11.9845 8.47705 11.032 9.0262 10.3419 9.81206C9.62959 10.623 9.19727 11.6852 9.19727 12.8494C9.19727 12.9335 9.21118 13.0166 9.23645 13.0986C9.58801 14.2405 12.3304 15.1298 15.6621 15.1298C19.2323 15.1296 22.1266 14.1081 22.1266 12.8493C22.1266 10.557 20.4525 8.65685 18.2604 8.30275L18.2607 8.30275Z" fill="black"/>
</svg>
