<svg width="46" height="47" viewBox="0 0 46 47" fill="none" xmlns="http://www.w3.org/2000/svg">
<path d="M41.2665 14.2042C40.9751 14.0359 40.6446 13.9474 40.3082 13.9474C39.9717 13.9474 39.6412 14.0359 39.3498 14.2042L32.584 17.5392C32.5294 16.051 31.8996 14.6421 30.8271 13.6089C29.7546 12.5758 28.3231 11.999 26.834 12H9.58398C8.05899 12 6.59645 12.6058 5.51812 13.6841C4.43979 14.7625 3.83398 16.225 3.83398 17.75V29.25C3.83398 30.775 4.43979 32.2375 5.51812 33.3159C6.59645 34.3942 8.05899 35 9.58398 35H26.834C28.3231 35.001 29.7546 34.4242 30.8271 33.3911C31.8996 32.3579 32.5294 30.949 32.584 29.4608L39.4073 32.8725C39.6686 33.0064 39.9571 33.0786 40.2507 33.0833C40.6095 33.0845 40.9615 32.9849 41.2665 32.7958C41.5427 32.6232 41.7704 32.383 41.928 32.098C42.0856 31.8129 42.168 31.4924 42.1673 31.1667V15.8333C42.168 15.5076 42.0856 15.1871 41.928 14.902C41.7704 14.617 41.5427 14.3768 41.2665 14.2042ZM28.7507 29.25C28.7507 29.7583 28.5487 30.2458 28.1893 30.6053C27.8298 30.9647 27.3423 31.1667 26.834 31.1667H9.58398C9.07565 31.1667 8.58814 30.9647 8.2287 30.6053C7.86925 30.2458 7.66732 29.7583 7.66732 29.25V17.75C7.66732 17.2417 7.86925 16.7542 8.2287 16.3947C8.58814 16.0353 9.07565 15.8333 9.58398 15.8333H26.834C27.3423 15.8333 27.8298 16.0353 28.1893 16.3947C28.5487 16.7542 28.7507 17.2417 28.7507 17.75V29.25ZM38.334 28.0617L32.584 25.1867V21.8133L38.334 18.9383V28.0617Z" fill="black"/>
</svg>
