<svg width="85" height="86" viewBox="0 0 85 86" fill="none" xmlns="http://www.w3.org/2000/svg">
<g clip-path="url(#clip0_642_18700)">
<path d="M80.1339 15.9666H4.98545C2.50925 15.9666 0.5 18.0216 0.5 20.5567V65.4188C0.5 67.9545 2.50827 70.009 4.98545 70.009H80.1339C82.6102 70.009 84.6194 67.954 84.6194 65.4188V20.5567C84.6194 18.0211 82.6112 15.9666 80.1339 15.9666ZM17.2069 54.2278L11.8863 34.7185C10.0466 33.675 7.94733 32.8363 5.59988 32.255L5.67626 31.7877H15.3266C16.6265 31.8371 17.6773 32.2616 18.0395 33.684L20.1376 44.0048L20.138 44.006L20.7623 47.1187L26.6215 31.8018H32.9609L23.539 54.2194L17.2069 54.2269V54.2278ZM37.6228 54.2469H31.6408L31.6406 54.2468L35.3825 31.785H41.3672L37.6228 54.2469ZM48.0373 54.5802C45.3534 54.552 42.7687 54.0089 41.3707 53.3819L42.2107 48.3537L42.9817 48.7106C44.9473 49.5492 46.2198 49.8896 48.6151 49.8896C50.3353 49.8896 52.1808 49.2018 52.1956 47.6963C52.2068 46.7131 51.4236 46.011 49.0942 44.91C46.8241 43.8355 43.8169 42.0351 43.8501 38.8076C43.8856 34.4415 48.0511 31.3949 53.9647 31.3949C56.2849 31.3949 58.1429 31.8833 59.3285 32.3384L58.5173 37.2068L57.9809 36.9475C56.8764 36.4925 55.4587 36.056 53.5018 36.0869C51.1589 36.0869 50.0745 37.0854 50.0745 38.019C50.0609 39.0711 51.342 39.7646 53.4339 40.8035C56.8866 42.4067 58.4811 44.3512 58.4584 46.9063C58.412 51.5687 54.3282 54.5802 48.0373 54.5802ZM73.9657 54.2541C73.9657 54.2541 73.4167 51.6747 73.2377 50.8884C72.3649 50.8884 66.2599 50.8787 65.5731 50.8787C65.3408 51.4862 64.3131 54.2541 64.3131 54.2541H58.0286L66.9167 33.6694C67.5459 32.2067 68.618 31.8067 70.0508 31.8067H74.6751L79.5191 54.2545H73.9657V54.2541Z" fill="white"/>
<path d="M67.296 46.2857C67.7909 44.9914 69.6804 40.0067 69.6804 40.0067C69.645 40.0666 70.1715 38.7063 70.4737 37.863L70.8785 39.7995C70.8785 39.7995 72.0242 45.1612 72.2638 46.2855H67.2959L67.296 46.2857Z" fill="white"/>
</g>
<defs>
<clipPath id="clip0_642_18700">
<rect width="84.3903" height="84.3903" fill="white" transform="translate(0.5 0.820068)"/>
</clipPath>
</defs>
</svg>
