<svg width="139" height="139" viewBox="0 0 139 139" fill="none" xmlns="http://www.w3.org/2000/svg">
<circle cx="69.5" cy="69.5" r="67.5" stroke="url(#paint0_linear_642_18513)" stroke-width="4"/>
<g clip-path="url(#clip0_642_18513)">
<path fill-rule="evenodd" clip-rule="evenodd" d="M83.2186 71.8085L83.0593 63.3851L73.296 66.1953C71.5596 66.5816 69.7595 66.5816 68.0232 66.1953L58.7234 63.3561V71.8665C58.9913 74.9881 67.9435 75.9369 70.6885 76.0673C72.8614 76.1759 81.5528 75.0316 82.7261 73.2354C82.9917 72.7954 83.1505 72.2992 83.1897 71.7868L83.2186 71.8085ZM27.8399 90.6833H36.6834C36.3445 90.5929 36.0448 90.3937 35.8302 90.1162C35.6155 89.8388 35.498 89.4986 35.4956 89.1479V46.9221C35.4956 46.5027 35.6617 46.1003 35.9576 45.8031C36.2535 45.5058 36.6551 45.3379 37.0745 45.3359H103.499C103.919 45.3378 104.321 45.5056 104.618 45.8026C104.915 46.0997 105.083 46.502 105.085 46.9221V89.1406C105.083 89.4926 104.965 89.8342 104.749 90.112C104.533 90.3897 104.231 90.5881 103.89 90.6761H113.153C115.609 90.6761 115.609 94.3844 113.153 94.3844H27.8399C27.3691 94.355 26.9273 94.1472 26.6043 93.8034C26.2813 93.4596 26.1016 93.0056 26.1016 92.5339C26.1016 92.0622 26.2813 91.6082 26.6043 91.2644C26.9273 90.9206 27.3691 90.7128 27.8399 90.6833ZM38.2044 47.8202H102.6V88.6916H38.2044V47.8202ZM67.9 91.3714H73.0787C73.3144 91.3733 73.5399 91.4678 73.7065 91.6344C73.8732 91.8011 73.9676 92.0266 73.9695 92.2623C73.9639 92.4954 73.8678 92.7173 73.7015 92.8808C73.5353 93.0444 73.3119 93.1369 73.0787 93.1387H67.8638C67.6281 93.1368 67.4026 93.0423 67.236 92.8757C67.0693 92.709 66.9748 92.4835 66.973 92.2478C66.9748 92.0121 67.0693 91.7866 67.236 91.62C67.4026 91.4533 67.6281 91.3588 67.8638 91.3569L67.9 91.3714ZM44.8751 82.3975C44.6913 82.4111 44.5067 82.3866 44.3329 82.3256C44.159 82.2645 43.9996 82.1683 43.8646 82.0429C43.7296 81.9175 43.6219 81.7656 43.5483 81.5967C43.4747 81.4278 43.4367 81.2455 43.4367 81.0612C43.4367 80.877 43.4747 80.6947 43.5483 80.5258C43.6219 80.3569 43.7296 80.205 43.8646 80.0796C43.9996 79.9542 44.159 79.8579 44.3329 79.7969C44.5067 79.7359 44.6913 79.7114 44.8751 79.7249H96.1254C96.4628 79.7498 96.7783 79.9014 97.0086 80.1492C97.2389 80.3971 97.3669 80.7229 97.3669 81.0612C97.3669 81.3996 97.2389 81.7254 97.0086 81.9732C96.7783 82.2211 96.4628 82.3727 96.1254 82.3975H44.8751ZM45.1068 74.6549C44.7694 74.6301 44.4539 74.4785 44.2236 74.2306C43.9933 73.9828 43.8653 73.657 43.8653 73.3186C43.8653 72.9803 43.9933 72.6545 44.2236 72.4066C44.4539 72.1588 44.7694 72.0072 45.1068 71.9823H55.4351C55.4351 72.1055 55.4351 72.2286 55.4351 72.3445C55.5363 73.1789 55.8478 73.9739 56.3405 74.6549H45.1068ZM90.4615 71.9823H95.8936C96.231 72.0072 96.5465 72.1588 96.7768 72.4066C97.0071 72.6545 97.1351 72.9803 97.1351 73.3186C97.1351 73.657 97.0071 73.9828 96.7768 74.2306C96.5465 74.4785 96.231 74.6301 95.8936 74.6549H85.6885C85.7956 74.4709 85.89 74.2797 85.9709 74.0828H87.0211C88.035 74.0817 89.0088 73.687 89.7372 72.9819L89.7951 72.9239C90.0814 72.6472 90.3254 72.33 90.5194 71.9823H90.4615ZM87.137 59.0973V66.3402H87.3615C87.4365 66.3402 87.5083 66.3699 87.5613 66.4229C87.6143 66.4759 87.644 66.5477 87.644 66.6226V68.5854C87.644 68.6604 87.6143 68.7322 87.5613 68.7852C87.5083 68.8382 87.4365 68.8679 87.3615 68.8679H87.137V69.5487C87.2796 69.5771 87.4079 69.654 87.5003 69.7662C87.5927 69.8783 87.6435 70.019 87.644 70.1644C87.6421 70.329 87.5759 70.4863 87.4595 70.6028C87.3431 70.7192 87.1857 70.7854 87.0211 70.7873H85.8985C85.7326 70.7873 85.5734 70.7219 85.4555 70.6053C85.3375 70.4887 85.2703 70.3302 85.2684 70.1644C85.2692 70.018 85.321 69.8765 85.4149 69.7642C85.5087 69.6518 85.6387 69.5757 85.7826 69.5487V68.8679H85.5508C85.4759 68.8679 85.4041 68.8382 85.3511 68.7852C85.2981 68.7322 85.2684 68.6604 85.2684 68.5854V66.6371C85.2684 66.5622 85.2981 66.4904 85.3511 66.4374C85.4041 66.3844 85.4759 66.3547 85.5508 66.3547H85.7826V59.5391L73.9333 63.2257C71.8216 63.7508 69.6134 63.7508 67.5017 63.2257L54.4646 59.3219L53.2767 58.967C51.8282 58.3658 52.1758 56.9535 53.5447 56.6275L68.2984 52.2166C69.7854 51.7457 71.3816 51.7457 72.8686 52.2166L87.3905 56.5623C88.9695 56.9462 89.2809 58.4093 87.4485 59.0104L87.137 59.1046V59.0973Z" fill="black"/>
</g>
<defs>
<linearGradient id="paint0_linear_642_18513" x1="69.5" y1="0" x2="69.5" y2="139" gradientUnits="userSpaceOnUse">
<stop stop-color="#B0398D"/>
<stop offset="1" stop-color="#9D9D9D"/>
</linearGradient>
<clipPath id="clip0_642_18513">
<rect width="89" height="49.0485" fill="white" transform="translate(26 45.3359)"/>
</clipPath>
</defs>
</svg>
