<svg width="139" height="139" viewBox="0 0 139 139" fill="none" xmlns="http://www.w3.org/2000/svg">
<circle cx="69.5" cy="69.5" r="67.5" stroke="url(#paint0_linear_642_18522)" stroke-width="4"/>
<g clip-path="url(#clip0_642_18522)">
<path d="M44.0475 80.7181L39.8587 90.5241C39.7609 90.7545 39.5989 90.9519 39.3919 91.0928C39.1849 91.2336 38.9418 91.3118 38.6915 91.3181L28.1537 92.265L36.1868 99.2784C36.5598 99.6053 36.7019 100.099 36.5989 100.552L34.2256 110.948L43.376 105.476C43.8024 105.221 44.3176 105.238 44.7155 105.476L53.8695 110.948L52.8267 106.39C53.6936 106.487 54.5872 106.423 55.4559 106.185L56.6425 111.392C56.6763 111.618 56.6763 111.85 56.639 112.083C56.5935 112.363 56.4959 112.633 56.3512 112.877C56.0476 113.384 55.555 113.751 54.9816 113.895C54.4326 114.034 53.8269 113.961 53.2957 113.645L44.0458 108.114L34.8757 113.6C34.6768 113.73 34.4529 113.829 34.2131 113.89L34.0461 113.931C33.7903 113.977 33.515 113.977 33.2379 113.923L33.149 113.907C32.5557 113.769 32.0707 113.403 31.767 112.92C31.4598 112.431 31.3535 111.843 31.4703 111.278L33.8809 100.728L25.7661 93.6417C25.5529 93.4552 25.3717 93.2243 25.2438 92.9702C25.1243 92.7369 25.0468 92.4843 25.0147 92.2241L25.0058 92.1087C24.9667 91.5206 25.1675 90.9628 25.5281 90.5329C25.8851 90.1066 26.3985 89.8135 26.9848 89.7477L37.7625 88.7867L41.9869 78.8901C42.099 78.6233 42.2619 78.3807 42.4665 78.176C42.6335 78.0054 42.8324 77.8615 43.0545 77.7496C43.1344 77.707 43.2162 77.6715 43.3032 77.6448C43.829 77.4565 44.3904 77.4832 44.8771 77.6786C45.3657 77.8758 45.7867 78.2453 46.0389 78.7462L49.3822 86.5644L48.4105 90.8154C48.3394 90.7266 48.2826 90.6289 48.2382 90.5241L44.0475 80.7181ZM32.2732 52C31.2607 51.5737 30.7846 50.4083 31.2109 49.3958C31.6373 48.3832 32.8044 47.9071 33.817 48.3334L42.1183 51.8508C43.1309 52.2772 43.607 53.4443 43.1806 54.4551C42.7543 55.4676 41.5872 55.9437 40.5746 55.5174L32.2732 52ZM40.7149 39.0604C39.9404 38.2805 39.9439 37.0192 40.7238 36.2447C41.5037 35.4702 42.7649 35.4737 43.5395 36.2536L49.8814 42.663C50.6559 43.4429 50.6524 44.7042 49.8725 45.4787C49.0926 46.2532 47.8314 46.2497 47.0568 45.4698L40.7149 39.0604ZM53.4432 30.2954C53.0257 29.2793 53.5107 28.1157 54.5268 27.6982C55.5447 27.2808 56.7065 27.7657 57.1257 28.7819L60.5543 37.1223C60.9717 38.1384 60.485 39.302 59.4689 39.7194C58.4527 40.1369 57.2892 39.6519 56.8717 38.6358L53.4432 30.2954ZM107.138 48.3334C108.151 47.9071 109.318 48.3832 109.744 49.3958C110.17 50.4083 109.694 51.5737 108.682 52L100.38 55.5174C99.3679 55.9437 98.2008 55.4676 97.7744 54.4551C97.3481 53.4443 97.8241 52.2772 98.8367 51.8508L107.138 48.3334ZM97.4156 36.2536C98.1901 35.4737 99.4514 35.4702 100.231 36.2447C101.011 37.0192 101.015 38.2805 100.24 39.0604L93.8982 45.4698C93.1237 46.2497 91.8624 46.2532 91.0825 45.4787C90.3027 44.7042 90.2991 43.4429 91.0736 42.663L97.4156 36.2536ZM83.8293 28.7819C84.2485 27.7657 85.4103 27.2808 86.4282 27.6982C87.4444 28.1157 87.9293 29.2793 87.5119 30.2954L84.0833 38.6358C83.6659 39.6519 82.5023 40.1369 81.4862 39.7194C80.47 39.302 79.9833 38.1384 80.4007 37.1223L83.8293 28.7819ZM68.4186 27.0338C68.4186 25.9324 69.3122 25.0371 70.4153 25.0371C71.5167 25.0371 72.4121 25.9324 72.4121 27.0338V36.0511C72.4121 37.1525 71.5167 38.0478 70.4153 38.0478C69.3122 38.0478 68.4186 37.1525 68.4186 36.0511V27.0338ZM72.7318 49.1311L79.1199 64.087L95.3851 65.5437C96.0406 65.6094 96.6091 65.9309 97.0034 66.3999L97.0692 66.4869C97.4191 66.9435 97.611 67.5226 97.5666 68.1319L97.5595 68.2225C97.5275 68.5245 97.4387 68.807 97.309 69.0628L97.2717 69.1303C97.1544 69.3417 97.0052 69.5371 96.8329 69.7041L84.4582 80.5156L88.1034 96.4716C88.2331 97.1058 88.1017 97.7364 87.7783 98.2498C87.0571 99.4045 85.5169 99.7296 84.3889 98.9924L70.4775 90.6733L56.4507 99.0581C55.9049 99.3757 55.2566 99.4675 54.644 99.3139C53.3526 98.9888 52.5763 97.6956 52.8658 96.413L56.4969 80.5156L44.2145 69.7894C43.9739 69.579 43.777 69.3232 43.6353 69.0367C43.4935 68.7501 43.4097 68.4385 43.3885 68.1195C43.3476 67.5049 43.543 66.8671 43.9854 66.3626C44.2074 66.1103 44.4686 65.9132 44.7492 65.7764C45.0388 65.6343 45.3586 65.5525 45.6819 65.5348L61.8351 64.087L68.2392 49.0902C68.5021 48.4738 68.9942 48.0172 69.5715 47.7863C70.8186 47.2836 72.2131 47.8911 72.7229 49.108L72.7318 49.1311ZM98.9788 78.9167L103.193 88.7867L113.97 89.7477C114.556 89.8135 115.07 90.1084 115.427 90.5329C115.788 90.9628 115.988 91.5206 115.949 92.1087L115.94 92.2241C115.908 92.4843 115.831 92.7369 115.711 92.9702C115.583 93.2243 115.404 93.4534 115.189 93.6417L107.074 100.728L109.485 111.278C109.606 111.863 109.485 112.447 109.188 112.92C108.886 113.401 108.399 113.769 107.806 113.907L107.717 113.923C107.44 113.977 107.166 113.977 106.909 113.931L106.742 113.89C106.502 113.829 106.278 113.732 106.079 113.6L96.9075 108.114L87.6593 113.645C87.4086 113.795 87.1306 113.895 86.8413 113.938C86.5521 113.981 86.2571 113.966 85.9735 113.895C85.4228 113.756 84.92 113.405 84.6038 112.877C84.4546 112.627 84.3587 112.357 84.3143 112.087L84.3125 112.072C84.2752 111.85 84.277 111.621 84.3125 111.396L85.5009 106.18C85.6946 106.233 85.8935 106.278 86.0925 106.313C86.7587 106.434 87.4461 106.462 88.1283 106.386L87.0855 110.948L96.2378 105.476C96.6375 105.238 97.1509 105.221 97.5772 105.476L106.729 110.948L104.354 100.552C104.253 100.099 104.395 99.6053 104.768 99.2784L112.801 92.265L102.263 91.3181C102.013 91.3118 101.77 91.2336 101.563 91.0928C101.356 90.9519 101.194 90.7545 101.096 90.5241L96.9075 80.7181L92.7204 90.5241C92.6742 90.6324 92.612 90.7337 92.5392 90.8243L91.5693 86.5768L94.9161 78.7462C95.1684 78.2453 95.5894 77.8758 96.0779 77.6786C96.5664 77.4832 97.1278 77.4565 97.6536 77.6448C97.7407 77.6732 97.8241 77.7088 97.9023 77.7514C98.1261 77.8633 98.3215 78.0072 98.4885 78.176C98.6946 78.3838 98.858 78.629 98.9682 78.8901L98.9788 78.9167Z" fill="black"/>
</g>
<defs>
<linearGradient id="paint0_linear_642_18522" x1="69.5" y1="0" x2="69.5" y2="139" gradientUnits="userSpaceOnUse">
<stop stop-color="#B0398D"/>
<stop offset="1" stop-color="#9D9D9D"/>
</linearGradient>
<clipPath id="clip0_642_18522">
<rect width="90.9541" height="89" fill="white" transform="translate(25 25)"/>
</clipPath>
</defs>
</svg>
