<svg width="139" height="139" viewBox="0 0 139 139" fill="none" xmlns="http://www.w3.org/2000/svg">
<circle cx="69.5" cy="69.5" r="67.5" stroke="url(#paint0_linear_642_18503)" stroke-width="4"/>
<g clip-path="url(#clip0_642_18503)">
<path d="M44.3627 107.086L49.9857 102.737L56.3866 105.826L53.9937 99.1439L58.9129 94.0172L51.8156 94.2395L48.4521 87.9793L46.4592 94.8025L39.4583 96.062L45.3332 100.063L44.3627 107.086ZM70.4404 113.62L73.1297 107.041L80.2122 106.515L74.7966 101.922L76.4931 95.0174L70.4478 98.7586L64.4025 95.0174L66.0991 101.922L60.6687 106.515L67.7512 107.041L70.4404 113.62ZM49.4967 63.8722C52.7861 62.6424 56.9867 61.0718 60.0093 59.1975C63.4765 62.4127 65.7287 66.0725 65.9065 70.5176H75.004C75.1818 66.0725 77.434 62.4127 80.9012 59.1975C83.9238 61.0718 88.1244 62.635 91.4138 63.8722C101.104 67.4949 96.37 74.1107 90.7174 79.6818C85.5315 84.7863 78.3675 87.9423 70.4478 87.9423C62.5282 87.9423 55.3716 84.7937 50.1783 79.6818C44.6071 74.1922 39.7398 67.5172 49.4967 63.8722ZM63.3135 54.6783C63.4617 53.4633 59.876 48.8627 59.224 46.6475C57.8164 44.425 57.32 40.8689 58.8536 38.513C59.4685 37.5796 59.2018 35.9053 59.2018 34.6236C59.2018 21.7995 81.6717 21.7847 81.6717 34.6236C81.6717 36.246 81.3012 37.4833 82.1828 38.7575C83.6571 40.8911 82.8941 44.6769 81.6494 46.6623C80.8567 48.9812 77.0932 53.3744 77.3599 54.6931C77.5822 61.2644 63.2616 61.0496 63.3135 54.6783ZM115.958 87.6385L111.609 82.0229L114.699 75.622L108.009 78.0224L102.882 73.1031L103.104 80.2004L96.8442 83.5639L103.667 85.5494L104.927 92.5503L108.92 86.6754L115.958 87.6385ZM96.5182 107.086L95.5625 100.04L101.437 96.0397L94.4438 94.7729L92.4584 87.9497L89.0949 94.2098L81.9902 93.9876L86.9094 99.1142L84.4943 105.811L90.8952 102.722L96.5182 107.086ZM24.9229 87.6311L31.9683 86.6754L35.9689 92.5503L37.2357 85.5568L44.0589 83.5713L37.7988 80.2078L38.021 73.1105L32.8869 78.0298L26.1823 75.622L29.2716 82.0229L24.9229 87.6311Z" fill="black"/>
</g>
<defs>
<linearGradient id="paint0_linear_642_18503" x1="69.5" y1="0" x2="69.5" y2="139" gradientUnits="userSpaceOnUse">
<stop stop-color="#B0398D"/>
<stop offset="1" stop-color="#9D9D9D"/>
</linearGradient>
<clipPath id="clip0_642_18503">
<rect width="91.0352" height="88.62" fill="white" transform="translate(24.9229 25)"/>
</clipPath>
</defs>
</svg>
