<svg width="41" height="40" viewBox="0 0 41 40" fill="none" xmlns="http://www.w3.org/2000/svg">
<path d="M30.5 13.3333C30.5 10.6811 29.4464 8.13755 27.5711 6.26218C25.6957 4.38682 23.1522 3.33325 20.5 3.33325C17.8478 3.33325 15.3043 4.38682 13.4289 6.26218C11.5536 8.13755 10.5 10.6811 10.5 13.3333C10.5 24.9999 5.5 28.3333 5.5 28.3333H35.5C35.5 28.3333 30.5 24.9999 30.5 13.3333Z" stroke="black" stroke-width="2.8" stroke-linecap="round" stroke-linejoin="round"/>
<path d="M23.3839 35C23.0908 35.5051 22.6703 35.9244 22.1642 36.2159C21.6582 36.5073 21.0845 36.6608 20.5005 36.6608C19.9166 36.6608 19.3428 36.5073 18.8368 36.2159C18.3308 35.9244 17.9102 35.5051 17.6172 35" stroke="black" stroke-width="2.8" stroke-linecap="round" stroke-linejoin="round"/>
</svg>
