<svg width="42" height="40" viewBox="0 0 42 40" fill="none" xmlns="http://www.w3.org/2000/svg">
<g clip-path="url(#clip0_2423_33947)">
<path fill-rule="evenodd" clip-rule="evenodd" d="M22.8114 20.399C22.8114 21.4552 21.9552 22.3114 20.899 22.3114C19.8428 22.3114 18.9866 21.4552 18.9866 20.399C18.9866 19.3428 19.8428 18.4866 20.899 18.4866C21.9552 18.4866 22.8114 19.3428 22.8114 20.399ZM13.8868 18.4866C12.8306 18.4866 11.9744 19.3428 11.9744 20.399C11.9744 21.4552 12.8306 22.3114 13.8868 22.3114C14.943 22.3114 15.7992 21.4552 15.7992 20.399C15.7992 19.3428 14.943 18.4866 13.8868 18.4866ZM27.9112 18.4866C26.855 18.4866 25.9987 19.3428 25.9987 20.399C25.9987 21.4552 26.855 22.3114 27.9112 22.3114C28.9673 22.3114 29.8236 21.4552 29.8236 20.399C29.8236 19.3428 28.9673 18.4866 27.9112 18.4866ZM37.4732 20.399C37.4744 26.2196 34.4224 31.6142 29.4326 34.6111C24.4429 37.608 18.2468 37.7678 13.1091 35.0321L7.68268 36.8409C6.76634 37.1465 5.75599 36.9081 5.07296 36.225C4.38993 35.542 4.1515 34.5317 4.45709 33.6153L6.2659 28.1889C3.02733 22.1 3.89769 14.6419 8.4513 9.46238C13.0049 4.28283 20.29 2.46434 26.7436 4.89631C33.1972 7.32827 37.4704 13.5024 37.4732 20.399ZM34.9233 20.399C34.9216 14.5029 31.2323 9.23748 25.6911 7.22279C20.1499 5.20811 13.9403 6.87444 10.1521 11.3926C6.36401 15.9108 5.80642 22.3159 8.75681 27.4207C8.93957 27.737 8.97787 28.1165 8.86199 28.463L6.87469 34.4233L12.835 32.436C12.9648 32.3917 13.1011 32.3691 13.2382 32.3691C13.4621 32.3695 13.682 32.4288 13.8757 32.5412C18.215 35.0518 23.5645 35.0552 27.907 32.55C32.2495 30.0449 34.9245 25.4123 34.9233 20.399Z" fill="black"/>
</g>
<defs>
<clipPath id="clip0_2423_33947">
<rect width="40.798" height="40" fill="white" transform="translate(0.5)"/>
</clipPath>
</defs>
</svg>
