<svg width="41" height="40" viewBox="0 0 41 40" fill="none" xmlns="http://www.w3.org/2000/svg">
<path d="M34.5834 5.23975H32.7997C32.3602 5.23975 31.9543 5.47412 31.7346 5.85468C31.5148 6.23523 31.5149 6.70428 31.7346 7.08483C31.9543 7.46538 32.3602 7.69976 32.7997 7.69976H34.5834C34.9569 7.69976 35.2597 8.0025 35.2597 8.37634V24.9201H5.73936V8.37634C5.73936 8.0025 6.04209 7.69976 6.41594 7.69976H27.8792C28.3187 7.69976 28.7248 7.46539 28.9446 7.08483C29.1644 6.70428 29.1643 6.23522 28.9446 5.85468C28.7249 5.47413 28.3187 5.23975 27.8792 5.23975H6.41594C5.58406 5.23975 4.78633 5.57025 4.19789 6.15834C3.60982 6.74671 3.2793 7.54443 3.2793 8.37639V31.6233C3.2793 32.4549 3.60981 33.2529 4.19789 33.841C4.78627 34.4294 5.58398 34.7596 6.41594 34.7596H34.5831C35.4148 34.7596 36.2127 34.4294 36.8009 33.841C37.3889 33.2529 37.7195 32.4549 37.7195 31.6233V8.37639C37.7195 7.54451 37.3889 6.74678 36.8009 6.15834C36.2128 5.57027 35.4148 5.23975 34.5831 5.23975H34.5834ZM34.5834 32.2999H6.41622C6.23677 32.2999 6.06466 32.2288 5.9377 32.1018C5.81075 31.9749 5.73964 31.8031 5.73964 31.6236V27.3799H35.26V31.6236C35.26 31.8031 35.1888 31.9749 35.0619 32.1018C34.9349 32.2288 34.7628 32.2999 34.5837 32.2999H34.5834Z" fill="#BF2B91"/>
<path d="M32.7998 28.6101H16.81C16.3705 28.6101 15.9647 28.8445 15.7449 29.225C15.5251 29.6056 15.5252 30.0746 15.7449 30.4552C15.9646 30.8357 16.3705 31.0701 16.81 31.0701H32.7998C33.2393 31.0701 33.6454 30.8357 33.8652 30.4552C34.0849 30.0746 34.0849 29.6056 33.8652 29.225C33.6455 28.8445 33.2393 28.6101 32.7998 28.6101Z" fill="#BF2B91"/>
<path d="M13.121 28.6101H8.2009C7.76145 28.6101 7.35528 28.8445 7.13551 29.225C6.91575 29.6056 6.91579 30.0746 7.13551 30.4552C7.35524 30.8357 7.76143 31.0701 8.2009 31.0701H13.121C13.5604 31.0701 13.9663 30.8357 14.1861 30.4552C14.4058 30.0746 14.4058 29.6056 14.1861 29.225C13.9663 28.8445 13.5605 28.6101 13.121 28.6101Z" fill="#BF2B91"/>
<path d="M18.7786 10.4061C18.6016 10.2807 18.3944 10.2047 18.1786 10.1852C17.9626 10.1656 17.7453 10.2038 17.5485 10.2953C17.3342 10.3887 17.1511 10.5413 17.0202 10.7354C16.8896 10.9292 16.817 11.1562 16.8105 11.39V21.2298C16.8105 21.5561 16.9403 21.8689 17.171 22.0996C17.4017 22.3303 17.7145 22.46 18.0407 22.46C18.2614 22.4597 18.478 22.4002 18.6679 22.2876L26.0479 17.9089C26.3998 17.7014 26.6256 17.3324 26.6507 16.9247C26.6751 16.5118 26.4901 16.1145 26.1587 15.867L18.7786 10.4061ZM19.2706 19.078V13.8503L23.1942 16.7531L19.2706 19.078Z" fill="#BF2B91"/>
</svg>
