<svg width="41" height="40" viewBox="0 0 41 40" fill="none" xmlns="http://www.w3.org/2000/svg">
<g clip-path="url(#clip0_2423_33974)">
<path fill-rule="evenodd" clip-rule="evenodd" d="M22.5932 28.8045C22.5932 29.8503 21.7454 30.6982 20.6995 30.6982C19.6536 30.6982 18.8058 29.8503 18.8058 28.8045C18.8058 27.7586 19.6536 26.9108 20.6995 26.9108C21.7454 26.9108 22.5932 27.7586 22.5932 28.8045ZM20.6995 11.7611C17.2182 11.7611 14.3872 14.3098 14.3872 17.4423V18.0735C14.3872 18.7707 14.9524 19.336 15.6496 19.336C16.3469 19.336 16.9121 18.7707 16.9121 18.0735V17.4423C16.9121 15.7064 18.6117 14.2861 20.6995 14.2861C22.7873 14.2861 24.4869 15.7064 24.4869 17.4423C24.4869 19.1781 22.7873 20.5984 20.6995 20.5984C20.0023 20.5984 19.437 21.1636 19.437 21.8609V23.1234C19.437 23.8206 20.0023 24.3858 20.6995 24.3858C21.3967 24.3858 21.962 23.8206 21.962 23.1234V23.0097C24.8404 22.4811 27.0118 20.185 27.0118 17.4423C27.0118 14.3098 24.1808 11.7611 20.6995 11.7611ZM37.1116 20.5984C37.1116 29.6626 29.7636 37.0105 20.6995 37.0105C11.6353 37.0105 4.28741 29.6626 4.28741 20.5984C4.28741 11.5343 11.6353 4.18633 20.6995 4.18633C29.7597 4.1959 37.102 11.5382 37.1116 20.5984ZM34.5867 20.5984C34.5867 12.9288 28.3692 6.71127 20.6995 6.71127C13.0298 6.71127 6.81234 12.9288 6.81234 20.5984C6.81234 28.2681 13.0298 34.4856 20.6995 34.4856C28.3656 34.4769 34.578 28.2645 34.5867 20.5984Z" fill="black"/>
</g>
<defs>
<clipPath id="clip0_2423_33974">
<rect width="40" height="40" fill="white" transform="translate(0.5)"/>
</clipPath>
</defs>
</svg>
