<svg width="41" height="40" viewBox="0 0 41 40" fill="none" xmlns="http://www.w3.org/2000/svg">
<g clip-path="url(#clip0_2423_33953)">
<path fill-rule="evenodd" clip-rule="evenodd" d="M33.8844 12.8659L25.1344 4.11587C24.8998 3.88151 24.5816 3.74998 24.25 3.75024H9.25C7.86929 3.75024 6.75 4.86953 6.75 6.25024V33.7502C6.75 35.131 7.86929 36.2502 9.25 36.2502H31.75C33.1307 36.2502 34.25 35.131 34.25 33.7502V13.7502C34.2503 13.4186 34.1187 13.1005 33.8844 12.8659ZM25.5 8.01743L29.9828 12.5002H25.5V8.01743ZM31.75 33.7502H9.25V6.25024H23V13.7502C23 14.4406 23.5596 15.0002 24.25 15.0002H31.75V33.7502ZM26.75 21.2502C26.75 21.9406 26.1904 22.5002 25.5 22.5002H15.5C14.8096 22.5002 14.25 21.9406 14.25 21.2502C14.25 20.5599 14.8096 20.0002 15.5 20.0002H25.5C26.1904 20.0002 26.75 20.5599 26.75 21.2502ZM26.75 26.2502C26.75 26.9406 26.1904 27.5002 25.5 27.5002H15.5C14.8096 27.5002 14.25 26.9406 14.25 26.2502C14.25 25.5599 14.8096 25.0002 15.5 25.0002H25.5C26.1904 25.0002 26.75 25.5599 26.75 26.2502Z" fill="black"/>
</g>
<defs>
<clipPath id="clip0_2423_33953">
<rect width="40" height="40" fill="white" transform="translate(0.5)"/>
</clipPath>
</defs>
</svg>
