<svg width="41" height="40" viewBox="0 0 41 40" fill="none" xmlns="http://www.w3.org/2000/svg">
<g clip-path="url(#clip0_2423_33967)">
<path fill-rule="evenodd" clip-rule="evenodd" d="M20.6995 13.0236C16.516 13.0236 13.1247 16.415 13.1247 20.5984C13.1247 24.7819 16.516 28.1732 20.6995 28.1732C24.8829 28.1732 28.2743 24.7819 28.2743 20.5984C28.27 16.4168 24.8811 13.028 20.6995 13.0236ZM20.6995 25.6483C17.9105 25.6483 15.6496 23.3874 15.6496 20.5984C15.6496 17.8095 17.9105 15.5485 20.6995 15.5485C23.4885 15.5485 25.7494 17.8095 25.7494 20.5984C25.7494 23.3874 23.4885 25.6483 20.6995 25.6483ZM34.5867 20.9393C34.593 20.712 34.593 20.4848 34.5867 20.2576L36.9412 17.316C37.1915 17.0028 37.2782 16.5893 37.1747 16.2019C36.7887 14.751 36.2113 13.3579 35.4578 12.0594C35.2577 11.7148 34.9067 11.4849 34.5109 11.4392L30.7677 11.0226C30.612 10.8585 30.4542 10.7007 30.2943 10.5492L29.8524 6.79649C29.8063 6.40038 29.5758 6.04934 29.2306 5.84963C27.9316 5.09743 26.5387 4.52062 25.0882 4.13425C24.7005 4.03119 24.287 4.11847 23.974 4.36939L21.0404 6.71127C20.8131 6.71127 20.5859 6.71127 20.3586 6.71127L17.4171 4.3615C17.1039 4.11113 16.6903 4.02444 16.303 4.12794C14.8523 4.51462 13.4593 5.09197 12.1605 5.8449C11.8159 6.04497 11.586 6.39595 11.5403 6.79175L11.1237 10.5413C10.9596 10.698 10.8017 10.8558 10.6502 11.0147L6.89756 11.4455C6.50146 11.4916 6.15041 11.7221 5.95071 12.0673C5.19851 13.3663 4.6217 14.7593 4.23533 16.2098C4.13227 16.5974 4.21955 17.011 4.47046 17.3239L6.81234 20.2576C6.81234 20.4848 6.81234 20.712 6.81234 20.9393L4.46257 23.8808C4.21221 24.1941 4.12552 24.6076 4.22902 24.995C4.615 26.4459 5.19239 27.8389 5.94597 29.1374C6.14604 29.482 6.49703 29.7119 6.89283 29.7576L10.636 30.1742C10.7928 30.3384 10.9506 30.4962 11.1095 30.6477L11.5466 34.4004C11.5927 34.7965 11.8232 35.1475 12.1684 35.3472C13.4674 36.0994 14.8603 36.6762 16.3108 37.0626C16.6985 37.1657 17.112 37.0784 17.425 36.8275L20.3586 34.4856C20.5859 34.4919 20.8131 34.4919 21.0404 34.4856L23.9819 36.8401C24.2951 37.0905 24.7087 37.1771 25.096 37.0736C26.5469 36.6877 27.94 36.1103 29.2385 35.3567C29.5831 35.1566 29.813 34.8056 29.8587 34.4098L30.2753 30.6666C30.4394 30.5109 30.5972 30.3531 30.7487 30.1932L34.5014 29.7513C34.8975 29.7052 35.2486 29.4747 35.4483 29.1296C36.2005 27.8305 36.7773 26.4376 37.1637 24.9871C37.2667 24.5994 37.1794 24.1859 36.9285 23.873L34.5867 20.9393ZM32.0459 19.9135C32.0728 20.3697 32.0728 20.8271 32.0459 21.2833C32.0271 21.5956 32.125 21.9038 32.3205 22.1481L34.5598 24.946C34.3029 25.7627 33.9739 26.5548 33.5767 27.3132L30.0102 27.7172C29.6996 27.7516 29.4128 27.9001 29.2054 28.1338C28.9016 28.4754 28.5781 28.799 28.2364 29.1027C28.0027 29.3102 27.8543 29.597 27.8198 29.9075L27.4237 33.4709C26.6654 33.8682 25.8733 34.1973 25.0566 34.454L22.2571 32.2147C22.033 32.0357 21.7548 31.9383 21.468 31.9385H21.3923C20.9361 31.9654 20.4787 31.9654 20.0225 31.9385C19.7102 31.9197 19.402 32.0176 19.1577 32.2131L16.3519 34.454C15.5353 34.1971 14.7431 33.8681 13.9847 33.4709L13.5808 29.9091C13.5463 29.5985 13.3978 29.3118 13.1641 29.1043C12.8225 28.8005 12.499 28.477 12.1952 28.1354C11.9877 27.9017 11.701 27.7532 11.3904 27.7187L7.82705 27.3211C7.42968 26.5628 7.10066 25.7706 6.8439 24.9539L9.08321 22.1544C9.27874 21.9101 9.3766 21.602 9.35779 21.2896C9.33097 20.8334 9.33097 20.376 9.35779 19.9198C9.3766 19.6075 9.27874 19.2993 9.08321 19.0551L6.8439 16.2508C7.10086 15.4342 7.42987 14.642 7.82705 13.8837L11.3888 13.4797C11.6994 13.4452 11.9861 13.2968 12.1936 13.0631C12.4974 12.7214 12.8209 12.3979 13.1626 12.0941C13.3972 11.8865 13.5462 11.5991 13.5808 11.2877L13.9769 7.72598C14.7351 7.3286 15.5273 6.99959 16.344 6.74283L19.1435 8.98213C19.3878 9.17767 19.696 9.27552 20.0083 9.25672C20.4645 9.22989 20.9219 9.22989 21.3781 9.25672C21.6904 9.27552 21.9986 9.17767 22.2429 8.98213L25.0471 6.74283C25.8637 6.99978 26.6559 7.32879 27.4143 7.72598L27.8182 11.2877C27.8527 11.5983 28.0012 11.8851 28.2349 12.0925C28.5765 12.3963 28.9 12.7198 29.2038 13.0615C29.4113 13.2952 29.698 13.4436 30.0086 13.4781L33.5719 13.8742C33.9693 14.6325 34.2983 15.4247 34.5551 16.2413L32.3158 19.0409C32.1184 19.2872 32.0204 19.5985 32.0412 19.9135H32.0459Z" fill="black"/>
</g>
<defs>
<clipPath id="clip0_2423_33967">
<rect width="40" height="40" fill="white" transform="translate(0.5)"/>
</clipPath>
</defs>
</svg>
