<svg width="71" height="46" viewBox="0 0 71 46" fill="none" xmlns="http://www.w3.org/2000/svg">
<g clip-path="url(#clip0_2423_33993)">
<path d="M48.104 5.78861C48.6406 5.78861 49.0733 5.35596 49.0733 4.8193C49.0733 4.28264 48.6406 3.84998 48.104 3.84998H27.5292V1.85311C27.5292 1.31645 27.0966 0.883789 26.5599 0.883789C26.0232 0.883789 25.5906 1.31645 25.5906 1.85311V3.84998H1.0734C0.536743 3.84998 0.104088 4.28264 0.104088 4.8193C0.104088 5.35596 0.536743 5.78861 1.0734 5.78861H3.30463V33.645H0.969398C0.432739 33.645 8.39233e-05 34.0777 8.39233e-05 34.6143C8.39233e-05 35.151 0.432739 35.5837 0.969398 35.5837H25.9733V36.5682C25.9206 36.6029 25.886 36.6376 25.8527 36.6722L19.9175 42.3134C19.5376 42.6767 19.5195 43.2994 19.8829 43.6793C20.2462 44.0607 20.8688 44.0773 21.2502 43.714L25.9553 39.2335V44.1466C25.9553 44.6833 26.388 45.116 26.9246 45.116C27.4613 45.116 27.8939 44.6833 27.8939 44.1466V39.0435L32.8071 43.714C33.1884 44.0773 33.8111 44.0773 34.1744 43.6793C34.5377 43.2994 34.5377 42.6767 34.1397 42.3134L28.2046 36.6722C28.1186 36.5862 27.9979 36.5169 27.8939 36.4642V35.5837H48.3883C48.9249 35.5837 49.3576 35.151 49.3576 34.6143C49.3576 34.0777 48.9249 33.645 48.3883 33.645H5.24327V5.78861H48.104ZM29.1628 29.5459C29.2793 29.5459 29.3947 29.5229 29.5024 29.4783C29.6101 29.4337 29.7079 29.3683 29.7903 29.2859C29.8727 29.2035 29.9381 29.1057 29.9827 28.998C30.0273 28.8903 30.0503 28.7749 30.0503 28.6584C30.0503 28.1689 29.6523 27.7723 29.1628 27.7723H10.2521C9.76258 27.7723 9.36599 28.1689 9.36599 28.6584C9.36599 29.1493 9.76258 29.5459 10.2521 29.5459H29.1628ZM27.8232 23.5844C28.3127 23.5844 28.7093 23.1878 28.7093 22.6983C28.7093 22.2074 28.3127 21.8108 27.8232 21.8108H10.2521C9.76258 21.8108 9.36599 22.2074 9.36599 22.6983C9.36599 23.1878 9.76258 23.5844 10.2521 23.5844H27.8232ZM30.7048 17.6229C31.1943 17.6229 31.5909 17.2263 31.5909 16.7368C31.5909 16.2472 31.1943 15.8493 30.7048 15.8493H10.2521C9.76258 15.8493 9.36599 16.2472 9.36599 16.7368C9.36599 17.2263 9.76258 17.6229 10.2521 17.6229H30.7048ZM39.8253 11.6614C40.3148 11.6614 40.7114 11.2648 40.7114 10.7753C40.7114 10.2857 40.3148 9.88775 39.8253 9.88775H10.2521C9.76258 9.88775 9.36599 10.2857 9.36599 10.7753C9.36599 11.2648 9.76258 11.6614 10.2521 11.6614H39.8253ZM40.4659 23.3819L33.7417 16.3318C33.3465 15.9158 32.6892 15.9006 32.2746 16.2944C31.8586 16.6896 31.8433 17.3469 32.2371 17.7615L38.5717 24.4039C38.0516 25.0335 37.8048 25.8808 37.9698 26.7447C38.2638 28.2826 39.749 29.2907 41.2855 28.9967L48.3175 27.6447C49.0192 27.5227 49.6765 27.1371 50.1272 26.5145L52.4083 23.3625L52.4139 23.6468V23.4415L52.5956 33.9584L52.3196 35.5337H64.1136L63.8696 34.0749L64.0859 23.6412V23.6468L64.122 21.8579L64.1344 21.8718C65.3409 23.0796 65.3922 25.9584 65.5267 27.7071L65.8332 31.7119C65.9039 32.6258 65.9802 33.1416 66.6957 33.7601C67.7358 34.6559 69.4872 34.8404 70.4121 33.7074C71.0098 32.978 71.0389 31.8132 70.9779 30.7495C70.67 25.4287 70.0446 17.4204 64.0859 14.7856V14.8522C61.5593 13.8482 58.582 14.285 55.8641 14.285C54.5702 14.285 53.4331 14.475 52.4236 14.8619C51.7788 15.0103 51.1839 15.3833 50.7651 15.9616L46.1945 22.2809L40.4659 23.3819ZM58.2742 1.31783C54.9613 1.31783 52.2766 4.00252 52.2766 7.31539C52.2766 10.6269 54.9613 13.3116 58.2742 13.3116C61.587 13.3116 64.2717 10.6269 64.2717 7.31539C64.2717 4.00252 61.587 1.31783 58.2742 1.31783Z" fill="#B0398D"/>
</g>
<defs>
<clipPath id="clip0_2423_33993">
<rect width="71" height="44.2322" fill="white" transform="matrix(-1 0 0 1 71 0.884033)"/>
</clipPath>
</defs>
</svg>
